{
.appVersion = "3151";
.formatVersion = 3;
DisplayStrings = (
"HH/Placeholder HO/Placeholder OOFAF GAG
A/Placeholder A B/Placeholder B C/Placeholder C D/Placeholder D E/Placeholder E F/Placeholder F G/Placeholder G H/Placeholder H I/Placeholder I  J/Placeholder J K/Placeholder K L/Placeholder L M/Placeholder M N/Placeholder N O/Placeholder O P/Placeholder P Q/Placeholder Q R/Placeholder R S/Placeholder S T/Placeholder T U/Placeholder U V/Placeholder V W/Placeholder W X/Placeholder X Y/Placeholder Y Z/Placeholder Z HH/Placeholder HO/Placeholder OO

ABCDEFGHIJKLMNOPQRSTUVWXYZ AJAJ HDH DV D DY DX

ADD AFAIK AGRADO ALTAR ALVARO AMAYA ARVO AUSTRAL AVATAR AVIÓN AWARD AYUDA AYUNO BAOARLEY LCL LO  CHERVIL FALAZ FAMILY FAVOR FOLD FOSFORO HOYO KALE KELLOGS KILO GLG KUNST LONDRES 
HGH GYRO yro LYCHEE LYON MARVELOUS MONTH MUG MY OVOIDE OXATAIL OXO PAIN PATO PIZZA POINT RAYA ROTO RYAN SQUASH SXS TAIWAN TALL TARA TEMPERTURE TERMO TÌNH TIRO TOFU TOMATO TUVO TWARDOCK TWOMBLI UPPUMA VACA VANILLA VARIAR VELOCIDAD VIAJAR VIENE TJ AJ BJ VOLCAN WALKING WALS WC WD WHEAT WINSTON WONDER WULC XERGIS XEROX YALE YEYO YIN YOGURT YOU ZUCCHINI ZWEIBACK
ROUND NGƯỜI THẤY VƯƠNG TRỜI

VẬY CHẠY ĐỨT ỚT THƯƠNG TẤY ",
" nn/Placeholder no/Placeholder oo HH/Placeholder HO/Placeholder OO
o.,:;…!¡?¿nn?·•*#///backslash Ll

LL/periodcentered.loclCAT.case L ;L/periodcentered.loclCAT (){}[]-­–—‐_o‚„
“”‘’«»‹›\"'⟨⟩@",
"a/Placeholder a bj/Placeholder b c/Placeholder c d/Placeholder d e/Placeholder e f/Placeholder f g/Placeholder g h/Placeholder h i/Placeholder i jjj k/Placeholder k l/Placeholder l m/Placeholder m n/Placeholder n ok/Placeholder o p/Placeholder p q/Placeholder q r/Placeholder r s/Placeholder s t/Placeholder t u/Placeholder u v/Placeholder v w/Placeholder w x/Placeholder x y/Placeholder y z/Placeholder z
nn/Placeholder no/Placeholder oo

abcdefghijklmnopqrstuvwxyz

fuear fall kilo kola long avoide want wind oxo zapato

Twombli Tgmaiwan Taiwan Tomato 

glyphs = (
{
glyphname = A;
lastChange = "2023-07-07 13:52:06 +0000";
layers = (
{
anchors = (
{
name = bottom;
pos = (313,0);
},
{
name = ogonek;
pos = (588,10);
},
{
name = top;
pos = (319,700);
}
);
layerId = "6242D68C-0A25-4F05-8F2A-2075F7C4A210";
shapes = (
{
closed = 1;
nodes = (
(132,-10,o),
(165,8,o),
(174,38,cs),
(335,550,l),
(298,550,l),
(461,38,ls),
(471,8,o),
(503,-10,o),
(536,-10,cs),
(596,-10,o),
(627,50,o),
(609,98,cs),
(396,657,ls),
(382,693,o),
(357,710,o),
(319,710,cs),
(279,710,o),
(252,692,o),
(239,657,cs),
(25,98,ls),
(8,55,o),
(35,-10,o),
(99,-10,cs)
);
},
{
closed = 1;
nodes = (
(474,144,l),
(474,284,l),
(146,284,l),
(146,144,l)
);
}
);
width = 634;
},
{
anchors = (
{
name = bottom;
pos = (283,0);
},
{
name = ogonek;
pos = (508,0);
},
{
name = top;
pos = (282,700);
}
);
background = {
shapes = (
{
attr = {
strokeWidth = 2;
};
closed = 0;
nodes = (
(46,0,l),
(290,698,l)
);
},
{
attr = {
strokeWidth = 2;
};
closed = 0;
nodes = (
(120,251,l),
(448,251,l)
);
},
{
attr = {
strokeWidth = 2;
};
closed = 0;
nodes = (
(526,0,l),
(282,698,l)
);
},
{
closed = 1;
nodes = (
(133,281,l),
(133,223,l),
(435,223,l),
(435,281,l)
);
},
{
closed = 1;
nodes = (
(64,-10,o),
(74,-2,o),
(78,9,cs),
(299,639,l),
(272,639,l),
(493,9,ls),
(497,-2,o),
(507,-10,o),
(520,-10,cs),
(542,-10,o),
(554,10,o),
(547,29,cs),
(319,681,ls),
(312,701,o),
(299,710,o),
(286,710,cs),
(273,710,o),
(260,701,o),
(253,681,cs),
(25,29,ls),
(18,10,o),
(30,-10,o),
(52,-10,cs)
);
}
);
};
layerId = "3D52442A-254C-4C79-B742-A98FD72DF947";
shapes = (
{
closed = 1;
nodes = (
(53,-10,o),
(62,-4,o),
(65,5,cs),
(288,643,l),
(278,643,l),
(501,5,ls),
(504,-4,o),
(513,-10,o),
(523,-10,cs),
(541,-10,o),
(550,7,o),
(545,21,cs),
(305,695,ls),
(302,704,o),
(292,710,o),
(283,710,cs),
(274,710,o),
(264,704,o),
(261,695,cs),
(21,21,ls),
(16,7,o),
(25,-10,o),
(43,-10,cs)
);
},
{
closed = 1;
nodes = (
(444,237,l),
(444,281,l),
(125,281,l),
(125,237,l)
);
}
);
width = 566;
},
{
anchors = (
{
name = bottom;
pos = (290,14);
},
{
name = ogonek;
pos = (523,2);
},
{
name = top;
pos = (295,700);
}
);
layerId = "09D2E10D-7E7D-41B4-9A81-DCD24BEE186F";
shapes = (
{
closed = 1;
nodes = (
(82,-10,o),
(99,1,o),
(104,18,cs),
(306,613,l),
(285,613,l),
(486,18,ls),
(491,1,o),
(509,-10,o),
(527,-10,cs),
(561,-10,o),
(577,25,o),
(568,50,cs),
(343,673,ls),
(333,700,o),
(315,710,o),
(295,710,cs),
(275,710,o),
(257,700,o),
(248,673,cs),
(23,50,ls),
(14,26,o),
(28,-10,o),
(63,-10,cs)
);
},
{
closed = 1;
nodes = (
(463,203,l),
(463,285,l),
(122,285,l),
(122,203,l)
);
}
);
width = 590;
}
);
unicode = 65;
},
{
glyphname = Aogonek;
lastChange = "2023-07-07 13:47:12 +0000";
layers = (
{
layerId = "6242D68C-0A25-4F05-8F2A-2075F7C4A210";
shapes = (
{
closed = 1;
nodes = (
(132,-10,o),
(164,8,o),
(174,38,cs),
(348,559,l),
(306,559,l),
(473,60,ls),
(480,39,o),
(463,25,o),
(441,8,cs),
(414,-14,o),
(380,-41,o),
(380,-95,cs),
(380,-165,o),
(438,-215,o),
(516,-215,cs),
(565,-215,o),
(609,-198,o),
(639,-164,cs),
(650,-151,o),
(657,-134,o),
(657,-116,cs),
(657,-77,o),
(627,-60,o),
(598,-60,cs),
(572,-60,o),
(558,-69,o),
(543,-80,cs),
(534,-87,o),
(519,-96,o),
(509,-96,cs),
(499,-96,o),
(494,-88,o),
(494,-82,cs),
(494,-66,o),
(525,-50,o),
(561,-28,cs),
(587,-12,o),
(635,15,o),
(635,65,cs),
(635,78,o),
(632,90,o),
(629,98,cs),
(406,657,ls),
(392,693,o),
(367,710,o),
(328,710,cs),
(289,710,o),
(264,693,o),
(249,657,cs),
(25,98,ls),
(8,55,o),
(35,-10,o),
(99,-10,cs)
);
},
{
closed = 1;
nodes = (
(484,140,l),
(484,290,l),
(156,290,l),
(156,138,l)
);
}
);
width = 677;
},
{
background = {
shapes = (
{
closed = 1;
nodes = (
(812,-202,o),
(835,-186,o),
(848,-168,cs),
(857,-156,o),
(861,-151,o),
(861,-141,cs),
(861,-130,o),
(853,-123,o),
(843,-123,cs),
(834,-123,o),
(829,-129,o),
(824,-134,c),
(807,-154,o),
(791,-157,o),
(779,-157,cs),
(761,-157,o),
(740,-142,o),
(740,-119,cs),
(740,-61,o),
(864,-34,o),
(846,18,cs),
(813,111,l),
(772,89,l),
(797,16,ls),
(810,-23,o),
(695,-31,o),
(695,-124,cs),
(695,-171,o),
(740,-202,o),
(780,-202,cs)
);
},
{
ref = A;
},
{
closed = 1;
nodes = (
(502,-28,o),
(380,-39,o),
(380,-131,cs),
(380,-184,o),
(420,-215,o),
(470,-215,cs),
(507,-215,o),
(534,-200,o),
(553,-175,cs),
(557,-169,o),
(561,-164,o),
(561,-155,cs),
(561,-143,o),
(553,-136,o),
(543,-136,cs),
(533,-136,o),
(528,-142,o),
(523,-147,cs),
(504,-166,o),
(491,-174,o),
(472,-174,cs),
(441,-174,o),
(424,-155,o),
(424,-130,cs),
(424,-65,o),
(545,-57,o),
(545,5,c),
(502,13,l)
);
}
);
};
layerId = "3D52442A-254C-4C79-B742-A98FD72DF947";
shapes = (
{
closed = 1;
nodes = (
(53,-10,o),
(62,-4,o),
(65,5,cs),
(288,640,l),
(278,640,l),
(496,20,ls),
(503,0,o),
(482,-14,o),
(456,-31,cs),
(423,-53,o),
(382,-79,o),
(382,-131,cs),
(382,-184,o),
(422,-215,o),
(472,-215,cs),
(509,-215,o),
(536,-200,o),
(555,-175,cs),
(559,-169,o),
(563,-164,o),
(563,-155,cs),
(563,-143,o),
(555,-136,o),
(545,-136,cs),
(535,-136,o),
(530,-142,o),
(525,-147,cs),
(506,-166,o),
(493,-174,o),
(474,-174,cs),
(443,-174,o),
(426,-155,o),
(426,-130,cs),
(426,-99,o),
(458,-79,o),
(489,-59,cs),
(519,-40,o),
(548,-22,o),
(548,6,cs),
(548,11,o),
(547,16,o),
(545,21,cs),
(305,695,ls),
(302,704,o),
(292,710,o),
(283,710,cs),
(274,710,o),
(264,704,o),
(261,695,cs),
(21,21,ls),
(17,11,o),
(22,-10,o),
(43,-10,cs)
);
},
{
closed = 1;
nodes = (
(444,236,l),
(444,281,l),
(125,281,l),
(125,236,l)
);
}
);
width = 583;
},
{
layerId = "09D2E10D-7E7D-41B4-9A81-DCD24BEE186F";
shapes = (
{
closed = 1;
nodes = (
(82,-10,o),
(99,1,o),
(104,18,cs),
(314,614,l),
(292,614,l),
(493,40,ls),
(502,16,o),
(481,-1,o),
(455,-20,cs),
(425,-43,o),
(389,-70,o),
(389,-119,cs),
(389,-181,o),
(440,-215,o),
(495,-215,cs),
(527,-215,o),
(561,-204,o),
(587,-173,cs),
(594,-166,o),
(598,-156,o),
(598,-144,cs),
(598,-123,o),
(583,-108,o),
(563,-108,cs),
(550,-108,o),
(541,-113,o),
(533,-121,cs),
(518,-135,o),
(507,-140,o),
(494,-140,cs),
(475,-140,o),
(464,-127,o),
(464,-111,cs),
(464,-86,o),
(492,-70,o),
(522,-49,cs),
(552,-29,o),
(587,-5,o),
(587,29,cs),
(587,37,o),
(585,44,o),
(583,50,cs),
(350,673,ls),
(340,700,o),
(323,710,o),
(303,710,cs),
(282,710,o),
(265,700,o),
(255,673,cs),
(23,50,ls),
(13,25,o),
(29,-10,o),
(63,-10,cs)
);
},
{
closed = 1;
nodes = (
(470,202,l),
(470,285,l),
(130,285,l),
(130,202,l)
);
}
);
width = 618.25;
}
);
metricLeft = "=A";
metricRight = "=A";
unicode = 260;
},
{
glyphname = AE;
lastChange = "2023-07-07 13:47:12 +0000";
layers = (
{
anchors = (
{
name = bottom;
pos = (414,0);
},
{
name = top;
pos = (504,700);
}
);
background = {
anchors = (
{
name = bottom;
pos = (434,0);
},
{
name = top;
pos = (434,700);
}
);
shapes = (
{
attr = {
lineCapEnd = "1";
lineCapStart = "1";
strokeHeight = 140;
strokeWidth = 140;
};
closed = 0;
nodes = (
(689,626,l),
(365,626,ls),
(359,626,o),
(357,624,o),
(353,616,cs),
(110,71,l)
);
},
{
attr = {
lineCapEnd = "1";
lineCapStart = "1";
strokeHeight = 140;
strokeWidth = 140;
};
closed = 0;
nodes = (
(696,71,l),
(444,71,ls),
(441,71,o),
(439,71,o),
(439,74,cs),
(439,610,l)
);
},
{
attr = {
lineCapEnd = "2";
lineCapStart = "2";
strokeHeight = 140;
strokeWidth = 140;
};
closed = 0;
nodes = (
(723,363,l),
(439,363,l)
);
},
{
attr = {
strokeHeight = 130;
strokeWidth = 130;
};
closed = 0;
nodes = (
(424,219,l),
(190,219,l)
);
},
{
closed = 1;
nodes = (
(416,586,l),
(415,583,o),
(359,556,o),
(365,556,c),
(689,556,ls),
(728,556,o),
(759,587,o),
(759,626,cs),
(759,665,o),
(728,696,o),
(689,696,cs),
(365,696,ls),
(324,696,o),
(301,671,o),
(290,646,cs),
(46,100,ls),
(26,55,o),
(57,1,o),
(110,1,cs),
(139,1,o),
(163,18,o),
(174,42,cs)
);
},
{
closed = 1;
nodes = (
(369,74,l),
(369,21,o),
(415,1,o),
(444,1,c),
(696,1,ls),
(735,1,o),
(766,32,o),
(766,71,cs),
(766,110,o),
(735,141,o),
(696,141,cs),
(444,141,l),
(509,74,l),
(509,610,l),
(369,610,l)
);
},
{
closed = 1;
nodes = (
(660,293,ls),
(699,293,o),
(730,324,o),
(730,363,cs),
(730,402,o),
(699,433,o),
(660,433,cs),
(502,433,l),
(502,293,l)
);
},
{
closed = 1;
nodes = (
(424,154,l),
(424,284,l),
(190,284,l),
(190,154,l)
);
}
);
};
layerId = "6242D68C-0A25-4F05-8F2A-2075F7C4A210";
shapes = (
{
closed = 1;
nodes = (
(120,-10,o),
(142,9,o),
(155,32,cs),
(224,154,l),
(369,154,l),
(369,74,ls),
(369,28,o),
(397,0,o),
(444,0,cs),
(696,0,ls),
(735,0,o),
(766,32,o),
(766,71,cs),
(766,110,o),
(735,141,o),
(696,141,cs),
(509,141,l),
(509,293,l),
(660,293,ls),
(699,293,o),
(730,324,o),
(730,363,cs),
(730,402,o),
(699,433,o),
(660,433,cs),
(509,433,l),
(509,560,l),
(689,560,ls),
(728,560,o),
(759,591,o),
(759,630,cs),
(759,669,o),
(728,700,o),
(689,700,cs),
(365,700,ls),
(324,700,o),
(302,675,o),
(290,650,cs),
(27,90,ls),
(6,45,o),
(38,-10,o),
(91,-10,cs)
);
},
{
closed = 1;
nodes = (
(364,476,ls),
(365,479,o),
(366,480,o),
(367,480,c),
(369,480,l),
(369,284,l),
(282,284,l)
);
}
);
width = 808;
},
{
anchors = (
{
name = bottom;
pos = (390,0);
},
{
name = top;
pos = (470,700);
}
);
background = {
shapes = (
{
attr = {
lineCapEnd = "1";
lineCapStart = "1";
strokeHeight = 45;
strokeWidth = 45;
};
closed = 0;
nodes = (
(686,677,l),
(348,677,ls),
(342,677,o),
(338,675,o),
(334,666,cs),
(46,18,l)
);
},
{
attr = {
lineCapEnd = "1";
lineCapStart = "1";
strokeHeight = 45;
strokeWidth = 45;
};
closed = 0;
nodes = (
(694,23,l),
(395,23,ls),
(392,23,o),
(390,25,o),
(390,28,cs),
(390,665,l)
);
},
{
attr = {
lineCapEnd = "2";
lineCapStart = "2";
strokeHeight = 45;
strokeWidth = 45;
};
closed = 0;
nodes = (
(691,365,l),
(389,365,l)
);
},
{
attr = {
strokeHeight = 45;
strokeWidth = 45;
};
closed = 0;
nodes = (
(371,241,l),
(141,241,l)
);
},
{
closed = 1;
nodes = (
(352,651,ls),
(353,654,o),
(356,655,o),
(359,655,cs),
(686,655,ls),
(698,654,o),
(709,665,o),
(709,677,cs),
(709,689,o),
(698,700,o),
(686,700,cs),
(348,700,ls),
(333,700,o),
(321,692,o),
(313,675,cs),
(25,27,ls),
(24,24,o),
(24,21,o),
(24,18,cs),
(24,6,o),
(34,-5,o),
(46,-5,cs),
(55,-5,o),
(63,1,o),
(67,9,cs)
);
},
{
closed = 1;
nodes = (
(368,28,ls),
(368,13,o),
(380,1,o),
(395,1,cs),
(694,1,ls),
(706,1,o),
(717,11,o),
(717,23,cs),
(717,35,o),
(706,46,o),
(694,46,cs),
(395,46,l),
(413,28,l),
(413,665,l),
(368,665,l)
);
},
{
closed = 1;
nodes = (
(671,343,ls),
(683,343,o),
(693,353,o),
(693,365,cs),
(693,377,o),
(683,388,o),
(671,388,cs),
(409,388,l),
(409,343,l)
);
},
{
closed = 1;
nodes = (
(371,219,l),
(371,264,l),
(141,264,l),
(141,219,l)
);
}
);
};
layerId = "3D52442A-254C-4C79-B742-A98FD72DF947";
shapes = (
{
closed = 1;
nodes = (
(51,-10,o),
(59,-4,o),
(63,4,cs),
(160,219,l),
(368,219,l),
(368,27,ls),
(368,10,o),
(378,0,o),
(395,0,cs),
(694,0,ls),
(706,0,o),
(717,10,o),
(717,22,cs),
(717,34,o),
(706,45,o),
(694,45,cs),
(413,45,l),
(413,343,l),
(671,343,ls),
(683,343,o),
(693,353,o),
(693,365,cs),
(693,377,o),
(683,388,o),
(671,388,cs),
(413,388,l),
(413,655,l),
(686,655,l),
(698,654,o),
(709,665,o),
(709,677,cs),
(709,689,o),
(698,700,o),
(686,700,cs),
(348,700,ls),
(333,700,o),
(321,692,o),
(313,675,cs),
(21,22,ls),
(16,10,o),
(25,-10,o),
(42,-10,cs)
);
},
{
closed = 1;
nodes = (
(352,651,ls),
(353,654,o),
(356,655,o),
(359,655,cs),
(368,655,l),
(368,264,l),
(180,264,l)
);
}
);
width = 775;
},
{
anchors = (
{
name = bottom;
pos = (409,0);
},
{
name = top;
pos = (446,700);
}
);
layerId = "09D2E10D-7E7D-41B4-9A81-DCD24BEE186F";
shapes = (
{
closed = 1;
nodes = (
(79,-10,o),
(94,1,o),
(101,16,cs),
(183,201,l),
(376,201,l),
(376,44,ls),
(376,17,o),
(393,0,o),
(421,0,cs),
(726,0,ls),
(747,0,o),
(766,18,o),
(766,40,cs),
(766,63,o),
(747,80,o),
(726,80,cs),
(460,80,l),
(460,324,l),
(686,324,ls),
(708,324,o),
(726,342,o),
(726,364,cs),
(726,386,o),
(708,405,o),
(686,405,cs),
(460,405,l),
(460,620,l),
(707,620,l),
(729,620,o),
(747,638,o),
(747,660,cs),
(747,682,o),
(729,700,o),
(707,700,cs),
(347,700,ls),
(325,700,o),
(308,685,o),
(297,659,cs),
(23,49,ls),
(13,25,o),
(29,-10,o),
(62,-10,cs)
);
},
{
closed = 1;
nodes = (
(357,599,ls),
(359,603,o),
(362,605,o),
(366,605,cs),
(376,605,l),
(376,278,l),
(217,278,l)
);
}
);
width = 813.25;
}
);
metricLeft = "=A";
metricRight = "=E";
unicode = 198;
},
{
glyphname = B;
lastChange = "2023-07-07 13:47:12 +0000";
layers = (
{
anchors = (
{
name = bottom;
pos = (283,0);
},
{
name = center;
pos = (283,350);
},
{
name = top;
pos = (283,700);
}
);
layerId = "6242D68C-0A25-4F05-8F2A-2075F7C4A210";
shapes = (
{
closed = 1;
nodes = (
(390,0,ls),
(533,0,o),
(616,93,o),
(616,198,cs),
(616,290,o),
(552,352,o),
(476,389,c),
(487,331,l),
(534,368,o),
(576,421,o),
(576,498,cs),
(576,612,o),
(482,700,o),
(349,700,cs),
(165,700,ls),
(116,700,o),
(80,664,o),
(80,615,cs),
(80,84,ls),
(80,35,o),
(116,0,o),
(165,0,cs)
);
},
{
closed = 1;
nodes = (
(236,286,l),
(384,286,ls),
(427,286,o),
(458,256,o),
(458,216,cs),
(458,170,o),
(427,140,o),
(385,140,cs),
(236,140,l)
);
},
{
closed = 1;
nodes = (
(236,560,l),
(338,560,ls),
(382,560,o),
(416,531,o),
(416,491,cs),
(416,442,o),
(384,420,o),
(342,420,cs),
(236,419,l)
);
}
);
width = 663;
},
{
anchors = (
{
name = bottom;
pos = (249,0);
},
{
name = center;
pos = (262,350);
},
{
name = top;
pos = (241,700);
}
);
layerId = "3D52442A-254C-4C79-B742-A98FD72DF947";
shapes = (
{
closed = 1;
nodes = (
(331,0,ls),
(445,0,o),
(522,77,o),
(522,193,cs),
(522,282,o),
(474,350,o),
(390,379,c),
(390,368,l),
(452,396,o),
(489,448,o),
(489,526,cs),
(489,627,o),
(414,700,o),
(311,700,cs),
(103,700,ls),
(90,700,o),
(80,690,o),
(80,677,cs),
(80,23,ls),
(80,10,o),
(90,0,o),
(103,0,cs)
);
},
{
closed = 1;
nodes = (
(126,351,l),
(297,351,ls),
(417,351,o),
(475,286,o),
(475,193,cs),
(475,103,o),
(419,45,o),
(331,45,cs),
(126,45,l)
);
},
{
closed = 1;
nodes = (
(126,655,l),
(311,655,ls),
(393,655,o),
(442,600,o),
(442,526,cs),
(442,448,o),
(398,395,o),
(315,395,cs),
(126,395,l)
);
}
);
width = 565;
},
{
anchors = (
{
name = bottom;
pos = (280,0);
},
{
name = center;
pos = (283,350);
},
{
name = top;
pos = (278,700);
}
);
layerId = "09D2E10D-7E7D-41B4-9A81-DCD24BEE186F";
shapes = (
{
closed = 1;
nodes = (
(354,0,ls),
(474,0,o),
(555,89,o),
(555,207,cs),
(555,288,o),
(504,362,o),
(424,388,c),
(427,364,l),
(483,393,o),
(522,449,o),
(522,516,cs),
(522,622,o),
(443,700,o),
(334,700,cs),
(125,700,ls),
(100,700,o),
(80,681,o),
(80,655,cs),
(80,45,ls),
(80,19,o),
(100,0,o),
(125,0,cs)
);
},
{
closed = 1;
nodes = (
(167,336,l),
(337,336,ls),
(418,336,o),
(468,284,o),
(468,208,cs),
(468,132,o),
(419,83,o),
(343,83,cs),
(167,83,l)
);
},
{
closed = 1;
nodes = (
(167,620,l),
(329,620,ls),
(393,620,o),
(435,578,o),
(435,517,cs),
(435,453,o),
(393,412,o),
(326,412,cs),
(167,412,l)
);
}
);
width = 598;
}
);
metricLeft = H;
unicode = 66;
},
{
glyphname = C;
lastChange = "2023-07-07 13:47:12 +0000";
layers = (
{
anchors = (
{
name = bottom;
pos = (335,-1);
},
{
name = top;
pos = (349,700);
}
);
background = {
shapes = (
{
attr = {
lineCapEnd = "2";
lineCapStart = "2";
strokeWidth = 2;
};
closed = 0;
nodes = (
(562,243,l),
(562,117,o),
(459,62,o),
(373,62,cs),
(220,62,o),
(145,191,o),
(145,347,cs),
(145,503,o),
(206,634,o),
(370,634,cs),
(479,634,o),
(543,565,o),
(543,491,c)
);
},
{
closed = 1;
nodes = (
(456,-15,o),
(526,16,o),
(578,69,cs),
(609,101,o),
(628,136,o),
(628,178,cs),
(628,219,o),
(595,252,o),
(554,252,cs),
(521,252,o),
(492,230,o),
(483,200,cs),
(469,153,o),
(434,125,o),
(374,125,cs),
(273,125,o),
(213,207,o),
(213,349,cs),
(213,486,o),
(273,577,o),
(373,575,cs),
(427,574,o),
(451,547,o),
(462,523,cs),
(474,498,o),
(499,481,o),
(529,481,cs),
(569,481,o),
(602,513,o),
(602,563,cs),
(602,600,o),
(583,632,o),
(549,660,cs),
(504,697,o),
(448,715,o),
(373,715,cs),
(178,715,o),
(56,562,o),
(56,352,cs),
(56,162,o),
(154,-15,o),
(368,-15,cs)
);
}
);
};
layerId = "6242D68C-0A25-4F05-8F2A-2075F7C4A210";
shapes = (
{
closed = 1;
nodes = (
(486,-15,o),
(602,71,o),
(602,170,cs),
(602,223,o),
(569,252,o),
(529,252,cs),
(495,252,o),
(466,230,o),
(457,200,cs),
(441,149,o),
(412,125,o),
(363,125,cs),
(273,125,o),
(213,207,o),
(213,347,cs),
(213,486,o),
(272,576,o),
(368,576,cs),
(420,576,o),
(437,550,o),
(450,532,cs),
(464,513,o),
(483,490,o),
(521,490,cs),
(565,490,o),
(589,522,o),
(589,562,cs),
(589,655,o),
(462,715,o),
(354,715,cs),
(182,715,o),
(56,563,o),
(56,350,cs),
(56,161,o),
(156,-15,o),
(350,-15,cs)
);
}
);
width = 650;
},
{
anchors = (
{
name = bottom;
pos = (302,7);
},
{
name = top;
pos = (327,700);
}
);
background = {
shapes = (
{
closed = 0;
nodes = (
(331,715,l),
(155,715,o),
(50,579,o),
(50,354,cs),
(50,134,o),
(154,-15,o),
(327,-15,cs),
(500,-15,o),
(546,131,o),
(546,168,cs),
(546,184,o),
(536,194,o),
(524,194,cs),
(513,194,o),
(503,186,o),
(501,175,cs),
(489,94,o),
(432,29,o),
(329,29,cs),
(180,29,o),
(97,162,o),
(97,354,cs),
(97,553,o),
(183,671,o),
(328,671,cs),
(415,671,o),
(477,628,o),
(500,544,cs),
(503,531,o),
(513,525,o),
(523,525,cs),
(539,525,o),
(550,539,o),
(546,554,cs),
(521,659,o),
(437,714,o),
(328,714,cs)
);
}
);
};
layerId = "3D52442A-254C-4C79-B742-A98FD72DF947";
shapes = (
{
closed = 1;
nodes = (
(500,-15,o),
(546,131,o),
(546,168,cs),
(546,184,o),
(536,194,o),
(524,194,cs),
(513,194,o),
(503,186,o),
(501,175,cs),
(489,94,o),
(432,29,o),
(329,29,cs),
(180,29,o),
(97,162,o),
(97,354,cs),
(97,553,o),
(183,671,o),
(328,671,cs),
(415,671,o),
(477,628,o),
(500,544,cs),
(503,531,o),
(513,525,o),
(523,525,cs),
(539,525,o),
(550,539,o),
(546,554,cs),
(521,659,o),
(437,714,o),
(327,715,cs),
(158,716,o),
(50,579,o),
(50,354,cs),
(50,134,o),
(154,-15,o),
(327,-15,cs)
);
}
);
width = 592;
},
{
anchors = (
{
name = bottom;
pos = (316,-1);
},
{
name = top;
pos = (329,700);
}
);
layerId = "09D2E10D-7E7D-41B4-9A81-DCD24BEE186F";
shapes = (
{
closed = 1;
nodes = (
(489,-15,o),
(560,101,o),
(560,168,cs),
(560,192,o),
(541,210,o),
(518,210,cs),
(497,210,o),
(481,195,o),
(476,170,cs),
(461,104,o),
(409,64,o),
(339,64,cs),
(218,64,o),
(141,182,o),
(141,351,cs),
(141,521,o),
(217,636,o),
(340,636,cs),
(405,636,o),
(453,605,o),
(471,549,cs),
(480,526,o),
(492,512,o),
(513,512,cs),
(540,512,o),
(555,531,o),
(554,558,cs),
(548,641,o),
(452,715,o),
(334,715,cs),
(168,715,o),
(53,566,o),
(53,352,cs),
(53,142,o),
(161,-15,o),
(338,-15,cs)
);
}
);
width = 607.75;
}
);
metricLeft = O;
unicode = 67;
},
{
glyphname = D;
lastChange = "2023-07-07 13:47:12 +0000";
layers = (
{
anchors = (
{
name = bottom;
pos = (296,0);
},
{
name = center;
pos = (315,350);
},
{
name = top;
pos = (315,700);
}
);
layerId = "6242D68C-0A25-4F05-8F2A-2075F7C4A210";
shapes = (
{
closed = 1;
nodes = (
(351,0,ls),
(533,0,o),
(650,149,o),
(650,352,cs),
(650,560,o),
(533,700,o),
(370,700,cs),
(158,700,ls),
(113,700,o),
(80,667,o),
(80,622,cs),
(80,78,ls),
(80,33,o),
(113,0,o),
(158,0,cs)
);
},
{
closed = 1;
nodes = (
(236,560,l),
(362,560,ls),
(441,560,o),
(493,484,o),
(493,352,cs),
(493,220,o),
(441,140,o),
(351,140,cs),
(236,140,l)
);
}
);
width = 688;
},
{
anchors = (
{
name = bottom;
pos = (256,0);
},
{
name = center;
pos = (274,362);
},
{
name = top;
pos = (256,700);
}
);
layerId = "3D52442A-254C-4C79-B742-A98FD72DF947";
shapes = (
{
closed = 1;
nodes = (
(270,0,ls),
(441,0,o),
(547,129,o),
(547,341,cs),
(547,553,o),
(437,700,o),
(270,700,cs),
(103,700,ls),
(90,700,o),
(80,690,o),
(80,677,cs),
(80,23,ls),
(80,10,o),
(90,0,o),
(103,0,cs)
);
},
{
closed = 1;
nodes = (
(126,655,l),
(270,655,ls),
(410,655,o),
(500,526,o),
(500,342,cs),
(500,175,o),
(430,46,o),
(270,46,cs),
(126,46,l)
);
}
);
width = 596;
},
{
anchors = (
{
name = bottom;
pos = (280,0);
},
{
name = center;
pos = (299,353);
},
{
name = top;
pos = (283,700);
}
);
layerId = "09D2E10D-7E7D-41B4-9A81-DCD24BEE186F";
shapes = (
{
closed = 1;
nodes = (
(291,0,ls),
(473,0,o),
(581,130,o),
(581,345,cs),
(581,547,o),
(480,700,o),
(304,700,cs),
(123,700,ls),
(98,700,o),
(80,681,o),
(80,657,cs),
(80,43,ls),
(80,19,o),
(98,0,o),
(123,0,cs)
);
},
{
closed = 1;
nodes = (
(167,618,l),
(302,618,ls),
(426,618,o),
(493,506,o),
(493,344,cs),
(493,180,o),
(428,83,o),
(289,83,cs),
(167,83,l)
);
}
);
width = 626.75;
}
);
metricLeft = H;
unicode = 68;
},
{
glyphname = E;
lastChange = "2023-07-07 13:47:12 +0000";
layers = (
{
anchors = (
{
name = bottom;
pos = (320,0);
},
{
name = ogonek;
pos = (398,0);
},
{
name = top;
pos = (306,700);
},
{
name = topleft;
pos = (26,700);
}
);
layerId = "6242D68C-0A25-4F05-8F2A-2075F7C4A210";
shapes = (
{
closed = 1;
nodes = (
(236,0,l),
(236,700,l),
(158,700,ls),
(113,700,o),
(80,667,o),
(80,622,cs),
(80,77,ls),
(80,31,o),
(113,0,o),
(158,0,cs)
);
},
{
closed = 1;
nodes = (
(474,560,ls),
(515,560,o),
(544,589,o),
(544,630,cs),
(544,671,o),
(515,700,o),
(474,700,cs),
(183,700,l),
(183,560,l)
);
},
{
closed = 1;
nodes = (
(435,285,ls),
(476,285,o),
(505,314,o),
(505,355,cs),
(505,396,o),
(476,425,o),
(435,425,cs),
(188,425,l),
(188,285,l)
);
},
{
closed = 1;
nodes = (
(487,0,ls),
(528,0,o),
(557,30,o),
(557,72,cs),
(557,114,o),
(528,144,o),
(487,144,cs),
(195,144,l),
(195,0,l)
);
}
);
width = 599;
},
{
anchors = (
{
name = bottom;
pos = (273,0);
},
{
name = ogonek;
pos = (427,0);
},
{
name = top;
pos = (273,700);
},
{
name = topleft;
pos = (18,700);
}
);
background = {
shapes = (
{
closed = 1;
nodes = (
(420,344,ls),
(433,344,o),
(443,354,o),
(443,367,cs),
(443,380,o),
(433,390,o),
(420,390,cs),
(105,390,l),
(105,344,l)
);
}
);
};
layerId = "3D52442A-254C-4C79-B742-A98FD72DF947";
shapes = (
{
closed = 1;
nodes = (
(126,0,l),
(126,700,l),
(103,700,ls),
(90,700,o),
(80,690,o),
(80,677,cs),
(80,23,ls),
(80,10,o),
(90,0,o),
(103,0,cs)
);
},
{
closed = 1;
nodes = (
(450,655,ls),
(463,655,o),
(473,664,o),
(473,677,cs),
(473,690,o),
(463,700,o),
(450,700,cs),
(106,700,l),
(106,655,l)
);
},
{
closed = 1;
nodes = (
(419,346,ls),
(432,346,o),
(443,353,o),
(443,367,cs),
(443,381,o),
(432,390,o),
(419,390,cs),
(105,389,l),
(105,345,l)
);
},
{
closed = 1;
nodes = (
(448,0,ls),
(461,0,o),
(471,9,o),
(471,22,cs),
(471,35,o),
(461,45,o),
(448,45,cs),
(111,45,l),
(111,0,l)
);
}
);
width = 531;
},
{
anchors = (
{
name = bottom;
pos = (285,0);
},
{
name = ogonek;
pos = (418,0);
},
{
name = top;
pos = (283,700);
},
{
name = topleft;
pos = (19,700);
}
);
layerId = "09D2E10D-7E7D-41B4-9A81-DCD24BEE186F";
shapes = (
{
closed = 1;
nodes = (
(167,0,l),
(167,700,l),
(123,700,ls),
(98,700,o),
(80,682,o),
(80,657,cs),
(80,43,ls),
(80,18,o),
(98,0,o),
(123,0,cs)
);
},
{
closed = 1;
nodes = (
(454,620,ls),
(477,620,o),
(494,636,o),
(494,660,cs),
(494,683,o),
(477,700,o),
(454,700,cs),
(140,700,l),
(140,620,l)
);
},
{
closed = 1;
nodes = (
(422,321,ls),
(446,321,o),
(463,337,o),
(463,362,cs),
(463,386,o),
(446,403,o),
(422,403,cs),
(130,403,l),
(130,321,l)
);
},
{
closed = 1;
nodes = (
(462,0,ls),
(485,0,o),
(502,17,o),
(502,40,cs),
(502,64,o),
(485,80,o),
(462,80,cs),
(148,80,l),
(148,0,l)
);
}
);
width = 549.75;
}
);
metricLeft = "=H";
unicode = 69;
},
{
glyphname = Eogonek;
lastChange = "2023-07-07 13:47:12 +0000";
layers = (
{
anchors = (
{
name = top;
pos = (297,700);
}
);
layerId = "6242D68C-0A25-4F05-8F2A-2075F7C4A210";
shapes = (
{
ref = E;
},
{
closed = 1;
nodes = (
(482,-215,o),
(547,-178,o),
(547,-119,cs),
(547,-77,o),
(514,-54,o),
(480,-54,cs),
(459,-54,o),
(445,-63,o),
(434,-72,cs),
(420,-82,o),
(405,-91,o),
(395,-91,cs),
(387,-91,o),
(381,-86,o),
(381,-79,cs),
(381,-62,o),
(420,-48,o),
(459,-30,cs),
(508,-8,o),
(557,20,o),
(557,68,c),
(468,68,l),
(387,48,o),
(270,-26,o),
(270,-112,cs),
(270,-175,o),
(334,-215,o),
(409,-215,cs)
);
}
);
width = 599;
},
{
anchors = (
{
name = top;
pos = (266,700);
}
);
background = {
shapes = (
{
closed = 1;
nodes = (
(420,-215,o),
(447,-200,o),
(466,-175,cs),
(470,-169,o),
(474,-164,o),
(474,-155,cs),
(474,-143,o),
(466,-136,o),
(456,-136,cs),
(446,-136,o),
(441,-142,o),
(436,-147,cs),
(417,-166,o),
(404,-174,o),
(385,-174,cs),
(354,-174,o),
(337,-155,o),
(337,-130,cs),
(337,-91,o),
(377,-62,o),
(414,-36,cs),
(442,-16,o),
(469,3,o),
(471,23,c),
(423,31,l),
(397,-17,o),
(293,-39,o),
(293,-131,cs),
(293,-184,o),
(333,-215,o),
(383,-215,cs)
);
}
);
};
layerId = "3D52442A-254C-4C79-B742-A98FD72DF947";
shapes = (
{
ref = E;
},
{
closed = 1;
nodes = (
(427,-215,o),
(474,-184,o),
(474,-155,cs),
(474,-143,o),
(466,-136,o),
(456,-136,cs),
(446,-136,o),
(441,-142,o),
(434,-149,cs),
(417,-166,o),
(404,-174,o),
(384,-174,cs),
(354,-174,o),
(337,-155,o),
(337,-124,cs),
(337,-89,o),
(378,-60,o),
(414,-35,cs),
(444,-14,o),
(471,3,o),
(471,22,c),
(427,22,l),
(373,-12,o),
(293,-60,o),
(293,-133,cs),
(293,-184,o),
(333,-215,o),
(380,-215,cs)
);
}
);
width = 532;
},
{
anchors = (
{
name = top;
pos = (281,700);
}
);
layerId = "09D2E10D-7E7D-41B4-9A81-DCD24BEE186F";
shapes = (
{
alignment = -1;
ref = E;
},
{
closed = 1;
nodes = (
(450,-216,o),
(508,-184,o),
(508,-144,cs),
(508,-123,o),
(491,-107,o),
(470,-107,cs),
(458,-107,o),
(449,-113,o),
(440,-122,cs),
(426,-134,o),
(415,-139,o),
(402,-139,cs),
(383,-139,o),
(372,-127,o),
(372,-107,cs),
(372,-74,o),
(407,-52,o),
(440,-30,cs),
(470,-10,o),
(500,9,o),
(501,36,c),
(433,34,l),
(399,17,o),
(298,-30,o),
(298,-121,cs),
(298,-183,o),
(347,-214,o),
(397,-215,cs)
);
}
);
width = 555.25;
}
);
metricLeft = "=E";
metricRight = "=E";
unicode = 280;
},
{
glyphname = Schwa;
lastChange = "2023-07-07 13:47:12 +0000";
layers = (
{
layerId = "6242D68C-0A25-4F05-8F2A-2075F7C4A210";
shapes = (
{
closed = 1;
nodes = (
(580.186,-16,o),
(687,144.838,o),
(687,356,cs),
(687,393.466,o),
(666.224,709,o),
(370,709,cs),
(255.344,709,o),
(169,658,o),
(135.476,620.189,cs),
(83,561,o),
(114,488,o),
(184,488,cs),
(202.505,488,o),
(219.445,494.702,o),
(232.524,505.811,cs),
(262.317,531.091,o),
(304,569,o),
(370,569,cs),
(526,569,o),
(537,388.534,o),
(537,356,cs),
(537,203.162,o),
(492,124,o),
(381,124,cs),
(238,124,o),
(215,241,o),
(215,287,c),
(665,287,l),
(609,417,l),
(152,417,ls),
(99.6,417,o),
(56,376.2,o),
(56,324,cs),
(56,190.353,o),
(126.936,-16,o),
(381,-16,cs)
);
}
);
width = 743;
},
{
layerId = "3D52442A-254C-4C79-B742-A98FD72DF947";
shapes = (
{
closed = 1;
nodes = (
(534,-13,o),
(630,145,o),
(630,360,cs),
(630,401,o),
(610,710,o),
(338,710,cs),
(207,710,o),
(120,627,o),
(85,545,cs),
(80,532,o),
(88,514,o),
(106,514,cs),
(115,514,o),
(123,519,o),
(127,527,cs),
(157,599,o),
(227,665,o),
(338,665,cs),
(568,665,o),
(585,399,o),
(585,360,cs),
(585,160,o),
(506,32,o),
(350,32,cs),
(149,32,o),
(95,193,o),
(95,320,c),
(604,320,l),
(604,365,l),
(85,365,ls),
(60,365,o),
(50,345,o),
(50,321,cs),
(50,183,o),
(115,-13,o),
(350,-13,cs)
);
}
);
width = 680;
},
{
layerId = "09D2E10D-7E7D-41B4-9A81-DCD24BEE186F";
shapes = (
{
closed = 1;
nodes = (
(545,-14,o),
(642,146,o),
(642,359,cs),
(642,398,o),
(623,710,o),
(346,710,cs),
(217,710,o),
(130,632,o),
(96,557,cs),
(79,528,o),
(97,494,o),
(131,494,cs),
(146,494,o),
(159,502,o),
(166,514,cs),
(194,574,o),
(251,628,o),
(346,628,cs),
(543,628,o),
(557,395,o),
(557,359,cs),
(557,176,o),
(493,68,o),
(357,68,cs),
(182,68,o),
(139,217,o),
(139,304,c),
(607,304,l),
(597,385,l),
(114,385,ls),
(79,385,o),
(53,357,o),
(53,323,cs),
(53,187,o),
(119,-14,o),
(357,-14,cs)
);
}
);
width = 695;
}
);
metricLeft = "=O";
metricRight = "=O";
unicode = 399;
},
{
glyphname = F;
lastChange = "2023-07-07 13:47:12 +0000";
layers = (
{
layerId = "6242D68C-0A25-4F05-8F2A-2075F7C4A210";
shapes = (
{
closed = 1;
nodes = (
(203,-10,o),
(236,23,o),
(236,68,cs),
(236,700,l),
(158,700,ls,{
name = "💚";
}),
(115,700,o),
(80,665,o),
(80,622,cs),
(80,68,ls),
(80,23,o),
(113,-10,o),
(158,-10,cs)
);
},
{
closed = 1;
nodes = (
(453,560,ls),
(494,560,o),
(523,589,o),
(523,630,cs),
(523,671,o),
(494,700,o),
(453,700,cs),
(183,700,l),
(183,560,l)
);
},
{
closed = 1;
nodes = (
(435,276,ls),
(476,276,o),
(505,305,o),
(505,346,cs),
(505,387,o),
(476,416,o),
(435,416,cs),
(188,416,l),
(188,276,l)
);
}
);
width = 558;
},
{
background = {
shapes = (
{
closed = 1;
nodes = (
(400,344,ls),
(413,344,o),
(423,354,o),
(423,367,cs),
(423,380,o),
(413,390,o),
(400,390,cs),
(105,390,l),
(105,344,l)
);
}
);
};
layerId = "3D52442A-254C-4C79-B742-A98FD72DF947";
shapes = (
{
closed = 1;
nodes = (
(116,-10,o),
(126,0,o),
(126,13,cs),
(126,700,l),
(103,700,ls,{
name = "💚";
}),
(90,700,o),
(80,690,o),
(80,677,cs),
(80,13,ls),
(80,0,o),
(90,-10,o),
(103,-10,cs)
);
},
{
closed = 1;
nodes = (
(420,654,l),
(433,654,o),
(443,664,o),
(443,677,c),
(443,690,o),
(433,700,o),
(420,700,c),
(113,700,l),
(113,654,l)
);
},
{
closed = 1;
nodes = (
(399,339,ls),
(412,339,o),
(423,346,o),
(423,360,cs),
(423,374,o),
(412,383,o),
(399,383,cs),
(85,383,l),
(85,339,l)
);
}
);
width = 478;
},
{
layerId = "09D2E10D-7E7D-41B4-9A81-DCD24BEE186F";
shapes = (
{
closed = 1;
nodes = (
(148,-10,o),
(167,8,o),
(167,33,cs),
(167,700,l),
(123,700,ls,{
name = "💚";
}),
(98,700,o),
(80,682,o),
(80,657,cs),
(80,33,ls),
(80,8,o),
(98,-10,o),
(123,-10,cs)
);
},
{
closed = 1;
nodes = (
(432,620,l),
(456,620,o),
(472,636,o),
(472,660,c),
(472,683,o),
(456,700,o),
(432,700,c),
(140,700,l),
(140,620,l)
);
},
{
closed = 1;
nodes = (
(414,312,ls),
(438,312,o),
(455,328,o),
(455,353,cs),
(455,376,o),
(438,394,o),
(414,394,cs),
(122,394,l),
(122,312,l)
);
}
);
width = 507.25;
}
);
metricLeft = H;
unicode = 70;
},
{
glyphname = G;
lastChange = "2023-07-07 13:47:12 +0000";
layers = (
{
anchors = (
{
name = bottom;
pos = (351,0);
},
{
name = top;
pos = (371,700);
}
);
background = {
shapes = (
{
closed = 1;
nodes = (
(500,-15,o),
(581,32,o),
(632,101,cs),
(643,115,o),
(646,129,o),
(646,151,cs),
(646,324,ls),
(646,369,o),
(622,394,o),
(577,395,cs),
(480,397,ls),
(436,398,o),
(392,368,o),
(392,325,cs),
(392,286,o),
(429,253,o),
(475,253,cs),
(487,253,l),
(487,163,l),
(463,141,o),
(430,126,o),
(388,126,cs),
(286,126,o),
(213,215,o),
(213,355,cs),
(213,506,o),
(284,576,o),
(383,576,cs),
(440,576,o),
(457,553,o),
(473,531,cs),
(487,510,o),
(509,490,o),
(543,490,cs),
(584,490,o),
(611,519,o),
(611,560,cs),
(611,602,o),
(583,642,o),
(538,671,cs),
(495,698,o),
(438,715,o),
(375,715,cs),
(196,715,o),
(56,579,o),
(56,360,cs),
(56,130,o),
(193,-15,o),
(387,-15,cs)
);
}
);
};
layerId = "6242D68C-0A25-4F05-8F2A-2075F7C4A210";
shapes = (
{
closed = 1;
nodes = (
(500,-15,o),
(581,32,o),
(632,101,cs),
(643,115,o),
(646,129,o),
(646,151,cs),
(646,324,ls),
(646,369,o),
(622,394,o),
(577,395,cs),
(457,397,ls),
(413,398,o),
(369,368,o),
(369,325,cs),
(369,282,o),
(413,253,o),
(457,253,c),
(487,253,l),
(487,163,l),
(463,141,o),
(430,126,o),
(388,126,cs),
(286,126,o),
(213,215,o),
(213,355,cs),
(213,506,o),
(284,576,o),
(383,576,cs),
(440,576,o),
(457,553,o),
(473,531,cs),
(487,510,o),
(509,490,o),
(543,490,cs),
(584,490,o),
(611,519,o),
(611,560,cs),
(611,659,o),
(478,715,o),
(371,715,cs),
(196,715,o),
(56,579,o),
(56,360,cs),
(56,130,o),
(193,-15,o),
(387,-15,cs)
);
}
);
width = 701;
},
{
anchors = (
{
name = bottom;
pos = (296,0);
},
{
name = top;
pos = (333,700);
}
);
background = {
anchors = (
{
name = bottom;
pos = (319,0);
},
{
name = top;
pos = (320,700);
}
);
shapes = (
{
closed = 0;
nodes = (
(328,671,ls),
(415,671,o),
(477,628,o),
(500,544,cs),
(503,531,o),
(513,525,o),
(523,525,cs),
(539,525,o),
(550,539,o),
(546,554,cs),
(521,659,o),
(437,714,o),
(327,715,cs)
);
}
);
};
layerId = "3D52442A-254C-4C79-B742-A98FD72DF947";
shapes = (
{
closed = 1;
nodes = (
(415,-15,o),
(504,25,o),
(549,92,cs),
(551,96,o),
(552,100,o),
(552,107,cs),
(552,330,ls),
(552,342,o),
(542,352,o),
(529,352,cs),
(385,352,ls),
(372,352,o),
(362,342,o),
(362,330,cs),
(362,319,o),
(372,308,o),
(384,308,cs),
(506,308,l),
(506,111,l),
(470,59,o),
(400,29,o),
(329,29,cs),
(190,29,o),
(97,162,o),
(97,344,cs),
(97,533,o),
(196,671,o),
(328,671,cs),
(409,671,o),
(458,644,o),
(488,560,cs),
(493,547,o),
(501,541,o),
(511,541,cs),
(527,541,o),
(538,555,o),
(534,570,cs),
(509,675,o),
(426,714,o),
(337,714,cs),
(164,714,o),
(50,563,o),
(50,341,cs),
(50,134,o),
(164,-15,o),
(329,-15,cs)
);
}
);
width = 607;
},
{
anchors = (
{
name = bottom;
pos = (313,0);
},
{
name = top;
pos = (346,700);
}
);
layerId = "09D2E10D-7E7D-41B4-9A81-DCD24BEE186F";
shapes = (
{
closed = 1;
nodes = (
(441,-15,o),
(517,21,o),
(566,91,cs),
(571,98,o),
(573,105,o),
(573,118,cs),
(573,325,ls),
(573,350,o),
(562,366,o),
(531,366,cs),
(387,366,ls),
(363,366,o),
(343,349,o),
(343,326,cs),
(343,302,o),
(362,285,o),
(386,285,cs),
(487,285,l),
(487,126,l),
(462,89,o),
(412,65,o),
(351,65,cs),
(219,65,o),
(141,177,o),
(141,345,cs),
(141,513,o),
(219,636,o),
(340,636,cs),
(403,636,o),
(440,616,o),
(460,561,cs),
(469,537,o),
(481,523,o),
(502,523,cs),
(529,523,o),
(544,542,o),
(543,569,cs),
(537,651,o),
(455,715,o),
(338,715,cs),
(165,715,o),
(53,547,o),
(53,343,cs),
(53,122,o),
(172,-15,o),
(350,-15,cs)
);
}
);
width = 628;
}
);
metricLeft = "=O";
unicode = 71;
},
{
glyphname = H;
lastChange = "2023-07-07 13:47:12 +0000";
layers = (
{
anchors = (
{
name = bottom;
pos = (345,0);
},
{
name = center;
pos = (345,350);
},
{
name = top;
pos = (345,700);
},
{
name = topleft;
pos = (-12,700);
}
);
background = {
shapes = (
{
attr = {
strokeWidth = 2;
};
closed = 0;
nodes = (
(566,700,l),
(566,0,l)
);
},
{
attr = {
strokeWidth = 2;
};
closed = 0;
nodes = (
(549,358,l),
(126,357,l)
);
},
{
attr = {
strokeWidth = 2;
};
closed = 0;
nodes = (
(127,700,l),
(127,0,l)
);
}
);
};
layerId = "6242D68C-0A25-4F05-8F2A-2075F7C4A210";
shapes = (
{
closed = 1;
nodes = (
(203,-10,o),
(236,23,o),
(236,68,cs),
(236,632,ls),
(236,677,o),
(203,710,o),
(158,710,cs),
(113,710,o),
(80,677,o),
(80,632,cs),
(80,68,ls),
(80,23,o),
(113,-10,o),
(158,-10,cs)
);
},
{
closed = 1;
nodes = (
(611,-10,o),
(644,23,o),
(644,68,cs),
(644,632,ls),
(644,677,o),
(611,710,o),
(566,710,cs),
(521,710,o),
(488,677,o),
(488,632,cs),
(488,68,ls),
(488,23,o),
(521,-10,o),
(566,-10,cs)
);
},
{
closed = 1;
nodes = (
(573,286,l),
(573,426,l),
(188,426,l),
(188,286,l)
);
}
);
width = 724;
},
{
anchors = (
{
name = bottom;
pos = (311,0);
},
{
name = center;
pos = (311,350);
},
{
name = top;
pos = (311,700);
},
{
name = topleft;
pos = (18,700);
}
);
background = {
shapes = (
{
attr = {
strokeWidth = 2;
};
closed = 0;
nodes = (
(104,665,l),
(104,35,l)
);
},
{
attr = {
strokeWidth = 2;
};
closed = 0;
nodes = (
(524,665,l),
(524,35,l)
);
},
{
attr = {
strokeWidth = 2;
};
closed = 0;
nodes = (
(104,366,l),
(524,366,l)
);
}
);
};
layerId = "3D52442A-254C-4C79-B742-A98FD72DF947";
shapes = (
{
closed = 1;
nodes = (
(116,-10,o),
(126,0,o),
(126,13,cs),
(126,687,ls),
(126,700,o),
(116,710,o),
(103,710,cs),
(90,710,o),
(80,700,o),
(80,687,cs),
(80,13,ls),
(80,0,o),
(90,-10,o),
(103,-10,cs)
);
},
{
closed = 1;
nodes = (
(530,-10,o),
(540,0,o),
(540,13,cs),
(540,687,ls),
(540,700,o),
(530,710,o),
(517,710,cs),
(504,710,o),
(494,700,o),
(494,687,cs),
(494,13,ls),
(494,0,o),
(504,-10,o),
(517,-10,cs)
);
},
{
closed = 1;
nodes = (
(507,339,l),
(507,383,l),
(117,383,l),
(117,339,l)
);
}
);
width = 620;
},
{
anchors = (
{
name = bottom;
pos = (330,0);
},
{
name = center;
pos = (330,350);
},
{
name = top;
pos = (330,700);
},
{
name = topleft;
pos = (11,700);
}
);
layerId = "09D2E10D-7E7D-41B4-9A81-DCD24BEE186F";
shapes = (
{
closed = 1;
nodes = (
(148,-10,o),
(167,8,o),
(167,33,cs),
(167,667,ls),
(167,692,o),
(148,710,o),
(123,710,cs),
(98,710,o),
(80,692,o),
(80,667,cs),
(80,33,ls),
(80,8,o),
(98,-10,o),
(123,-10,cs)
);
},
{
closed = 1;
nodes = (
(569,-10,o),
(587,8,o),
(587,33,cs),
(587,667,ls),
(587,692,o),
(569,710,o),
(544,710,cs),
(519,710,o),
(501,692,o),
(501,667,cs),
(501,33,ls),
(501,8,o),
(519,-10,o),
(544,-10,cs)
);
},
{
closed = 1;
nodes = (
(546,320,l),
(546,402,l),
(133,402,l),
(133,320,l)
);
}
);
width = 667.25;
}
);
unicode = 72;
},
{
glyphname = I;
lastChange = "2023-07-07 13:47:12 +0000";
layers = (
{
anchors = (
{
name = bottom;
pos = (162,0);
},
{
name = ogonek;
pos = (97,0);
},
{
name = top;
pos = (159,700);
},
{
name = topleft;
pos = (20,700);
}
);
layerId = "6242D68C-0A25-4F05-8F2A-2075F7C4A210";
shapes = (
{
closed = 1;
nodes = (
(203,-10,o),
(236,23,o),
(236,68,cs),
(236,632,ls),
(236,677,o),
(203,710,o),
(158,710,cs),
(113,710,o),
(80,677,o),
(80,632,cs),
(80,68,ls),
(80,23,o),
(113,-10,o),
(158,-10,cs)
);
}
);
width = 316;
},
{
anchors = (
{
name = bottom;
pos = (103,0);
},
{
name = ogonek;
pos = (62,0);
},
{
name = top;
pos = (102,700);
},
{
name = topleft;
pos = (25,700);
}
);
layerId = "3D52442A-254C-4C79-B742-A98FD72DF947";
shapes = (
{
closed = 1;
nodes = (
(116,-10,o),
(126,0,o),
(126,13,cs),
(126,687,ls),
(126,700,o),
(116,710,o),
(103,710,cs),
(90,710,o),
(80,700,o),
(80,687,cs),
(80,13,ls),
(80,0,o),
(90,-10,o),
(103,-10,cs)
);
}
);
width = 206;
},
{
anchors = (
{
name = bottom;
pos = (123,0);
},
{
name = ogonek;
pos = (79,0);
},
{
name = top;
pos = (123,700);
},
{
name = topleft;
pos = (21,700);
}
);
layerId = "09D2E10D-7E7D-41B4-9A81-DCD24BEE186F";
shapes = (
{
closed = 1;
nodes = (
(148,-10,o),
(167,8,o),
(167,33,cs),
(167,667,ls),
(167,692,o),
(148,710,o),
(123,710,cs),
(98,710,o),
(80,692,o),
(80,667,cs),
(80,33,ls),
(80,8,o),
(98,-10,o),
(123,-10,cs)
);
}
);
width = 246.5;
}
);
metricLeft = "=H";
metricRight = "=H";
unicode = 73;
},
{
glyphname = IJ.001;
lastChange = "2023-07-07 13:47:12 +0000";
layers = (
{
layerId = "6242D68C-0A25-4F05-8F2A-2075F7C4A210";
shapes = (
{
closed = 1;
nodes = (
(437,-15,o),
(520,74,o),
(520,187,cs),
(520,632,ls),
(520,675,o),
(485,710,o),
(442,710,cs),
(399,710,o),
(364,675,o),
(364,632,cs),
(364,229,ls),
(364,169,o),
(355,141,o),
(301,141,cs),
(284,141,o),
(260,144,o),
(244,163,cs),
(227,183,o),
(212,212,o),
(167,212,cs),
(126,212,o),
(89,187,o),
(89,139,cs),
(89,54,o),
(186,-15,o),
(298,-15,cs)
);
},
{
closed = 1;
nodes = (
(203,290,o),
(236,323,o),
(236,368,cs),
(236,632,ls),
(236,677,o),
(203,710,o),
(158,710,cs),
(113,710,o),
(80,677,o),
(80,632,cs),
(80,368,ls),
(80,323,o),
(113,290,o),
(158,290,cs)
);
}
);
width = 600;
},
{
layerId = "3D52442A-254C-4C79-B742-A98FD72DF947";
shapes = (
{
closed = 1;
nodes = (
(376,-15,o),
(445,58,o),
(445,214,cs),
(445,687,ls),
(445,700,o),
(435,710,o),
(422,710,cs),
(409,710,o),
(399,700,o),
(399,687,cs),
(399,214,ls),
(399,85,o),
(350,29,o),
(265,29,cs),
(180,29,o),
(127,83,o),
(127,194,cs),
(127,207,o),
(117,217,o),
(104,217,cs),
(91,217,o),
(81,207,o),
(81,194,cs),
(81,51,o),
(150,-15,o),
(265,-15,cs)
);
},
{
closed = 1;
nodes = (
(116,290,o),
(126,300,o),
(126,313,cs),
(126,687,ls),
(126,700,o),
(116,710,o),
(103,710,cs),
(90,710,o),
(80,700,o),
(80,687,cs),
(80,313,ls),
(80,300,o),
(90,290,o),
(103,290,cs)
);
}
);
width = 525;
},
{
layerId = "09D2E10D-7E7D-41B4-9A81-DCD24BEE186F";
shapes = (
{
closed = 1;
nodes = (
(383,-24,o),
(455,54,o),
(455,188,cs),
(455,667,ls),
(455,691,o),
(435,710,o),
(411,710,cs),
(387,710,o),
(368,691,o),
(368,667,cs),
(368,195,ls),
(368,107,o),
(332,60,o),
(263,60,cs),
(208,60,o),
(174,91,o),
(171,139,cs),
(167,159,o),
(152,177,o),
(127,177,cs),
(101,177,o),
(81,158,o),
(81,131,cs),
(81,35,o),
(165,-24,o),
(262,-24,cs)
);
},
{
closed = 1;
nodes = (
(148,257,o),
(167,276,o),
(167,300,cs),
(167,667,ls),
(167,691,o),
(148,710,o),
(123,710,cs),
(99,710,o),
(80,691,o),
(80,667,cs),
(80,300,ls),
(80,276,o),
(99,257,o),
(123,257,cs)
);
}
);
width = 534.75;
}
);
metricLeft = "=I";
metricRight = "=J";
},
{
glyphname = Iogonek;
lastChange = "2023-07-07 13:47:12 +0000";
layers = (
{
layerId = "6242D68C-0A25-4F05-8F2A-2075F7C4A210";
shapes = (
{
alignment = -1;
pos = (19,0);
ref = I;
},
{
closed = 1;
nodes = (
(228,-214,o),
(307,-177,o),
(307,-116,cs),
(307,-76,o),
(274,-53,o),
(240,-53,cs),
(219,-53,o),
(205,-62,o),
(193,-71,cs),
(181,-80,o),
(171,-86,o),
(163,-86,cs),
(154,-86,o),
(147,-79,o),
(147,-71,cs),
(147,-59,o),
(160,-40,o),
(182,-29,cs),
(199,-20,o),
(255,8,o),
(255,71,cs),
(255,129,l),
(99,129,l),
(99,87,ls),
(99,8,o),
(20,4,o),
(20,-88,cs),
(20,-174,o),
(88,-214,o),
(159,-214,cs)
);
}
);
width = 327;
},
{
background = {
shapes = (
{
closed = 1;
nodes = (
(117,-215,o),
(139,-200,o),
(158,-175,cs),
(162,-169,o),
(166,-164,o),
(166,-154,cs),
(166,-143,o),
(158,-136,o),
(148,-136,cs),
(139,-136,o),
(134,-142,o),
(129,-147,c),
(112,-167,o),
(101,-170,o),
(84,-170,cs),
(61,-170,o),
(45,-155,o),
(45,-132,cs),
(45,-80,o),
(117,-54,o),
(117,-6,cs),
(117,77,l),
(71,77,l),
(71,2,ls),
(71,-39,o),
(0,-61,o),
(0,-137,cs),
(0,-184,o),
(40,-215,o),
(83,-215,cs)
);
}
);
};
layerId = "3D52442A-254C-4C79-B742-A98FD72DF947";
shapes = (
{
alignment = -1;
pos = (-9,0);
ref = I;
},
{
closed = 1;
nodes = (
(126,-215,o),
(153,-200,o),
(173,-173,cs),
(176,-169,o),
(180,-164,o),
(180,-155,cs),
(180,-143,o),
(172,-136,o),
(162,-136,cs),
(152,-136,o),
(147,-142,o),
(140,-149,cs),
(123,-166,o),
(110,-174,o),
(90,-174,cs),
(60,-174,o),
(44,-155,o),
(44,-130,cs),
(44,-78,o),
(117,-47,o),
(117,5,cs),
(117,88,l),
(71,88,l),
(71,13,ls),
(71,-28,o),
(-1,-62,o),
(-1,-132,cs),
(-1,-184,o),
(39,-215,o),
(90,-215,cs)
);
}
);
width = 166;
},
{
layerId = "09D2E10D-7E7D-41B4-9A81-DCD24BEE186F";
shapes = (
{
alignment = -1;
pos = (2,0);
ref = I;
},
{
closed = 1;
nodes = (
(159,-215,o),
(211,-183,o),
(216,-146,cs),
(217,-128,o),
(203,-114,o),
(186,-111,cs),
(176,-108,o),
(166,-111,o),
(154,-119,cs),
(145,-125,o),
(137,-134,o),
(125,-135,cs),
(110,-140,o),
(103,-133,o),
(98,-125,cs),
(89,-109,o),
(99,-91,o),
(113,-70,cs),
(130,-39,o),
(168,-11,o),
(168,30,cs),
(168,105,l),
(82,105,l),
(82,32,ls),
(82,-8,o),
(10,-41,o),
(10,-116,cs),
(10,-178,o),
(59,-215,o),
(111,-215,cs)
);
}
);
width = 238.9375;
}
);
unicode = 302;
},
{
glyphname = J;
lastChange = "2023-07-07 13:47:12 +0000";
layers = (
{
anchors = (
{
name = bottom;
pos = (302,0);
},
{
name = top;
pos = (381,700);
}
);
layerId = "6242D68C-0A25-4F05-8F2A-2075F7C4A210";
shapes = (
{
closed = 1;
nodes = (
(376,-15,o),
(459,74,o),
(459,227,cs),
(459,632,ls),
(459,675,o),
(424,710,o),
(381,710,cs),
(338,710,o),
(303,675,o),
(303,632,cs),
(303,219,ls),
(303,167,o),
(280,135,o),
(235,135,cs),
(200,135,o),
(170,154,o),
(170,200,cs),
(170,204,ls),
(170,247,o),
(141,282,o),
(98,282,cs),
(55,282,o),
(20,247,o),
(20,204,cs),
(20,196,ls),
(20,74,o),
(109,-15,o),
(242,-15,cs)
);
}
);
width = 539;
},
{
anchors = (
{
name = bottom;
pos = (222,0);
},
{
name = top;
pos = (361,700);
}
);
layerId = "3D52442A-254C-4C79-B742-A98FD72DF947";
shapes = (
{
closed = 1;
nodes = (
(320,-15,o),
(384,58,o),
(384,184,cs),
(384,687,ls),
(384,700,o),
(374,710,o),
(361,710,cs),
(348,710,o),
(338,700,o),
(338,687,cs),
(338,184,ls),
(338,85,o),
(293,28,o),
(209,28,cs),
(124,28,o),
(66,83,o),
(66,177,cs),
(66,194,ls),
(66,207,o),
(56,217,o),
(43,217,cs),
(30,217,o),
(20,207,o),
(20,194,cs),
(20,177,ls),
(20,61,o),
(94,-15,o),
(209,-15,cs)
);
}
);
width = 464;
},
{
anchors = (
{
name = bottom;
pos = (248,0);
},
{
name = top;
pos = (371,700);
}
);
layerId = "09D2E10D-7E7D-41B4-9A81-DCD24BEE186F";
shapes = (
{
closed = 1;
nodes = (
(357,-15,o),
(413,80,o),
(413,196,cs),
(413,667,ls),
(413,692,o),
(395,710,o),
(370,710,cs),
(345,710,o),
(327,692,o),
(327,667,cs),
(327,197,ls),
(327,121,o),
(300,64,o),
(220,64,cs),
(140,64,o),
(107,122,o),
(107,182,cs),
(107,203,ls),
(107,227,o),
(88,247,o),
(63,247,cs),
(39,247,o),
(20,227,o),
(20,203,cs),
(20,182,ls),
(20,90,o),
(80,-15,o),
(222,-15,cs)
);
}
);
width = 493.25;
}
);
metricRight = H;
unicode = 74;
},
{
glyphname = K;
lastChange = "2023-07-07 13:47:12 +0000";
layers = (
{
anchors = (
{
name = bottom;
pos = (322,0);
},
{
name = top;
pos = (322,700);
}
);
background = {
shapes = (
{
attr = {
strokeWidth = 2;
};
closed = 0;
nodes = (
(170,628,l),
(170,73,l)
);
},
{
attr = {
strokeWidth = 2;
};
closed = 0;
nodes = (
(511,615,l),
(300,401,l),
(170,268,l)
);
},
{
attr = {
strokeWidth = 2;
};
closed = 0;
nodes = (
(525,76,l),
(300,401,l)
);
}
);
};
layerId = "6242D68C-0A25-4F05-8F2A-2075F7C4A210";
shapes = (
{
closed = 1;
nodes = (
(203,-10,o),
(236,23,o),
(236,68,cs),
(236,632,ls),
(236,677,o),
(203,710,o),
(158,710,cs),
(113,710,o),
(80,677,o),
(80,632,cs),
(80,68,ls),
(80,23,o),
(113,-10,o),
(158,-10,cs)
);
},
{
closed = 1;
nodes = (
(572,568,ls),
(586,581,o),
(594,602,o),
(594,623,cs),
(594,666,o),
(559,700,o),
(516,700,cs,{
name = "❌";
}),
(492,700,o),
(471,688,o),
(456,674,cs),
(93,331,l),
(205,221,l)
);
},
{
closed = 1;
nodes = (
(588,-10,o),
(623,25,o),
(623,68,cs),
(623,84,o),
(617,100,o),
(609,112,cs),
(384,445,l),
(253,358,l),
(481,24,ls),
(495,3,o),
(518,-10,o),
(545,-10,cs)
);
}
);
width = 648;
},
{
anchors = (
{
name = bottom;
pos = (255,0);
},
{
name = top;
pos = (255,700);
}
);
background = {
shapes = (
{
attr = {
strokeWidth = 2;
};
closed = 0;
nodes = (
(63,690,l),
(63,11,l)
);
},
{
attr = {
strokeWidth = 2;
};
closed = 0;
nodes = (
(481,674,l),
(223,413,l),
(63,250,l)
);
},
{
attr = {
strokeWidth = 2;
};
closed = 0;
nodes = (
(498,14,l),
(223,413,l)
);
},
{
attr = {
strokeWidth = 2;
};
closed = 0;
nodes = (
(63,690,l),
(63,11,l)
);
},
{
attr = {
strokeWidth = 2;
};
closed = 0;
nodes = (
(481,674,l),
(223,413,l),
(63,250,l)
);
},
{
attr = {
strokeWidth = 2;
};
closed = 0;
nodes = (
(498,14,l),
(223,413,l)
);
}
);
};
layerId = "3D52442A-254C-4C79-B742-A98FD72DF947";
shapes = (
{
closed = 1;
nodes = (
(116,-10,o),
(126,0,o),
(126,13,cs),
(126,687,ls),
(126,700,o),
(116,710,o),
(103,710,cs),
(90,710,o),
(80,700,o),
(80,687,cs),
(80,13,ls),
(80,0,o),
(90,-10,o),
(103,-10,cs)
);
},
{
closed = 1;
nodes = (
(494,661,ls),
(498,665,o),
(500,671,o),
(500,677,cs),
(500,690,o),
(490,700,o),
(477,700,cs),
(471,700,o),
(466,698,o),
(462,694,cs),
(95,292,l),
(112,244,l)
);
},
{
closed = 1;
nodes = (
(521,-10,o),
(531,0,o),
(531,13,cs),
(531,17,o),
(530,21,o),
(527,26,cs),
(237,433,l),
(210,398,l),
(489,0,ls,{
name = "💚";
}),
(493,-6,o),
(501,-10,o),
(508,-10,cs)
);
}
);
width = 561;
},
{
anchors = (
{
name = bottom;
pos = (293,0);
},
{
name = top;
pos = (293,700);
}
);
layerId = "09D2E10D-7E7D-41B4-9A81-DCD24BEE186F";
shapes = (
{
closed = 1;
nodes = (
(149,-10,o),
(167,8,o),
(167,33,cs),
(167,667,ls),
(167,692,o),
(149,710,o),
(123,710,cs),
(98,710,o),
(80,692,o),
(80,667,cs),
(80,33,ls),
(80,8,o),
(98,-10,o),
(123,-10,cs)
);
},
{
closed = 1;
nodes = (
(523,626,ls),
(531,634,o),
(535,645,o),
(535,657,cs),
(535,680,o),
(516,700,o),
(492,700,cs),
(480,700,o),
(469,694,o),
(461,687,cs),
(112,321,l),
(137,224,l)
);
},
{
closed = 1;
nodes = (
(547,-10,o),
(566,10,o),
(566,34,cs),
(566,43,o),
(564,52,o),
(559,59,cs),
(302,429,l),
(244,370,l),
(488,9,ls,{
name = "💚";
}),
(495,-2,o),
(509,-10,o),
(523,-10,cs)
);
}
);
width = 596.25;
}
);
metricLeft = H;
unicode = 75;
},
{
glyphname = L;
lastChange = "2023-07-07 13:47:12 +0000";
layers = (
{
anchors = (
{
name = bottom;
pos = (310,0);
},
{
name = center;
pos = (290,350);
},
{
name = top;
pos = (148,700);
},
{
name = topright;
pos = (570,700);
}
);
background = {
shapes = (
{
closed = 1;
nodes = (
(226,0,l),
(226,632,ls),
(226,675,o),
(191,710,o),
(148,710,cs),
(105,710,o),
(70,675,o),
(70,632,cs),
(70,78,ls),
(70,35,o),
(105,0,o),
(148,0,cs,{
name = "💚";
})
);
},
{
closed = 1;
nodes = (
(467,0,ls),
(508,0,o),
(537,29,o),
(537,70,cs),
(537,111,o),
(508,140,o),
(467,140,cs),
(181,140,l),
(181,0,l)
);
}
);
};
layerId = "6242D68C-0A25-4F05-8F2A-2075F7C4A210";
shapes = (
{
closed = 1;
nodes = (
(457,0,ls),
(498,0,o),
(527,29,o),
(527,72,cs),
(527,115,o),
(498,144,o),
(457,144,cs),
(236,144,l),
(236,632,ls),
(236,675,o),
(197,710,o),
(154,710,cs),
(111,710,o),
(80,675,o),
(80,632,cs),
(80,78,ls),
(80,35,o),
(115,0,o),
(158,0,cs,{
name = "💚";
})
);
}
);
width = 557;
},
{
anchors = (
{
name = bottom;
pos = (266,0);
},
{
name = center;
pos = (284,350);
},
{
name = top;
pos = (99,700);
},
{
name = topright;
pos = (581,700);
}
);
background = {
anchors = (
{
name = bottom;
pos = (301,0);
},
{
name = center;
pos = (284,350);
},
{
name = top;
pos = (99,700);
},
{
name = topright;
pos = (581,700);
}
);
shapes = (
{
closed = 1;
nodes = (
(122,0,l),
(122,687,ls),
(122,700,o),
(112,710,o),
(99,710,cs),
(86,710,o),
(76,700,o),
(76,687,cs),
(76,23,ls),
(76,10,o),
(86,0,o),
(99,0,cs)
);
},
{
closed = 1;
nodes = (
(433,0,ls),
(446,0,o),
(456,10,o),
(456,23,cs),
(456,36,o),
(446,46,o),
(433,46,cs),
(107,46,l),
(107,0,l)
);
}
);
};
layerId = "3D52442A-254C-4C79-B742-A98FD72DF947";
shapes = (
{
closed = 1;
nodes = (
(417,0,ls),
(430,0,o),
(440,9,o),
(440,22,cs),
(440,35,o),
(430,45,o),
(417,45,cs),
(126,45,l),
(126,687,ls),
(126,700,o),
(116,710,o),
(103,710,cs),
(90,710,o),
(80,700,o),
(80,687,cs),
(80,23,ls),
(80,10,o),
(90,0,o),
(103,0,cs)
);
}
);
width = 470;
},
{
anchors = (
{
name = bottom;
pos = (276,0);
},
{
name = center;
pos = (269,350);
},
{
name = top;
pos = (115,700);
},
{
name = topright;
pos = (535,700);
}
);
layerId = "09D2E10D-7E7D-41B4-9A81-DCD24BEE186F";
shapes = (
{
closed = 1;
nodes = (
(429,0,ls),
(453,0,o),
(469,17,o),
(469,40,cs),
(469,64,o),
(453,80,o),
(429,80,cs),
(167,80,l),
(167,667,ls),
(167,691,o),
(147,710,o),
(123,710,cs),
(98,710,o),
(80,691,o),
(80,667,cs),
(80,43,ls),
(80,19,o),
(98,0,o),
(123,0,cs)
);
}
);
width = 499.25;
}
);
metricLeft = H;
unicode = 76;
},
{
glyphname = Lslash;
lastChange = "2023-07-07 13:47:12 +0000";
layers = (
{
layerId = "6242D68C-0A25-4F05-8F2A-2075F7C4A210";
shapes = (
{
closed = 1;
nodes = (
(34,277,o),
(66,246,o),
(105,246,cs),
(117,246,o),
(127,249,o),
(137,254,cs),
(452,418,ls),
(475,430,o),
(489,454,o),
(489,480,cs),
(489,518,o),
(458,549,o),
(419,549,cs),
(410,549,o),
(397,547,o),
(386,541,c),
(71,377,ls),
(48,365,o),
(34,341,o),
(34,316,cs)
);
},
{
pos = (86,0);
ref = L;
}
);
width = 643;
},
{
layerId = "3D52442A-254C-4C79-B742-A98FD72DF947";
shapes = (
{
closed = 1;
nodes = (
(40,297,o),
(50,287,o),
(61,287,cs),
(65,287,o),
(68,288,o),
(72,290,cs),
(360,437,ls),
(368,441,o),
(372,449,o),
(372,456,cs),
(372,468,o),
(362,478,o),
(350,478,cs),
(346,478,o),
(342,477,o),
(339,475,c),
(52,328,ls),
(44,324,o),
(40,316,o),
(40,309,cs)
);
},
{
pos = (57,0);
ref = L;
}
);
width = 527;
},
{
layerId = "09D2E10D-7E7D-41B4-9A81-DCD24BEE186F";
shapes = (
{
closed = 1;
nodes = (
(39,285,o),
(57,268,o),
(78,268,cs),
(85,268,o),
(91,269,o),
(97,272,cs),
(405,430,ls),
(418,437,o),
(426,450,o),
(426,464,cs),
(426,486,o),
(409,504,o),
(387,504,cs),
(380,504,o),
(374,502,o),
(368,499,c),
(60,341,ls),
(48,335,o),
(39,321,o),
(39,307,cs)
);
},
{
alignment = -1;
pos = (79,0);
ref = L;
}
);
width = 578;
}
);
metricRight = "=L";
unicode = 321;
},
{
glyphname = M;
lastChange = "2023-07-07 13:47:12 +0000";
layers = (
{
anchors = (
{
name = bottom;
pos = (448,0);
},
{
name = top;
pos = (448,700);
}
);
background = {
shapes = (
{
closed = 1;
nodes = (
(204,-10,o),
(237,23,o),
(236,68,cs),
(224,501,l),
(184,464,l),
(485,22,ls),
(498,3,o),
(523,-10,o),
(551,-10,cs),
(594,-10,o),
(629,25,o),
(629,68,cs),
(629,632,ls),
(629,677,o),
(596,710,o),
(551,710,cs),
(505,710,o),
(472,677,o),
(473,632,cs),
(485,179,l),
(511,226,l),
(229,658,ls),
(211,686,o),
(193,710,o),
(155,710,cs),
(117,710,o),
(80,682,o),
(80,623,cs),
(80,68,ls),
(80,23,o),
(113,-10,o),
(158,-10,cs)
);
}
);
};
layerId = "6242D68C-0A25-4F05-8F2A-2075F7C4A210";
shapes = (
{
closed = 1;
nodes = (
(204,-10,o),
(237,23,o),
(236,68,cs),
(224,501,l),
(179,473,l),
(349,58,ls),
(369,9,o),
(402,-10,o),
(439,-10,cs),
(476,-10,o),
(509,9,o),
(529,58,cs),
(699,473,l),
(654,501,l),
(642,68,ls),
(641,23,o),
(674,-10,o),
(720,-10,cs),
(765,-10,o),
(798,23,o),
(798,68,cs),
(794,623,ls),
(794,682,o),
(761,710,o),
(711,710,cs),
(665,710,o),
(637,687,o),
(625,658,cs),
(406,111,l),
(472,111,l),
(253,658,ls),
(241,687,o),
(213,710,o),
(167,710,cs),
(117,710,o),
(84,682,o),
(84,623,cs),
(80,68,ls),
(80,23,o),
(113,-10,o),
(158,-10,cs)
);
}
);
width = 878;
},
{
anchors = (
{
name = bottom;
pos = (394,0);
},
{
name = top;
pos = (394,700);
}
);
layerId = "3D52442A-254C-4C79-B742-A98FD72DF947";
shapes = (
{
closed = 1;
nodes = (
(116,-10,o),
(126,0,o),
(126,13,cs),
(126,603,l),
(118,602,l),
(376,5,ls),
(380,-3,o),
(388,-10,o),
(398,-10,cs),
(408,-10,o),
(417,-3,o),
(420,5,cs),
(670,603,l),
(662,604,l),
(662,13,ls),
(662,0,o),
(672,-10,o),
(685,-10,cs),
(698,-10,o),
(708,0,o),
(708,13,cs),
(708,687,ls),
(708,700,o),
(698,710,o),
(685,710,cs,{
name = "💚";
}),
(673,710,o),
(665,706,o),
(660,695,cs),
(392,47,l),
(406,47,l),
(126,695,ls),
(122,704,o),
(114,710,o),
(104,710,cs),
(90,710,o),
(80,700,o),
(80,687,cs),
(80,13,ls),
(80,0,o),
(90,-10,o),
(103,-10,cs)
);
}
);
width = 788;
},
{
anchors = (
{
name = bottom;
pos = (414,0);
},
{
name = top;
pos = (414,700);
}
);
layerId = "09D2E10D-7E7D-41B4-9A81-DCD24BEE186F";
shapes = (
{
closed = 1;
nodes = (
(149,-10,o),
(167,8,o),
(167,33,cs),
(161,585,l),
(136,559,l),
(368,34,ls),
(382,2,o),
(397,-10,o),
(418,-10,cs),
(438,-10,o),
(452,1,o),
(467,34,cs),
(692,561,l),
(665,585,l),
(661,33,ls),
(661,8,o),
(679,-10,o),
(704,-10,cs),
(730,-10,o),
(748,8,o),
(748,33,cs),
(746,665,ls),
(746,689,o),
(727,710,o),
(701,710,cs,{
name = "💚";
}),
(678,710,o),
(664,699,o),
(656,682,cs),
(403,83,l),
(435,83,l),
(170,682,ls),
(162,699,o),
(148,710,o),
(127,710,cs),
(101,710,o),
(81,690,o),
(81,663,cs),
(80,33,ls),
(80,8,o),
(98,-10,o),
(123,-10,cs)
);
}
);
width = 827.75;
}
);
metricLeft = H;
metricRight = H;
unicode = 77;
},
{
glyphname = N;
lastChange = "2023-07-07 13:47:12 +0000";
layers = (
{
anchors = (
{
name = bottom;
pos = (372,0);
},
{
name = top;
pos = (372,700);
}
);
layerId = "6242D68C-0A25-4F05-8F2A-2075F7C4A210";
shapes = (
{
closed = 1;
nodes = (
(204,-10,o),
(237,23,o),
(236,68,cs),
(224,501,l),
(184,464,l),
(485,22,ls),
(498,3,o),
(523,-10,o),
(551,-10,cs),
(594,-10,o),
(629,25,o),
(629,68,cs),
(629,632,ls),
(629,677,o),
(596,710,o),
(551,710,cs),
(505,710,o),
(472,677,o),
(473,632,cs),
(485,179,l),
(511,226,l),
(229,658,ls),
(211,686,o),
(193,710,o),
(155,710,cs),
(117,710,o),
(80,682,o),
(80,623,cs),
(80,68,ls),
(80,23,o),
(113,-10,o),
(158,-10,cs)
);
}
);
width = 709;
},
{
anchors = (
{
name = bottom;
pos = (312,0);
},
{
name = top;
pos = (306,700);
}
);
layerId = "3D52442A-254C-4C79-B742-A98FD72DF947";
shapes = (
{
closed = 1;
nodes = (
(116,-10,o),
(126,0,o),
(126,13,cs),
(124,640,l),
(114,630,l),
(502,0,ls),
(506,-6,o),
(513,-10,o),
(521,-10,cs),
(535,-10,o),
(545,0,o),
(545,13,cs),
(545,687,ls),
(545,700,o),
(535,710,o),
(522,710,cs),
(509,710,o),
(499,700,o),
(499,687,cs),
(502,63,l),
(510,69,l),
(123,700,ls),
(119,706,o),
(112,710,o),
(102,710,cs),
(88,710,o),
(80,700,o),
(80,687,cs),
(80,13,ls),
(80,0,o),
(90,-10,o),
(103,-10,cs)
);
}
);
width = 625;
},
{
anchors = (
{
name = bottom;
pos = (335,0);
},
{
name = top;
pos = (334,700);
}
);
layerId = "09D2E10D-7E7D-41B4-9A81-DCD24BEE186F";
shapes = (
{
closed = 1;
nodes = (
(149,-10,o),
(167,8,o),
(167,33,cs),
(162,599,l),
(122,606,l),
(489,19,ls),
(499,2,o),
(512,-10,o),
(538,-10,cs),
(562,-10,o),
(581,9,o),
(581,33,cs),
(581,667,ls),
(581,692,o),
(563,710,o),
(538,710,cs),
(512,710,o),
(494,692,o),
(494,667,cs),
(500,86,l),
(515,129,l),
(173,678,ls),
(162,696,o),
(150,710,o),
(123,710,cs),
(99,710,o),
(80,693,o),
(80,665,cs),
(80,33,ls),
(80,8,o),
(98,-10,o),
(123,-10,cs)
);
}
);
width = 660.8125;
}
);
metricLeft = H;
metricRight = H;
unicode = 78;
},
{
glyphname = Eng;
lastChange = "2023-07-07 13:47:12 +0000";
layers = (
{
anchors = (
{
name = bottom;
pos = (1067,0);
},
{
name = top;
pos = (1146,700);
}
);
layerId = "6242D68C-0A25-4F05-8F2A-2075F7C4A210";
shapes = (
{
ref = N;
},
{
closed = 1;
nodes = (
(583,-215,o),
(640,-126,o),
(640,27,cs),
(640,202,l),
(395,172,l),
(409,144,o),
(467,64,o),
(490,29,cs),
(508,2,o),
(506,-76,o),
(447,-76,cs),
(424,-76,o),
(411,-64,o),
(407,-46,cs),
(398,-3,o),
(363,27,o),
(325,27,cs),
(286,27,o),
(251,-3,o),
(251,-46,cs),
(251,-126,o),
(320,-215,o),
(444,-215,cs)
);
}
);
width = 720;
},
{
anchors = (
{
name = bottom;
pos = (862,0);
},
{
name = top;
pos = (1001,700);
}
);
layerId = "3D52442A-254C-4C79-B742-A98FD72DF947";
shapes = (
{
ref = N;
},
{
closed = 1;
nodes = (
(487,-215,o),
(545,-152,o),
(545,-43,cs),
(545,87,l),
(466,61,l),
(492,13,o),
(499,-18,o),
(499,-53,cs),
(499,-131,o),
(458,-170,o),
(400,-170,cs),
(331,-170,o),
(287,-117,o),
(287,-6,cs),
(287,7,o),
(277,17,o),
(264,17,cs),
(251,17,o),
(241,7,o),
(241,-6,cs),
(241,-139,o),
(301,-215,o),
(396,-215,cs)
);
}
);
width = 625;
},
{
anchors = (
{
name = bottom;
pos = (926,0);
},
{
name = top;
pos = (1048,700);
}
);
layerId = "09D2E10D-7E7D-41B4-9A81-DCD24BEE186F";
shapes = (
{
alignment = -1;
ref = N;
},
{
closed = 1;
nodes = (
(531,-215,o),
(581,-122,o),
(581,-11,cs),
(581,80,l),
(458,67,l),
(476,34,o),
(492,-6,o),
(496,-32,cs),
(500,-84,o),
(470,-133,o),
(413,-133,cs),
(357,-133,o),
(327,-91,o),
(326,-27,cs),
(325,-3,o),
(306,16,o),
(283,16,cs),
(259,16,o),
(240,-3,o),
(240,-34,cs),
(240,-124,o),
(299,-215,o),
(415,-215,cs)
);
}
);
width = 660.8125;
}
);
metricLeft = "=N";
metricRight = "=N";
unicode = 330;
},
{
glyphname = O;
lastChange = "2023-07-07 13:50:49 +0000";
layers = (
{
anchors = (
{
name = bottom;
pos = (371,0);
},
{
name = center;
pos = (371,350);
},
{
name = ogonek;
pos = (440,0);
},
{
name = top;
pos = (376,700);
},
{
name = topleft;
pos = (0,700);
},
{
name = topright;
pos = (742,700);
}
);
layerId = "6242D68C-0A25-4F05-8F2A-2075F7C4A210";
shapes = (
{
closed = 1;
nodes = (
(553,-15,o),
(686,133,o),
(686,349,cs),
(686,565,o),
(552,715,o),
(371,715,cs),
(190,715,o),
(56,565,o),
(56,349,cs),
(56,133,o),
(189,-15,o),
(371,-15,cs)
);
},
{
closed = 1;
nodes = (
(270,125,o),
(213,206,o),
(213,349,cs),
(213,493,o),
(270,575,o),
(371,575,cs),
(472,575,o),
(529,493,o),
(529,349,cs),
(529,206,o),
(472,125,o),
(371,125,cs)
);
}
);
width = 742;
},
{
anchors = (
{
name = bottom;
pos = (334,0);
},
{
name = center;
pos = (341,350);
},
{
name = ogonek;
pos = (401,0);
},
{
name = top;
pos = (334,700);
},
{
name = topleft;
pos = (61,700);
},
{
name = topright;
pos = (621,700);
}
);
layerId = "3D52442A-254C-4C79-B742-A98FD72DF947";
shapes = (
{
closed = 1;
nodes = (
(504,-15,o),
(617,137,o),
(617,347,cs),
(617,556,o),
(504,715,o),
(334,715,cs),
(163,715,o),
(50,556,o),
(50,347,cs),
(50,137,o),
(163,-15,o),
(334,-15,cs)
);
},
{
closed = 1;
nodes = (
(190,28,o),
(97,156,o),
(97,347,cs),
(97,538,o),
(190,672,o),
(334,672,cs),
(477,672,o),
(570,538,o),
(570,347,cs),
(570,156,o),
(477,28,o),
(334,28,cs)
);
}
);
width = 667;
},
{
anchors = (
{
name = bottom;
pos = (344,0);
},
{
name = center;
pos = (346,350);
},
{
name = ogonek;
pos = (424,0);
},
{
name = top;
pos = (345,700);
},
{
name = topleft;
pos = (24,700);
},
{
name = topright;
pos = (668,700);
}
);
layerId = "09D2E10D-7E7D-41B4-9A81-DCD24BEE186F";
shapes = (
{
closed = 1;
nodes = (
(520,-15,o),
(634,131,o),
(634,349,cs),
(634,565,o),
(515,715,o),
(345,715,cs),
(175,715,o),
(53,565,o),
(53,349,cs),
(53,131,o),
(168,-15,o),
(344,-15,cs)
);
},
{
closed = 1;
nodes = (
(219,64,o),
(141,179,o),
(141,349,cs),
(141,516,o),
(219,636,o),
(344,636,cs),
(469,636,o),
(546,516,o),
(546,349,cs),
(546,179,o),
(469,64,o),
(344,64,cs)
);
}
);
width = 687.25;
}
);
unicode = 79;
},
{
glyphname = Oogonek;
lastChange = "2023-07-07 13:47:12 +0000";
layers = (
{
layerId = "6242D68C-0A25-4F05-8F2A-2075F7C4A210";
shapes = (
{
ref = O;
},
{
closed = 1;
nodes = (
(483,-215,o),
(527,-198,o),
(552,-172,cs),
(569,-155,o),
(575,-137,o),
(575,-119,cs),
(575,-80,o),
(544,-57,o),
(509,-57,cs),
(489,-57,o),
(472,-65,o),
(458,-77,cs),
(450,-84,o),
(435,-94,o),
(422,-94,cs),
(414,-94,o),
(408,-89,o),
(408,-81,cs),
(408,-48,o),
(510,3,o),
(554,45,c),
(548,75,l),
(430,80,l),
(424,53,ls),
(412,1,o),
(298,0,o),
(298,-108,cs),
(298,-178,o),
(356,-215,o),
(434,-215,cs)
);
}
);
width = 742;
},
{
background = {
shapes = (
{
closed = 1;
nodes = (
(449,-137,o),
(439,-143,o),
(422,-143,cs),
(394,-143,o),
(384,-126,o),
(384,-100,cs),
(384,-38,o),
(440,0,o),
(460,17,cs),
(481,35,l),
(487,79,l),
(450,54,ls),
(363,-5,o),
(339,-54,o),
(339,-99,cs),
(339,-148,o),
(369,-184,o),
(420,-184,cs),
(445,-184,o),
(466,-176,o),
(486,-157,cs),
(501,-144,o),
(506,-132,o),
(506,-124,cs),
(506,-112,o),
(496,-106,o),
(487,-106,cs),
(475,-106,o),
(466,-117,o),
(461,-123,cs)
);
}
);
};
layerId = "3D52442A-254C-4C79-B742-A98FD72DF947";
shapes = (
{
ref = O;
},
{
closed = 1;
nodes = (
(452,-215,o),
(479,-200,o),
(498,-175,cs),
(502,-169,o),
(506,-164,o),
(506,-155,cs),
(506,-143,o),
(498,-136,o),
(488,-136,cs),
(478,-136,o),
(473,-142,o),
(468,-147,cs),
(449,-166,o),
(436,-174,o),
(417,-174,cs),
(386,-174,o),
(369,-155,o),
(369,-129,cs),
(369,-88,o),
(404,-38,o),
(450,5,cs),
(489,41,l),
(453,56,l),
(407,13,ls),
(376,-16,o),
(323,-62,o),
(323,-128,cs),
(323,-184,o),
(365,-215,o),
(415,-215,cs)
);
}
);
width = 667;
},
{
layerId = "09D2E10D-7E7D-41B4-9A81-DCD24BEE186F";
shapes = (
{
alignment = -1;
ref = O;
},
{
closed = 1;
nodes = (
(454,-216,o),
(487,-207,o),
(514,-177,cs),
(522,-168,o),
(528,-156,o),
(528,-144,cs),
(528,-123,o),
(513,-107,o),
(492,-107,cs),
(479,-107,o),
(469,-113,o),
(461,-121,cs),
(447,-135,o),
(435,-140,o),
(424,-140,cs),
(400,-140,o),
(392,-125,o),
(392,-111,cs),
(392,-71,o),
(454,-12,o),
(499,31,cs),
(521,59,l),
(442,64,l),
(406,27,ls),
(383,-2,o),
(318,-45,o),
(318,-119,cs),
(318,-182,o),
(367,-214,o),
(423,-215,cs)
);
}
);
width = 687.25;
}
);
metricLeft = "=O";
metricRight = "=O";
unicode = 490;
},
{
glyphname = Oslash;
lastChange = "2023-07-07 13:47:12 +0000";
layers = (
{
anchors = (
{
name = bottom;
pos = (342,0);
},
{
name = top;
pos = (342,700);
}
);
layerId = "6242D68C-0A25-4F05-8F2A-2075F7C4A210";
shapes = (
{
closed = 1;
nodes = (
(149,-35,o),
(171,-26,o),
(185,-7,cs),
(659,637,ls),
(667,648,o),
(673,662,o),
(673,679,cs),
(673,717,o),
(642,749,o),
(603,749,cs),
(583,749,o),
(561,740,o),
(547,721,cs),
(73,77,ls),
(65,66,o),
(59,52,o),
(59,35,cs),
(59,-4,o),
(90,-35,o),
(128,-35,cs)
);
},
{
pos = (-1,0);
ref = O;
}
);
width = 740;
},
{
anchors = (
{
name = bottom;
pos = (339,0);
},
{
name = top;
pos = (339,700);
}
);
layerId = "3D52442A-254C-4C79-B742-A98FD72DF947";
shapes = (
{
closed = 1;
nodes = (
(78,-22,o),
(85,-18,o),
(89,-13,cs),
(614,701,ls),
(617,705,o),
(619,709,o),
(619,714,cs),
(619,726,o),
(609,736,o),
(597,736,cs),
(589,736,o),
(582,731,o),
(579,727,cs),
(53,13,ls),
(50,9,o),
(49,5,o),
(49,0,cs),
(49,-12,o),
(59,-22,o),
(71,-22,cs)
);
},
{
pos = (-4,0);
ref = O;
}
);
width = 659;
},
{
anchors = (
{
name = bottom;
pos = (344,0);
},
{
name = top;
pos = (344,700);
}
);
layerId = "09D2E10D-7E7D-41B4-9A81-DCD24BEE186F";
shapes = (
{
closed = 1;
nodes = (
(103,-26,o),
(115,-20,o),
(122,-11,cs),
(629,678,ls),
(634,685,o),
(637,693,o),
(637,701,cs),
(637,723,o),
(620,741,o),
(598,741,cs),
(585,741,o),
(573,734,o),
(566,725,cs),
(59,36,ls),
(54,29,o),
(51,21,o),
(51,13,cs),
(51,-9,o),
(69,-26,o),
(91,-26,cs)
);
},
{
alignment = -1;
pos = (1,0);
ref = O;
}
);
width = 686;
}
);
unicode = 216;
},
{
glyphname = OE;
lastChange = "2023-07-07 13:47:12 +0000";
layers = (
{
anchors = (
{
name = bottom;
pos = (457,0);
},
{
name = top;
pos = (457,700);
}
);
background = {
shapes = (
{
closed = 1;
nodes = (
(463,-17,o),
(596,133,o),
(596,348,cs),
(596,563,o),
(468,712,o),
(286,712,cs),
(104,712,o),
(-34,563,o),
(-34,348,cs),
(-34,133,o),
(99,-17,o),
(281,-17,cs)
);
},
{
closed = 1;
nodes = (
(185,123,o),
(123,217,o),
(123,348,cs),
(123,479,o),
(185,572,o),
(281,572,cs),
(377,572,o),
(439,479,o),
(439,348,cs),
(439,217,o),
(377,123,o),
(281,123,cs)
);
}
);
};
layerId = "6242D68C-0A25-4F05-8F2A-2075F7C4A210";
shapes = (
{
closed = 1;
nodes = (
(410,-15,o),
(449,13,o),
(490,47,c),
(461,72,l),
(462,49,l),
(462,20,o),
(505,0,o),
(535,0,cs),
(811,0,ls),
(852,0,o),
(881,29,o),
(881,70,cs),
(881,111,o),
(852,140,o),
(811,140,cs),
(596,140,l),
(596,285,l),
(759,285,ls),
(800,285,o),
(829,314,o),
(829,355,cs),
(829,396,o),
(800,425,o),
(759,425,cs),
(596,425,l),
(596,560,l),
(798,560,ls),
(839,560,o),
(868,589,o),
(868,630,cs),
(868,671,o),
(839,700,o),
(798,700,cs),
(532,700,ls),
(500,700,o),
(461,670,o),
(461,638,c),
(461,622,l),
(511,653,l),
(469,682,o),
(440,715,o),
(353,715,cs),
(178,715,o),
(56,562,o),
(56,351,cs),
(56,162,o),
(154,-15,o),
(335,-15,cs)
);
},
{
closed = 1;
nodes = (
(213,486,o),
(273,579,o),
(371,576,cs),
(407,575,o),
(434,563,o),
(450,551,c),
(450,150,l),
(434,139,o),
(396,125,o),
(357,125,cs),
(273,125,o),
(213,208,o),
(213,347,cs)
);
}
);
width = 923;
},
{
anchors = (
{
name = bottom;
pos = (479,0);
},
{
name = top;
pos = (479,700);
}
);
layerId = "3D52442A-254C-4C79-B742-A98FD72DF947";
shapes = (
{
closed = 1;
nodes = (
(419,-15,o),
(474,19,o),
(509,72,c),
(502,82,l),
(502,23,ls),
(502,10,o),
(512,0,o),
(525,0,cs),
(870,0,ls),
(883,0,o),
(893,10,o),
(893,23,cs),
(893,36,o),
(883,46,o),
(870,46,cs),
(548,46,l),
(548,344,l),
(842,344,ls),
(855,344,o),
(865,354,o),
(865,367,cs),
(865,380,o),
(855,390,o),
(842,390,cs),
(548,390,l),
(548,654,l),
(872,654,ls),
(885,654,o),
(895,664,o),
(895,677,cs),
(895,690,o),
(885,700,o),
(872,700,cs),
(525,700,ls),
(512,700,o),
(502,690,o),
(502,677,cs),
(502,614,l),
(508,624,l),
(477,675,o),
(419,716,o),
(330,716,cs),
(153,716,o),
(50,557,o),
(50,350,cs),
(50,134,o),
(153,-15,o),
(333,-15,cs)
);
},
{
closed = 1;
nodes = (
(96,533,o),
(179,672,o),
(327,672,cs),
(415,672,o),
(489,616,o),
(502,549,c),
(502,151,l),
(482,91,o),
(436,29,o),
(331,29,cs),
(179,29,o),
(96,162,o),
(96,354,cs)
);
}
);
width = 953;
},
{
anchors = (
{
name = bottom;
pos = (462,0);
},
{
name = top;
pos = (462,700);
}
);
layerId = "09D2E10D-7E7D-41B4-9A81-DCD24BEE186F";
shapes = (
{
closed = 1;
nodes = (
(406,-15,o),
(461,9,o),
(498,49,c),
(477,61,l),
(477,34,ls),
(478,14,o),
(496,0,o),
(519,0,cs),
(835,0,ls),
(858,0,o),
(875,17,o),
(875,40,cs),
(875,64,o),
(858,81,o),
(835,81,cs),
(562,81,l),
(562,322,l),
(796,322,ls),
(819,322,o),
(836,338,o),
(836,362,cs),
(836,385,o),
(819,402,o),
(796,402,cs),
(562,402,l),
(562,620,l),
(827,620,ls),
(851,620,o),
(867,636,o),
(867,660,cs),
(867,683,o),
(851,700,o),
(827,700,cs),
(519,700,ls),
(497,700,o),
(479,687,o),
(479,668,cs),
(479,642,l),
(501,653,l),
(461,691,o),
(406,715,o),
(339,715,cs),
(165,715,o),
(53,561,o),
(53,351,cs),
(53,142,o),
(159,-15,o),
(338,-15,cs)
);
},
{
closed = 1;
nodes = (
(140,516,o),
(212,637,o),
(340,636,cs),
(404,636,o),
(455,606,o),
(475,563,c),
(475,141,l),
(457,100,o),
(407,64,o),
(339,64,cs),
(216,64,o),
(140,182,o),
(140,351,cs)
);
}
);
width = 923;
}
);
metricLeft = "=O";
metricRight = "=E";
unicode = 338;
},
{
glyphname = P;
lastChange = "2023-07-07 13:47:12 +0000";
layers = (
{
anchors = (
{
name = bottom;
pos = (371,0);
},
{
name = top;
pos = (371,700);
}
);
background = {
shapes = (
{
attr = {
strokeWidth = 2;
};
closed = 0;
nodes = (
(266,618,l),
(447,618,ls),
(521,618,o),
(580,559,o),
(580,485,c),
(580,413,o),
(521,353,o),
(447,353,cs),
(266,353,l)
);
},
{
closed = 1;
nodes = (
(262,-10,o),
(298,26,o),
(298,70,cs),
(298,700,l),
(218,700,ls),
(174,700,o),
(138,664,o),
(138,620,cs),
(138,70,ls),
(138,26,o),
(174,-10,o),
(218,-10,cs)
);
}
);
};
layerId = "6242D68C-0A25-4F05-8F2A-2075F7C4A210";
shapes = (
{
closed = 1;
nodes = (
(201,-10,o),
(236,25,o),
(236,68,cs),
(236,700,l),
(158,700,ls,{
name = "💚";
}),
(115,700,o),
(80,665,o),
(80,622,cs),
(80,68,ls),
(80,25,o),
(115,-10,o),
(158,-10,cs)
);
},
{
closed = 1;
nodes = (
(386,255,ls),
(506,255,o),
(606,343,o),
(606,477,cs),
(606,610,o),
(507,700,o),
(374,700,cs),
(206,700,l),
(206,560,l),
(360,560,ls),
(414,560,o),
(446,528,o),
(446,474,cs),
(446,428,o),
(413,395,o),
(368,395,cs),
(206,395,l),
(206,255,l)
);
}
);
width = 616;
},
{
anchors = (
{
name = bottom;
pos = (234,0);
},
{
name = top;
pos = (231,700);
}
);
background = {
shapes = (
{
attr = {
strokeWidth = 2;
};
closed = 0;
nodes = (
(76,677,l),
(311,677,ls),
(407,677,o),
(484,599,o),
(484,503,c),
(484,408,o),
(407,329,o),
(311,329,cs),
(76,329,l)
);
}
);
};
layerId = "3D52442A-254C-4C79-B742-A98FD72DF947";
shapes = (
{
closed = 1;
nodes = (
(116,-10,o),
(126,0,o),
(126,13,cs),
(126,700,l),
(103,700,ls),
(90,700,o),
(80,690,o),
(80,677,cs),
(80,13,ls),
(80,0,o),
(90,-10,o),
(103,-10,cs)
);
},
{
closed = 1;
nodes = (
(325,306,ls),
(441,306,o),
(528,396,o),
(528,503,cs),
(528,611,o),
(441,700,o),
(332,700,cs),
(118,700,l),
(118,655,l),
(332,655,ls),
(416,655,o),
(481,590,o),
(481,503,cs),
(481,417,o),
(414,350,o),
(325,350,cs),
(118,350,l),
(118,306,l)
);
}
);
width = 538;
},
{
anchors = (
{
name = bottom;
pos = (290,0);
},
{
name = top;
pos = (290,700);
}
);
layerId = "09D2E10D-7E7D-41B4-9A81-DCD24BEE186F";
shapes = (
{
closed = 1;
nodes = (
(148,-10,o),
(167,9,o),
(167,33,cs),
(167,700,l),
(123,700,ls),
(98,700,o),
(80,681,o),
(80,657,cs),
(80,33,ls),
(80,9,o),
(98,-10,o),
(123,-10,cs)
);
},
{
closed = 1;
nodes = (
(363,285,ls),
(474,285,o),
(562,373,o),
(562,493,cs),
(562,612,o),
(473,700,o),
(353,700,cs),
(133,700,l),
(133,619,l),
(351,619,ls),
(424,619,o),
(474,568,o),
(474,493,cs),
(474,418,o),
(424,366,o),
(351,366,cs),
(133,366,l),
(133,285,l)
);
}
);
width = 571.75;
}
);
metricLeft = H;
unicode = 80;
},
{
glyphname = Thorn;
lastChange = "2023-07-07 13:47:12 +0000";
layers = (
{
layerId = "6242D68C-0A25-4F05-8F2A-2075F7C4A210";
shapes = (
{
closed = 1;
nodes = (
(374,138,ls),
(499,138,o),
(598,241,o),
(598,359,cs),
(598,477,o),
(495,580,o),
(357,580,cs),
(196,580,l),
(196,432,l),
(357,432,ls),
(418,432,o),
(447,401,o),
(447,359,cs),
(447,317,o),
(418,286,o),
(357,286,cs),
(196,286,l),
(196,138,l)
);
},
{
ref = I;
}
);
width = 608;
},
{
layerId = "3D52442A-254C-4C79-B742-A98FD72DF947";
shapes = (
{
closed = 1;
nodes = (
(344,171,ls),
(442,171,o),
(516,247,o),
(516,359,cs),
(516,471,o),
(439,548,o),
(327,548,cs),
(109,548,l),
(109,505,l),
(327,505,ls),
(413,505,o),
(470,444,o),
(470,359,cs),
(470,274,o),
(413,214,o),
(327,214,cs),
(109,214,l),
(109,171,l)
);
},
{
ref = I;
}
);
width = 526;
},
{
layerId = "09D2E10D-7E7D-41B4-9A81-DCD24BEE186F";
shapes = (
{
closed = 1;
nodes = (
(367,155,ls),
(474,155,o),
(558,242,o),
(558,359,cs),
(558,476,o),
(471,564,o),
(350,564,cs),
(132,564,l),
(132,481,l),
(350,481,ls),
(425,481,o),
(472,431,o),
(472,359,cs),
(472,288,o),
(425,237,o),
(350,237,cs),
(132,237,l),
(132,155,l)
);
},
{
alignment = -1;
ref = I;
}
);
width = 567.8125;
}
);
metricLeft = "=H";
metricRight = "=P";
unicode = 222;
},
{
glyphname = Q;
lastChange = "2023-07-07 13:47:12 +0000";
layers = (
{
annotations = (
{
pos = (726.709,678.073);
text = "need to fix tail";
type = Text;
}
);
guides = (
{
pos = (509,-45);
}
);
layerId = "6242D68C-0A25-4F05-8F2A-2075F7C4A210";
shapes = (
{
closed = 1;
nodes = (
(493,125,o),
(555,209,o),
(555,351,cs),
(555,482,o),
(493,575,o),
(387,575,cs),
(281,575,o),
(219,482,o),
(219,351,cs),
(219,220,o),
(281,125,o),
(387,125,cs)
);
},
{
closed = 1;
nodes = (
(195,-15,o),
(56,136,o),
(56,351,cs),
(56,566,o),
(200,715,o),
(392,715,cs),
(584,715,o),
(718,566,o),
(718,351,cs),
(718,136,o),
(579,-15,o),
(387,-15,cs)
);
},
{
closed = 1;
nodes = (
(311,183,o),
(271,210,o),
(271,257,cs),
(271,322,o),
(347,338,o),
(387,338,cs),
(475,338,o),
(544,259,o),
(572,153,c),
(491,96,l),
(455,169,o),
(444,194,o),
(405,194,cs),
(378,194,o),
(368,183,o),
(346,183,cs)
);
},
{
closed = 1;
nodes = (
(563,-45,o),
(537,11,o),
(495,96,c),
(576,153,l),
(594,115,o),
(624,93,o),
(655,93,cs),
(681,93,o),
(691,109,o),
(720,109,cs),
(751,109,o),
(778,90,o),
(778,47,cs),
(778,-23,o),
(705,-45,o),
(650,-45,cs)
);
}
);
width = 788;
},
{
guides = (
{
pos = (603,-45);
}
);
layerId = "3D52442A-254C-4C79-B742-A98FD72DF947";
shapes = (
{
closed = 1;
nodes = (
(477,28,o),
(570,159,o),
(570,350,cs),
(570,541,o),
(477,672,o),
(334,672,cs),
(190,672,o),
(97,541,o),
(97,350,cs),
(97,159,o),
(190,28,o),
(334,28,cs)
);
},
{
closed = 1;
nodes = (
(163,-15,o),
(50,141,o),
(50,350,cs),
(50,559,o),
(163,715,o),
(334,715,cs),
(504,715,o),
(617,559,o),
(617,350,cs),
(617,141,o),
(504,-15,o),
(334,-15,cs)
);
},
{
closed = 1;
nodes = (
(345,146,o),
(335,155,o),
(335,168,cs),
(335,185,o),
(354,195,o),
(376,195,cs),
(431,195,o),
(452,136,o),
(488,74,c),
(454,47,l),
(419,104,o),
(403,149,o),
(378,149,cs),
(372,149,o),
(367,146,o),
(359,146,cs)
);
},
{
closed = 1;
nodes = (
(517,-45,o),
(493,-10,o),
(455,47,c),
(489,74,l),
(522,23,o),
(549,1,o),
(576,1,cs),
(597,1,o),
(611,14,o),
(624,14,cs),
(635,14,o),
(645,3,o),
(645,-10,cs),
(645,-34,o),
(611,-45,o),
(577,-45,cs)
);
}
);
width = 655;
},
{
layerId = "09D2E10D-7E7D-41B4-9A81-DCD24BEE186F";
shapes = (
{
closed = 1;
nodes = (
(479,63,o),
(556,182,o),
(556,350,cs),
(556,519,o),
(479,638,o),
(348,638,cs),
(219,638,o),
(141,519,o),
(141,350,cs),
(141,182,o),
(219,63,o),
(348,63,cs)
);
},
{
closed = 1;
nodes = (
(168,-15,o),
(53,134,o),
(53,350,cs),
(53,567,o),
(174,715,o),
(349,715,cs),
(530,715,o),
(644,567,o),
(644,350,cs),
(644,134,o),
(530,-15,o),
(348,-15,cs)
);
},
{
closed = 1;
nodes = (
(346,157,o),
(328,172,o),
(328,192,cs),
(328,214,o),
(350,233,o),
(378,233,cs),
(439,233,o),
(486,146,o),
(520,89,c),
(462,55,l),
(427,110,o),
(411,142,o),
(395,151,cs),
(387,157,o),
(381,157,o),
(373,157,cs)
);
},
{
closed = 1;
nodes = (
(527,-45,o),
(500,-4,o),
(463,55,c),
(521,89,l),
(545,52,o),
(564,36,o),
(588,36,cs),
(607,36,o),
(614,46,o),
(631,46,cs),
(652,46,o),
(669,29,o),
(669,7,cs),
(669,-32,o),
(620,-45,o),
(587,-45,cs)
);
}
);
width = 679;
}
);
metricLeft = O;
unicode = 81;
},
{
glyphname = R;
lastChange = "2023-07-07 13:47:12 +0000";
layers = (
{
anchors = (
{
name = bottom;
pos = (364,0);
},
{
name = top;
pos = (321,700);
}
);
background = {
shapes = (
{
attr = {
strokeWidth = 2;
};
closed = 0;
nodes = (
(186,669,l),
(186,0,l)
);
},
{
attr = {
strokeWidth = 2;
};
closed = 0;
nodes = (
(128,340,l),
(369,340,ls),
(472,340,o),
(532,394,o),
(532,487,cs),
(532,572,o),
(464,634,o),
(369,634,cs),
(128,634,l)
);
},
{
attr = {
strokeWidth = 2;
};
closed = 0;
nodes = (
(393,370,l),
(571,4,l)
);
},
{
closed = 1;
nodes = (
(204,-10,o),
(240,26,o),
(240,70,cs),
(240,700,l),
(160,700,ls),
(116,700,o),
(80,664,o),
(80,620,cs),
(80,70,ls),
(80,26,o),
(116,-10,o),
(160,-10,cs)
);
}
);
};
layerId = "6242D68C-0A25-4F05-8F2A-2075F7C4A210";
shapes = (
{
closed = 1;
nodes = (
(203,-10,o),
(236,23,o),
(236,68,cs),
(236,700,l),
(158,700,ls),
(113,700,o),
(80,667,o),
(80,622,cs),
(80,68,ls),
(80,23,o),
(113,-10,o),
(158,-10,cs)
);
},
{
closed = 1;
nodes = (
(388,255,ls),
(508,255,o),
(608,343,o),
(608,477,cs),
(608,610,o),
(509,700,o),
(376,700,cs),
(208,700,l),
(208,560,l),
(362,560,ls),
(402,560,o),
(448,532,o),
(448,474,cs),
(448,428,o),
(417,395,o),
(370,395,cs),
(208,395,l),
(208,255,l)
);
},
{
closed = 1;
nodes = (
(593,-10,o),
(626,23,o),
(626,65,cs),
(626,77,o),
(623,89,o),
(618,99,cs,{
name = "💚";
}),
(499,343,l),
(352,309,l),
(485,31,ls),
(497,6,o),
(522,-10,o),
(551,-10,cs)
);
}
);
width = 676;
},
{
anchors = (
{
name = bottom;
pos = (292,0);
},
{
name = top;
pos = (268,700);
}
);
background = {
shapes = (
{
attr = {
strokeWidth = 2;
};
closed = 0;
nodes = (
(97,682,l),
(97,0,l)
);
},
{
attr = {
strokeWidth = 2;
};
closed = 0;
nodes = (
(111,352,l),
(325,352,ls),
(439,352,o),
(507,411,o),
(507,509,cs),
(507,610,o),
(431,678,o),
(325,678,cs),
(111,678,l)
);
},
{
attr = {
strokeWidth = 2;
};
closed = 0;
nodes = (
(350,376,l),
(532,1,l)
);
}
);
};
layerId = "3D52442A-254C-4C79-B742-A98FD72DF947";
shapes = (
{
closed = 1;
nodes = (
(116,-10,o),
(126,0,o),
(126,13,cs),
(126,700,l),
(103,700,ls),
(90,700,o),
(80,690,o),
(80,677,cs),
(80,13,ls),
(80,0,o),
(90,-10,o),
(103,-10,cs)
);
},
{
closed = 1;
nodes = (
(325,328,ls),
(451,328,o),
(530,396,o),
(530,508,cs),
(530,622,o),
(443,700,o),
(325,700,cs),
(117,700,l),
(117,655,l),
(325,655,ls),
(419,655,o),
(483,599,o),
(483,508,cs),
(483,420,o),
(430,372,o),
(325,372,cs),
(117,372,l),
(117,328,l)
);
},
{
closed = 1;
nodes = (
(537,-10,o),
(546,0,o),
(546,12,cs),
(546,15,o),
(545,19,o),
(544,22,cs),
(383,358,l),
(336,355,l),
(505,2,ls),
(508,-5,o),
(516,-10,o),
(524,-10,cs)
);
}
);
width = 596;
},
{
anchors = (
{
name = bottom;
pos = (313,0);
},
{
name = top;
pos = (297,700);
}
);
layerId = "09D2E10D-7E7D-41B4-9A81-DCD24BEE186F";
shapes = (
{
closed = 1;
nodes = (
(147,-10,o),
(167,10,o),
(167,34,cs),
(167,700,l),
(123,700,ls),
(100,700,o),
(80,681,o),
(80,656,cs),
(80,34,ls),
(80,10,o),
(100,-10,o),
(123,-10,cs)
);
},
{
closed = 1;
nodes = (
(358,315,ls),
(474,315,o),
(561,391,o),
(561,505,cs),
(561,621,o),
(472,700,o),
(352,700,cs),
(136,700,l),
(136,619,l),
(353,619,ls),
(423,619,o),
(473,575,o),
(473,504,cs),
(473,439,o),
(430,395,o),
(360,395,cs),
(138,395,l),
(138,315,l)
);
},
{
closed = 1;
nodes = (
(555,-10,o),
(573,10,o),
(573,33,cs),
(573,40,o),
(572,46,o),
(569,52,cs),
(424,353,l),
(338,339,l),
(493,14,ls),
(501,0,o),
(515,-10,o),
(531,-10,cs)
);
}
);
width = 623;
}
);
metricLeft = H;
unicode = 82;
},
{
glyphname = S;
lastChange = "2023-07-07 13:47:12 +0000";
layers = (
{
anchors = (
{
name = bottom;
pos = (304,-2);
},
{
name = top;
pos = (304,700);
}
);
background = {
shapes = (
{
closed = 1;
nodes = (
(455,-15,o),
(565,57,o),
(565,198,cs),
(565,330,o),
(470,377,o),
(380,412,cs),
(302,442,o),
(225,463,o),
(225,519,cs),
(225,557,o),
(260,575,o),
(307,575,cs),
(350,575,o),
(372,557,o),
(386,536,cs),
(399,516,o),
(422,503,o),
(449,503,cs),
(533,503,o),
(547,614,o),
(457,675,cs),
(422,699,o),
(372,715,o),
(305,715,cs),
(166,715,o),
(69,640,o),
(69,513,cs),
(69,401,o),
(135,350,o),
(209,317,cs),
(301,276,o),
(411,260,o),
(411,190,cs),
(411,148,o),
(374,125,o),
(308,125,cs),
(249,125,o),
(207,144,o),
(184,182,cs),
(169,207,o),
(147,229,o),
(115,229,cs),
(75,229,o),
(42,196,o),
(42,150,cs),
(42,63,o),
(157,-15,o),
(307,-15,cs)
);
}
);
};
layerId = "6242D68C-0A25-4F05-8F2A-2075F7C4A210";
shapes = (
{
closed = 1;
nodes = (
(447,-15,o),
(559,56,o),
(559,188,cs),
(559,330,o),
(449,383,o),
(342,428,cs),
(285,452,o),
(236,469,o),
(236,519,cs),
(236,557,o),
(270,575,o),
(306,575,cs),
(352,575,o),
(372,560,o),
(386,544,cs),
(404,525,o),
(414,503,o),
(453,503,cs),
(499,503,o),
(525,534,o),
(525,576,cs),
(525,656,o),
(432,715,o),
(307,715,cs),
(179,715,o),
(80,645,o),
(80,513,cs),
(80,406,o),
(142,351,o),
(218,316,cs),
(306,276,o),
(402,261,o),
(402,190,cs),
(402,149,o),
(368,125,o),
(302,125,cs),
(222,125,o),
(199,165,o),
(180,190,cs),
(161,215,o),
(146,229,o),
(117,229,cs),
(72,229,o),
(42,195,o),
(42,150,cs),
(42,62,o),
(155,-15,o),
(307,-15,cs)
);
}
);
width = 599;
},
{
anchors = (
{
name = bottom;
pos = (279,4);
},
{
name = top;
pos = (278,700);
}
);
layerId = "3D52442A-254C-4C79-B742-A98FD72DF947";
shapes = (
{
closed = 1;
nodes = (
(427,-15,o),
(514,58,o),
(514,183,cs),
(514,282,o),
(455,346,o),
(296,386,cs),
(161,420,o),
(115,460,o),
(115,532,cs),
(115,622,o),
(191,672,o),
(278,672,cs),
(365,672,o),
(427,629,o),
(450,545,cs),
(453,532,o),
(463,526,o),
(473,526,cs),
(489,526,o),
(500,540,o),
(496,555,cs),
(471,660,o),
(387,715,o),
(278,715,cs),
(164,715,o),
(68,644,o),
(68,531,cs),
(68,438,o),
(132,378,o),
(274,343,cs),
(416,308,o),
(467,262,o),
(467,181,cs),
(467,76,o),
(391,28,o),
(287,28,cs),
(183,28,o),
(96,74,o),
(88,186,cs),
(87,197,o),
(77,206,o),
(65,206,cs),
(51,206,o),
(41,193,o),
(42,181,cs),
(51,45,o),
(166,-15,o),
(287,-15,cs)
);
}
);
width = 554;
},
{
anchors = (
{
name = bottom;
pos = (290,-3);
},
{
name = top;
pos = (289,700);
}
);
layerId = "09D2E10D-7E7D-41B4-9A81-DCD24BEE186F";
shapes = (
{
closed = 1;
nodes = (
(441,-16,o),
(537,62,o),
(537,191,cs),
(537,301,o),
(473,363,o),
(325,403,cs),
(206,434,o),
(158,467,o),
(158,531,cs),
(158,591,o),
(207,636,o),
(289,636,cs),
(358,636,o),
(404,606,o),
(422,553,cs),
(431,529,o),
(441,514,o),
(464,514,cs),
(489,514,o),
(502,531,o),
(501,554,cs),
(495,626,o),
(417,715,o),
(282,715,cs),
(148,715,o),
(71,626,o),
(71,521,cs),
(71,415,o),
(155,359,o),
(264,330,cs),
(391,296,o),
(451,262,o),
(451,185,cs),
(451,106,o),
(390,64,o),
(295,64,cs),
(188,64,o),
(145,117,o),
(126,176,cs),
(116,196,o),
(106,214,o),
(84,214,cs),
(60,214,o),
(42,195,o),
(42,171,cs),
(44,83,o),
(130,-16,o),
(292,-16,cs)
);
}
);
width = 577.25;
}
);
unicode = 83;
},
{
glyphname = Germandbls;
lastChange = "2023-07-07 13:47:12 +0000";
layers = (
{
layerId = "6242D68C-0A25-4F05-8F2A-2075F7C4A210";
shapes = (
{
closed = 1;
nodes = (
(198,-10,o),
(232,24,o),
(232,65,cs),
(232,429,ls),
(232,517,o),
(263,554,o),
(337,554,cs),
(597,554,l),
(519,686,l),
(355,430,ls),
(315,368,o),
(342,313,o),
(405,294,cs),
(500,267,o),
(556,261,o),
(556,203,cs),
(556,159,o),
(525,135,o),
(459,135,cs),
(427,135,o),
(392,146,o),
(374,152,cs),
(317,171,o),
(265,136,o),
(265,82,cs),
(265,53,o),
(282,26,o),
(309,15,cs),
(332,5,o),
(402,-15,o),
(463,-15,cs),
(621,-15,o),
(707,99,o),
(707,211,cs),
(707,346,o),
(585,406,o),
(395,443,c),
(472,332,l),
(630,572,ls),
(670,633,o),
(629,700,o),
(566,700,cs),
(315,700,ls),
(188,700,o),
(80,593,o),
(80,486,cs),
(80,65,ls),
(80,24,o),
(115,-10,o),
(156,-10,cs)
);
}
);
width = 737;
},
{
layerId = "3D52442A-254C-4C79-B742-A98FD72DF947";
shapes = (
{
closed = 1;
nodes = (
(116,-10,o),
(126,0,o),
(126,13,cs),
(126,481,ls),
(126,580,o),
(165,655,o),
(284,655,cs),
(472,655,l),
(448,672,l),
(288,406,ls),
(267,371,o),
(270,358,o),
(307,347,cs),
(398,320,o),
(516,286,o),
(516,170,cs),
(516,78,o),
(452,30,o),
(366,30,cs),
(325,30,o),
(283,43,o),
(265,49,cs),
(240,57,o),
(221,52,o),
(221,33,cs),
(221,20,o),
(228,14,o),
(237,10,cs),
(256,1,o),
(316,-15,o),
(370,-15,cs),
(497,-15,o),
(562,72,o),
(562,171,cs),
(562,288,o),
(465,352,o),
(319,389,c),
(319,372,l),
(492,650,ls),
(511,681,o),
(499,700,o),
(473,700,cs),
(277,700,ls),
(161,700,o),
(80,616,o),
(80,502,cs),
(80,13,ls),
(80,0,o),
(90,-10,o),
(103,-10,cs)
);
}
);
width = 592;
},
{
layerId = "09D2E10D-7E7D-41B4-9A81-DCD24BEE186F";
shapes = (
{
closed = 1;
nodes = (
(148,-9,o),
(167,10,o),
(167,33,cs),
(167,462,ls),
(167,547,o),
(201,619,o),
(304,619,cs),
(497,619,l),
(468,663,l),
(321,414,ls),
(296,371,o),
(304,341,o),
(351,327,cs),
(444,300,o),
(531,283,o),
(531,187,cs),
(531,110,o),
(479,70,o),
(401,70,cs),
(363,70,o),
(324,82,o),
(306,88,cs),
(272,99,o),
(239,84,o),
(239,50,cs),
(239,33,o),
(249,19,o),
(264,12,cs),
(285,3,o),
(349,-15,o),
(405,-15,cs),
(543,-15,o),
(617,82,o),
(617,193,cs),
(617,318,o),
(512,374,o),
(369,404,c),
(389,362,l),
(544,621,ls),
(569,663,o),
(547,700,o),
(508,700,cs),
(297,700,ls),
(172,700,o),
(80,606,o),
(80,483,cs),
(80,33,ls),
(80,10,o),
(100,-9,o),
(123,-9,cs)
);
}
);
width = 646.75;
}
);
metricLeft = "=H";
metricRight = "=S-10";
unicode = 7838;
},
{
glyphname = T;
lastChange = "2023-07-07 13:47:12 +0000";
layers = (
{
anchors = (
{
name = bottom;
pos = (305,4);
},
{
name = center;
pos = (306,350);
},
{
name = top;
pos = (306,700);
}
);
layerId = "6242D68C-0A25-4F05-8F2A-2075F7C4A210";
shapes = (
{
closed = 1;
nodes = (
(518,550,ls),
(561,550,o),
(593,582,o),
(593,625,cs),
(593,668,o),
(561,700,o),
(518,700,cs),
(90,700,ls),
(47,700,o),
(15,668,o),
(15,625,cs),
(15,582,o),
(47,550,o),
(90,550,cs)
);
},
{
closed = 1;
nodes = (
(349,-10,o),
(382,23,o),
(382,68,cs),
(382,566,l),
(226,566,l),
(226,68,ls),
(226,23,o),
(259,-10,o),
(304,-10,cs)
);
}
);
width = 608;
},
{
anchors = (
{
name = bottom;
pos = (275,2);
},
{
name = center;
pos = (255,350);
},
{
name = top;
pos = (255,700);
}
);
background = {
shapes = (
{
closed = 1;
nodes = (
(468,655,ls),
(481,655,o),
(491,664,o),
(491,677,cs),
(491,690,o),
(481,700,o),
(468,700,cs),
(38,700,ls),
(25,700,o),
(15,690,o),
(15,677,cs),
(15,664,o),
(25,655,o),
(38,655,cs)
);
}
);
};
layerId = "3D52442A-254C-4C79-B742-A98FD72DF947";
shapes = (
{
closed = 1;
nodes = (
(468,656,ls),
(491,656,o),
(491,664,o),
(491,677,cs),
(491,690,o),
(491,700,o),
(468,700,cs),
(38,700,ls),
(24,700,o),
(15,690,o),
(15,677,cs),
(15,664,o),
(24,656,o),
(38,656,cs)
);
},
{
closed = 1;
nodes = (
(266,-10,o),
(276,0,o),
(276,13,cs),
(276,667,l),
(230,667,l),
(230,13,ls),
(230,0,o),
(240,-10,o),
(253,-10,cs)
);
}
);
width = 506;
},
{
anchors = (
{
name = bottom;
pos = (276,1);
},
{
name = center;
pos = (270,350);
},
{
name = top;
pos = (270,700);
}
);
layerId = "09D2E10D-7E7D-41B4-9A81-DCD24BEE186F";
shapes = (
{
closed = 1;
nodes = (
(485,619,ls),
(511,619,o),
(526,636,o),
(526,659,cs),
(526,683,o),
(511,700,o),
(485,700,cs),
(56,700,ls),
(32,700,o),
(15,683,o),
(15,659,cs),
(15,636,o),
(32,619,o),
(56,619,cs)
);
},
{
closed = 1;
nodes = (
(296,-10,o),
(314,8,o),
(314,33,cs),
(314,633,l),
(228,633,l),
(228,33,ls),
(228,8,o),
(245,-10,o),
(270,-10,cs)
);
}
);
width = 540.875;
}
);
unicode = 84;
},
{
glyphname = Tbar;
lastChange = "2023-07-07 13:47:12 +0000";
layers = (
{
background = {
shapes = (
{
attr = {
lineCapEnd = "2";
lineCapStart = "2";
strokeHeight = 130;
strokeWidth = 130;
};
closed = 0;
nodes = (
(108,370,l),
(501,370,l)
);
}
);
};
layerId = "6242D68C-0A25-4F05-8F2A-2075F7C4A210";
shapes = (
{
ref = T;
},
{
pos = (38,-48);
ref = strokeshortcomb;
scale = (1.264,1.0762);
}
);
width = 608;
},
{
layerId = "3D52442A-254C-4C79-B742-A98FD72DF947";
shapes = (
{
ref = T;
},
{
pos = (28,-20);
ref = strokeshortcomb;
scale = (1.0727,1);
}
);
width = 506;
},
{
layerId = "09D2E10D-7E7D-41B4-9A81-DCD24BEE186F";
shapes = (
{
alignment = -1;
ref = T;
},
{
alignment = -1;
pos = (27,-68);
ref = strokeshortcomb;
scale = (1.1474,1.1292);
}
);
width = 540.875;
}
);
metricLeft = "=T";
metricRight = "=T";
unicode = 358;
},
{
glyphname = U;
lastChange = "2023-07-07 13:47:12 +0000";
layers = (
{
anchors = (
{
name = bottom;
pos = (355,0);
},
{
name = ogonek;
pos = (423,0);
},
{
name = top;
pos = (355,700);
},
{
name = topright;
pos = (635,700);
}
);
layerId = "6242D68C-0A25-4F05-8F2A-2075F7C4A210";
shapes = (
{
closed = 1;
nodes = (
(516,-15,o),
(641,111,o),
(641,269,cs),
(641,632,ls),
(641,677,o),
(608,710,o),
(563,710,cs),
(518,710,o),
(485,677,o),
(485,632,cs),
(485,258,ls),
(485,184,o),
(432,130,o),
(358,130,cs),
(284,130,o),
(231,184,o),
(231,258,cs),
(231,632,ls),
(231,677,o),
(198,710,o),
(153,710,cs),
(108,710,o),
(75,677,o),
(75,632,cs),
(75,269,ls),
(75,111,o),
(200,-15,o),
(358,-15,cs)
);
}
);
width = 716;
},
{
anchors = (
{
name = bottom;
pos = (324,0);
},
{
name = ogonek;
pos = (391,0);
},
{
name = top;
pos = (322,700);
},
{
name = topright;
pos = (602,700);
}
);
layerId = "3D52442A-254C-4C79-B742-A98FD72DF947";
shapes = (
{
closed = 1;
nodes = (
(462,-15,o),
(575,90,o),
(575,234,cs),
(575,687,ls),
(575,700,o),
(565,710,o),
(552,710,cs),
(539,710,o),
(529,700,o),
(529,687,cs),
(529,234,ls),
(529,119,o),
(441,28,o),
(325,28,cs),
(209,28,o),
(121,119,o),
(121,234,cs),
(121,687,ls),
(121,700,o),
(111,710,o),
(98,710,cs),
(85,710,o),
(75,700,o),
(75,687,cs),
(75,234,ls),
(75,90,o),
(187,-15,o),
(325,-15,cs)
);
}
);
width = 650;
},
{
anchors = (
{
name = bottom;
pos = (331,0);
},
{
name = ogonek;
pos = (408,0);
},
{
name = top;
pos = (330,700);
},
{
name = topright;
pos = (624,700);
}
);
layerId = "09D2E10D-7E7D-41B4-9A81-DCD24BEE186F";
shapes = (
{
closed = 1;
nodes = (
(477,-15,o),
(588,95,o),
(588,241,cs),
(588,667,ls),
(588,692,o),
(570,710,o),
(544,710,cs),
(519,710,o),
(501,692,o),
(501,667,cs),
(501,240,ls),
(501,142,o),
(429,66,o),
(331,66,cs),
(233,66,o),
(162,142,o),
(162,240,cs),
(162,667,ls),
(162,692,o),
(144,710,o),
(118,710,cs),
(93,710,o),
(75,692,o),
(75,667,cs),
(75,241,ls),
(75,95,o),
(185,-15,o),
(331,-15,cs)
);
}
);
width = 662.375;
}
);
unicode = 85;
},
{
glyphname = Uhorn;
lastChange = "2023-07-07 13:47:12 +0000";
layers = (
{
anchors = (
{
name = bottom;
pos = (358,0);
},
{
name = top;
pos = (358,700);
}
);
background = {
shapes = (
{
closed = 1;
nodes = (
(638,592,l),
(710,595,o),
(774,634,o),
(774,770,cs),
(774,807,o),
(748,838,o),
(707,838,cs),
(669,838,o),
(644,809,o),
(644,775,cs),
(644,713,o),
(633,710,o),
(562,710,c),
(562,592,l)
);
}
);
};
layerId = "6242D68C-0A25-4F05-8F2A-2075F7C4A210";
shapes = (
{
pos = (0,1);
ref = U;
},
{
closed = 1;
nodes = (
(575,593,l),
(720,601,o),
(742,680,o),
(742,742,cs),
(742,785,o),
(716,816,o),
(675,816,cs),
(637,816,o),
(612,787,o),
(612,753,cs),
(612,721,o),
(588,711,o),
(562,711,c),
(562,593,l)
);
}
);
width = 716;
},
{
anchors = (
{
name = bottom;
pos = (316,0);
},
{
name = top;
pos = (316,700);
}
);
layerId = "3D52442A-254C-4C79-B742-A98FD72DF947";
shapes = (
{
ref = U;
},
{
closed = 1;
nodes = (
(575,668,ls),
(626,668,o),
(672,696,o),
(672,773,cs),
(672,787,o),
(664,798,o),
(650,798,cs),
(638,798,o),
(628,787,o),
(628,773,cs),
(628,717,o),
(599,710,o),
(551,710,c),
(551,668,l)
);
}
);
width = 632;
},
{
anchors = (
{
name = bottom;
pos = (320,0);
},
{
name = top;
pos = (320,700);
}
);
layerId = "09D2E10D-7E7D-41B4-9A81-DCD24BEE186F";
shapes = (
{
alignment = -1;
ref = U;
},
{
closed = 1;
nodes = (
(564,643,ls),
(649,644,o),
(683,695,o),
(683,756,cs),
(683,785,o),
(668,802,o),
(646,802,cs),
(623,802,o),
(609,784,o),
(609,762,cs),
(609,722,o),
(590,710,o),
(545,710,c),
(545,643,l)
);
}
);
width = 639.875;
}
);
metricLeft = "=U";
unicode = 431;
},
{
glyphname = Uogonek;
lastChange = "2023-07-07 13:47:12 +0000";
layers = (
{
layerId = "6242D68C-0A25-4F05-8F2A-2075F7C4A210";
shapes = (
{
ref = U;
},
{
closed = 1;
nodes = (
(461,-215,o),
(505,-198,o),
(530,-172,cs),
(547,-155,o),
(553,-137,o),
(553,-119,cs),
(553,-80,o),
(522,-57,o),
(487,-57,cs),
(467,-57,o),
(450,-65,o),
(436,-77,cs),
(428,-84,o),
(413,-94,o),
(400,-94,cs),
(392,-94,o),
(386,-89,o),
(386,-81,cs),
(386,-48,o),
(488,3,o),
(532,45,c),
(526,75,l),
(408,80,l),
(402,53,ls),
(390,1,o),
(276,0,o),
(276,-108,cs),
(276,-178,o),
(334,-215,o),
(412,-215,cs)
);
}
);
width = 716;
},
{
layerId = "3D52442A-254C-4C79-B742-A98FD72DF947";
shapes = (
{
ref = U;
},
{
closed = 1;
nodes = (
(449,-215,o),
(476,-200,o),
(495,-175,cs),
(499,-169,o),
(503,-164,o),
(503,-155,cs),
(503,-143,o),
(495,-136,o),
(485,-136,cs),
(475,-136,o),
(470,-142,o),
(465,-147,cs),
(446,-166,o),
(433,-174,o),
(414,-174,cs),
(383,-174,o),
(366,-155,o),
(366,-129,cs),
(366,-88,o),
(401,-38,o),
(447,5,cs),
(486,41,l),
(450,56,l),
(404,13,ls),
(373,-16,o),
(320,-62,o),
(320,-128,cs),
(320,-184,o),
(362,-215,o),
(412,-215,cs)
);
}
);
width = 650;
},
{
layerId = "09D2E10D-7E7D-41B4-9A81-DCD24BEE186F";
shapes = (
{
alignment = -1;
ref = U;
},
{
closed = 1;
nodes = (
(438,-216,o),
(472,-207,o),
(498,-177,cs),
(507,-168,o),
(513,-156,o),
(513,-144,cs),
(513,-123,o),
(497,-107,o),
(476,-107,cs),
(463,-107,o),
(454,-113,o),
(446,-121,cs),
(431,-135,o),
(419,-140,o),
(408,-140,cs),
(385,-140,o),
(377,-125,o),
(377,-111,cs),
(377,-71,o),
(439,-12,o),
(483,31,cs),
(506,59,l),
(427,64,l),
(390,27,ls),
(367,-2,o),
(302,-45,o),
(302,-119,cs),
(302,-182,o),
(352,-214,o),
(407,-215,cs)
);
}
);
width = 662.375;
}
);
metricLeft = "=U";
metricRight = "=U";
unicode = 370;
},
{
glyphname = V;
lastChange = "2023-07-07 13:47:12 +0000";
layers = (
{
background = {
shapes = (
{
attr = {
lineCapEnd = "1";
lineCapStart = "1";
strokeWidth = 155;
};
closed = 0;
nodes = (
(77,709,l),
(312,26,l),
(550,709,l)
);
}
);
};
layerId = "6242D68C-0A25-4F05-8F2A-2075F7C4A210";
shapes = (
{
closed = 1;
nodes = (
(355,-15,o),
(378,23,o),
(393,63,cs),
(601,607,ls),
(618,650,o),
(591,710,o),
(527,710,cs),
(491,710,o),
(463,688,o),
(453,658,cs),
(286,167,l),
(339,167,l),
(173,658,ls),
(163,688,o),
(135,710,o),
(99,710,cs),
(35,710,o),
(9,650,o),
(25,607,cs),
(232,63,ls),
(247,23,o),
(269,-15,o),
(312,-15,cs)
);
}
);
width = 626;
},
{
background = {
shapes = (
{
attr = {
strokeWidth = 2;
};
closed = 0;
nodes = (
(49,669,l),
(274,15,l),
(502,669,l)
);
}
);
};
layerId = "3D52442A-254C-4C79-B742-A98FD72DF947";
shapes = (
{
closed = 1;
nodes = (
(280,-15,o),
(289,-8,o),
(292,0,cs),
(518,679,ls),
(523,695,o),
(512,710,o),
(496,710,cs),
(486,710,o),
(477,704,o),
(474,695,cs),
(265,55,l),
(275,55,l),
(65,695,ls),
(62,704,o),
(53,710,o),
(43,710,cs),
(26,710,o),
(16,695,o),
(21,679,cs),
(248,0,ls),
(251,-8,o),
(260,-15,o),
(270,-15,cs)
);
}
);
width = 539;
},
{
layerId = "09D2E10D-7E7D-41B4-9A81-DCD24BEE186F";
shapes = (
{
closed = 1;
nodes = (
(309,-15,o),
(326,3,o),
(336,29,cs),
(553,654,ls),
(563,682,o),
(542,710,o),
(512,710,cs),
(494,710,o),
(477,698,o),
(472,682,cs),
(273,93,l),
(302,93,l),
(103,682,ls),
(98,698,o),
(82,710,o),
(64,710,cs),
(31,710,o),
(14,679,o),
(23,654,cs),
(240,29,ls),
(250,3,o),
(266,-15,o),
(287,-15,cs)
);
}
);
width = 575;
}
);
metricLeft = A;
metricRight = A;
unicode = 86;
},
{
glyphname = W;
lastChange = "2023-07-07 13:47:12 +0000";
layers = (
{
anchors = (
{
name = bottom;
pos = (423,-2);
},
{
name = top;
pos = (415,700);
}
);
background = {
shapes = (
{
closed = 1;
nodes = (
(288,-15,o),
(311,23,o),
(326,63,cs),
(534,607,ls),
(551,650,o),
(524,710,o),
(460,710,cs),
(424,710,o),
(396,688,o),
(386,658,cs),
(219,167,l),
(272,167,l),
(106,658,ls),
(96,688,o),
(68,710,o),
(32,710,cs),
(-32,710,o),
(-58,650,o),
(-42,607,cs),
(165,63,ls),
(180,23,o),
(202,-15,o),
(245,-15,cs)
);
}
);
};
layerId = "6242D68C-0A25-4F05-8F2A-2075F7C4A210";
shapes = (
{
closed = 1;
nodes = (
(288,-10,o),
(315,28,o),
(326,68,cs),
(427,443,l),
(403,443,l),
(504,68,ls),
(515,28,o),
(542,-10,o),
(585,-10,cs),
(628,-10,o),
(655,28,o),
(665,68,cs),
(805,607,ls),
(807,615,o),
(810,626,o),
(810,635,cs),
(810,677,o),
(776,710,o),
(731,710,cs),
(692,710,o),
(660,688,o),
(654,658,cs),
(553,171,l),
(603,173,l),
(489,656,ls),
(482,687,o),
(451,710,o),
(415,710,cs),
(379,710,o),
(348,687,o),
(341,656,cs),
(227,173,l),
(277,171,l),
(176,658,ls),
(170,688,o),
(138,710,o),
(99,710,cs),
(54,710,o),
(20,677,o),
(20,635,cs),
(20,626,o),
(23,615,o),
(25,607,cs),
(165,68,ls),
(175,28,o),
(202,-10,o),
(245,-10,cs)
);
}
);
width = 830;
},
{
anchors = (
{
name = bottom;
pos = (430,0);
},
{
name = top;
pos = (424,700);
}
);
background = {
shapes = (
{
attr = {
strokeWidth = 2;
};
closed = 0;
nodes = (
(35,702,l),
(244,0,l),
(424,701,l)
);
},
{
attr = {
strokeWidth = 2;
};
closed = 0;
nodes = (
(424,700,l),
(625,0,l),
(806,700,l)
);
},
{
closed = 1;
nodes = (
(242,86,l),
(63,688,ls),
(60,698,o),
(52,705,o),
(41,705,cs),
(26,705,o),
(15,691,o),
(19,676,cs),
(246,-86,l),
(441,676,ls),
(445,690,o),
(434,704,o),
(419,704,cs),
(408,704,o),
(399,696,o),
(396,686,cs)
);
},
{
closed = 1;
nodes = (
(624,87,l),
(452,686,ls),
(449,696,o),
(440,703,o),
(430,703,cs),
(415,703,o),
(404,689,o),
(407,674,c),
(626,-87,l),
(823,675,ls),
(827,689,o),
(816,703,o),
(801,703,cs),
(790,703,o),
(781,695,o),
(778,685,cs)
);
}
);
};
layerId = "3D52442A-254C-4C79-B742-A98FD72DF947";
shapes = (
{
closed = 1;
nodes = (
(253,-10,o),
(263,-3,o),
(265,5,cs),
(428,625,l),
(418,625,l),
(581,5,ls),
(583,-3,o),
(593,-10,o),
(603,-10,cs),
(613,-10,o),
(623,-3,o),
(625,5,cs),
(825,679,ls),
(827,685,o),
(827,691,o),
(825,696,cs),
(822,704,o),
(814,710,o),
(803,710,cs),
(793,710,o),
(784,704,o),
(781,695,cs),
(597,59,l),
(610,58,l),
(445,695,ls),
(443,704,o),
(434,710,o),
(423,710,cs),
(412,710,o),
(403,704,o),
(401,695,cs),
(236,57,l),
(249,59,l),
(65,695,ls),
(62,704,o),
(53,710,o),
(43,710,cs),
(32,710,o),
(24,704,o),
(21,696,cs),
(19,691,o),
(19,685,o),
(21,679,cs),
(221,5,ls),
(223,-3,o),
(233,-10,o),
(243,-10,cs)
);
}
);
width = 846;
},
{
anchors = (
{
name = bottom;
pos = (418,-1);
},
{
name = top;
pos = (415,700);
}
);
layerId = "09D2E10D-7E7D-41B4-9A81-DCD24BEE186F";
shapes = (
{
closed = 1;
nodes = (
(250,-13,o),
(269,5,o),
(277,31,cs),
(423,552,l),
(404,552,l),
(553,31,ls),
(561,5,o),
(580,-13,o),
(601,-13,cs),
(622,-13,o),
(643,5,o),
(648,31,cs),
(806,657,ls),
(808,662,o),
(809,668,o),
(809,674,cs),
(808,696,o),
(789,713,o),
(766,713,cs),
(747,713,o),
(729,701,o),
(726,685,cs),
(585,112,l),
(609,112,l),
(456,679,ls),
(451,699,o),
(433,713,o),
(414,713,cs),
(395,713,o),
(378,699,o),
(373,679,cs),
(219,112,l),
(242,112,l),
(103,685,ls),
(100,701,o),
(82,713,o),
(64,713,cs),
(40,713,o),
(21,696,o),
(20,674,cs),
(20,668,o),
(21,662,o),
(23,657,cs),
(181,31,ls),
(187,5,o),
(208,-13,o),
(229,-13,cs)
);
}
);
width = 828.75;
}
);
metricLeft = A;
metricRight = A;
unicode = 87;
},
{
glyphname = X;
lastChange = "2023-07-07 13:47:12 +0000";
layers = (
{
anchors = (
{
name = bottom;
pos = (306,0);
},
{
name = top;
pos = (306,700);
}
);
background = {
shapes = (
{
attr = {
strokeWidth = 2;
};
closed = 0;
nodes = (
(97,640,l),
(505,60,l)
);
},
{
attr = {
strokeWidth = 2;
};
closed = 0;
nodes = (
(504,642,l),
(312,366,l)
);
},
{
attr = {
strokeWidth = 2;
};
closed = 0;
nodes = (
(302,366,l),
(90,60,l)
);
}
);
};
guides = (
{
pos = (287,357);
}
);
layerId = "6242D68C-0A25-4F05-8F2A-2075F7C4A210";
shapes = (
{
closed = 1;
nodes = (
(546,-10,o),
(581,25,o),
(581,68,cs),
(581,85,o),
(575,102,o),
(566,115,cs),
(175,678,ls),
(161,698,o),
(137,711,o),
(111,711,cs),
(68,711,o),
(33,676,o),
(33,633,cs),
(33,616,o),
(38,601,o),
(47,588,cs),
(440,21,ls),
(453,2,o),
(477,-10,o),
(503,-10,cs)
);
},
{
closed = 1;
nodes = (
(575,585,ls),
(585,598,o),
(590,615,o),
(590,632,cs),
(590,675,o),
(555,710,o),
(512,710,cs),
(486,710,o),
(463,698,o),
(449,679,cs),
(222,372,l),
(332,263,l)
);
},
{
closed = 1;
nodes = (
(124,-10,o),
(148,2,o),
(162,23,cs),
(345,286,l),
(232,392,l),
(34,113,ls),
(25,100,o),
(20,85,o),
(20,68,cs),
(20,25,o),
(55,-10,o),
(98,-10,cs)
);
}
);
width = 610;
},
{
anchors = (
{
name = bottom;
pos = (265,0);
},
{
name = top;
pos = (265,700);
}
);
layerId = "3D52442A-254C-4C79-B742-A98FD72DF947";
shapes = (
{
closed = 1;
nodes = (
(510,-10,o),
(520,0,o),
(520,13,cs),
(520,18,o),
(518,23,o),
(516,26,cs),
(75,701,ls,{
name = "💚";
}),
(71,707,o),
(64,710,o),
(56,710,cs),
(43,710,o),
(33,700,o),
(33,687,cs),
(33,682,o),
(35,677,o),
(37,674,cs),
(478,-1,ls,{
name = "💚";
}),
(482,-7,o),
(489,-10,o),
(497,-10,cs)
);
},
{
closed = 1;
nodes = (
(503,674,ls,{
name = "💚";
}),
(505,677,o),
(507,682,o),
(507,687,cs),
(507,700,o),
(497,710,o),
(484,710,cs),
(476,710,o),
(469,706,o),
(465,700,cs),
(256,368,l),
(294,342,l)
);
},
{
closed = 1;
nodes = (
(51,-10,o),
(58,-6,o),
(62,0,cs),
(286,339,l),
(253,372,l),
(24,26,ls,{
name = "💚";
}),
(22,23,o),
(20,18,o),
(20,13,cs),
(20,0,o),
(30,-10,o),
(43,-10,cs)
);
}
);
width = 540;
},
{
anchors = (
{
name = bottom;
pos = (285,0);
},
{
name = top;
pos = (285,700);
}
);
layerId = "09D2E10D-7E7D-41B4-9A81-DCD24BEE186F";
shapes = (
{
closed = 1;
nodes = (
(531,-10,o),
(549,8,o),
(549,33,cs),
(549,41,o),
(546,50,o),
(542,57,cs),
(105,692,ls,{
name = "💚";
}),
(98,703,o),
(85,710,o),
(70,710,cs),
(47,710,o),
(29,691,o),
(29,668,cs),
(29,659,o),
(32,650,o),
(36,643,cs),
(473,7,ls,{
name = "💚";
}),
(480,-3,o),
(493,-10,o),
(507,-10,cs)
);
},
{
closed = 1;
nodes = (
(536,643,ls,{
name = "💚";
}),
(540,650,o),
(544,659,o),
(544,668,cs),
(544,692,o),
(526,710,o),
(502,710,cs),
(488,710,o),
(475,703,o),
(467,693,cs),
(255,381,l),
(311,316,l)
);
},
{
closed = 1;
nodes = (
(69,-10,o),
(82,-3,o),
(90,8,cs),
(303,320,l),
(247,386,l),
(20,56,ls,{
name = "💚";
}),
(16,50,o),
(13,41,o),
(13,33,cs),
(13,8,o),
(32,-10,o),
(55,-10,cs)
);
}
);
width = 561.75;
}
);
unicode = 88;
},
{
glyphname = Y;
lastChange = "2023-07-07 13:47:12 +0000";
layers = (
{
anchors = (
{
name = bottom;
pos = (277,0);
},
{
name = top;
pos = (277,700);
},
{
name = topleft;
pos = (-3,700);
}
);
background = {
shapes = (
{
attr = {
strokeWidth = 2;
};
closed = 0;
nodes = (
(495,640,l),
(280,351,l),
(78,640,l)
);
},
{
attr = {
strokeWidth = 2;
};
closed = 0;
nodes = (
(280,359,l),
(280,60,l)
);
}
);
};
layerId = "6242D68C-0A25-4F05-8F2A-2075F7C4A210";
shapes = (
{
closed = 1;
nodes = (
(323,-10,o),
(358,25,o),
(358,68,cs),
(358,317,l),
(548,585,ls),
(557,598,o),
(563,615,o),
(563,632,cs),
(563,675,o),
(528,710,o),
(485,710,cs),
(459,710,o),
(436,698,o),
(422,679,cs),
(242,422,l),
(321,421,l),
(152,677,ls),
(139,697,o),
(114,710,o),
(88,710,cs),
(45,710,o),
(10,675,o),
(10,632,cs),
(10,615,o),
(15,600,o),
(24,587,cs),
(202,319,l),
(202,68,ls),
(202,25,o),
(237,-10,o),
(280,-10,cs)
);
}
);
width = 573;
},
{
anchors = (
{
name = bottom;
pos = (255,0);
},
{
name = top;
pos = (262,701);
},
{
name = topleft;
pos = (-30,700);
}
);
background = {
shapes = (
{
attr = {
strokeWidth = 2;
};
closed = 0;
nodes = (
(515,700,l),
(255,351,l),
(11,700,l)
);
},
{
attr = {
strokeWidth = 2;
};
closed = 0;
nodes = (
(255,361,l),
(255,0,l)
);
}
);
};
layerId = "3D52442A-254C-4C79-B742-A98FD72DF947";
shapes = (
{
closed = 1;
nodes = (
(268,-10,o),
(278,0,o),
(278,13,cs),
(278,344,l),
(511,669,ls),
(514,673,o),
(516,678,o),
(516,683,cs),
(516,696,o),
(505,706,o),
(493,706,cs),
(485,706,o),
(478,703,o),
(474,697,cs),
(244,368,l),
(268,367,l),
(52,698,ls),
(48,704,o),
(41,708,o),
(33,708,cs),
(20,708,o),
(10,698,o),
(10,685,cs),
(10,680,o),
(12,675,o),
(14,672,cs,{
name = "💚";
}),
(232,344,l),
(232,13,ls),
(232,0,o),
(242,-10,o),
(255,-10,cs)
);
}
);
width = 526;
},
{
anchors = (
{
name = bottom;
pos = (263,0);
},
{
name = top;
pos = (268,700);
},
{
name = topleft;
pos = (-13,700);
}
);
layerId = "09D2E10D-7E7D-41B4-9A81-DCD24BEE186F";
shapes = (
{
closed = 1;
nodes = (
(288,-10,o),
(307,9,o),
(307,33,cs),
(307,337,l),
(522,641,ls),
(528,648,o),
(530,656,o),
(530,666,cs),
(530,689,o),
(512,708,o),
(489,708,cs),
(474,708,o),
(462,702,o),
(455,691,cs),
(239,386,l),
(289,385,l),
(87,691,ls),
(80,702,o),
(67,709,o),
(53,709,cs),
(29,709,o),
(10,690,o),
(10,666,cs),
(10,658,o),
(14,649,o),
(18,642,cs,{
name = "💚";
}),
(220,338,l),
(220,33,ls),
(220,9,o),
(239,-10,o),
(263,-10,cs)
);
}
);
width = 540.25;
}
);
unicode = 89;
},
{
glyphname = Z;
kernRight = Z;
lastChange = "2023-07-07 13:47:12 +0000";
layers = (
{
anchors = (
{
name = bottom;
pos = (309,0);
},
{
name = center;
pos = (299,360);
},
{
name = top;
pos = (309,700);
}
);
background = {
shapes = (
{
attr = {
strokeWidth = 2;
};
closed = 0;
nodes = (
(124,640,l),
(485,640,l),
(110,61,l),
(485,61,l)
);
},
{
closed = 1;
nodes = (
(509,0,ls),
(550,0,o),
(584,34,o),
(584,75,cs),
(584,116,o),
(550,150,o),
(509,150,cs),
(190,150,l),
(229,93,l),
(539,561,ls),
(571,609,o),
(575,622,o),
(575,641,cs),
(575,681,o),
(547,700,o),
(500,700,cs),
(111,700,ls),
(70,700,o),
(36,666,o),
(36,625,cs),
(36,584,o),
(70,550,o),
(111,550,cs),
(424,550,l),
(392,607,l),
(71,139,ls),
(38,91,o),
(35,78,o),
(35,59,cs),
(35,19,o),
(63,0,o),
(114,0,cs)
);
}
);
};
layerId = "6242D68C-0A25-4F05-8F2A-2075F7C4A210";
shapes = (
{
closed = 1;
nodes = (
(505,0,ls),
(544,0,o),
(575,31,o),
(575,70,cs),
(575,109,o),
(544,140,o),
(505,140,cs),
(190,140,l),
(222,93,l),
(539,561,ls),
(565,600,o),
(575,619,o),
(575,636,cs),
(575,673,o),
(546,700,o),
(505,700,cs),
(110,700,ls),
(71,700,o),
(40,669,o),
(40,630,cs),
(40,591,o),
(71,560,o),
(110,560,cs),
(505,560,l),
(392,607,l),
(71,139,ls),
(38,91,o),
(35,86,o),
(35,66,cs),
(35,31,o),
(66,0,o),
(105,0,cs)
);
}
);
width = 600;
},
{
anchors = (
{
name = bottom;
pos = (278,0);
},
{
name = center;
pos = (278,350);
},
{
name = top;
pos = (278,700);
}
);
background = {
shapes = (
{
attr = {
strokeWidth = 2;
};
closed = 0;
nodes = (
(59,699,l),
(482,699,l),
(42,19,l),
(482,19,l)
);
}
);
};
layerId = "3D52442A-254C-4C79-B742-A98FD72DF947";
shapes = (
{
closed = 1;
nodes = (
(467,0,ls),
(480,0,o),
(490,10,o),
(490,23,cs),
(490,35,o),
(480,45,o),
(467,45,cs),
(78,45,l),
(87,29,l),
(490,662,ls),
(493,667,o),
(494,673,o),
(494,677,cs),
(494,690,o),
(483,700,o),
(468,700,cs),
(89,700,ls),
(76,700,o),
(66,690,o),
(66,677,cs),
(66,665,o),
(76,655,o),
(89,655,cs),
(451,655,l),
(440,671,l),
(39,38,ls),
(36,33,o),
(35,27,o),
(35,23,cs),
(35,10,o),
(46,0,o),
(60,0,cs)
);
}
);
width = 525;
},
{
anchors = (
{
name = bottom;
pos = (284,0);
},
{
name = center;
pos = (282,352);
},
{
name = top;
pos = (284,700);
}
);
layerId = "09D2E10D-7E7D-41B4-9A81-DCD24BEE186F";
shapes = (
{
closed = 1;
nodes = (
(486,0,ls),
(507,0,o),
(525,18,o),
(525,40,cs),
(525,61,o),
(507,80,o),
(486,80,cs),
(96,80,l),
(128,47,l),
(506,616,ls),
(519,636,o),
(525,650,o),
(525,661,cs),
(525,683,o),
(507,700,o),
(484,700,cs),
(90,700,ls),
(68,700,o),
(50,683,o),
(50,661,cs),
(50,639,o),
(68,621,o),
(90,621,cs),
(480,621,l),
(428,652,l),
(53,84,ls),
(39,63,o),
(35,51,o),
(35,39,cs),
(35,18,o),
(54,0,o),
(75,0,cs)
);
}
);
width = 558.1875;
}
);
unicode = 90;
},
{
glyphname = a;
lastChange = "2023-07-07 13:47:12 +0000";
layers = (
{
anchors = (
{
name = bottom;
pos = (298,0);
},
{
name = ogonek;
pos = (529,143);
},
{
name = top;
pos = (290,513);
}
);
background = {
shapes = (
{
closed = 1;
nodes = (
(312,-15,o),
(376,8,o),
(405,69,c),
(408,69,l),
(408,67,ls,{
name = "💚";
}),
(408,14,o),
(439,-9,o),
(485,-10,cs),
(539,-11,o),
(570,21,o),
(570,61,cs),
(570,97,o),
(545,117,o),
(522,126,cs),
(509,131,o),
(506,135,o),
(506,152,cs),
(506,333,ls),
(506,456,o),
(425,529,o),
(301,529,cs),
(207,529,o),
(78,488,o),
(78,405,cs),
(78,364,o),
(110,341,o),
(147,341,cs),
(175,341,o),
(200,349,o),
(214,366,cs),
(225,380,o),
(247,402,o),
(289,402,cs),
(316,402,o),
(358,394,o),
(358,366,cs),
(358,333,o),
(324,327,o),
(243,316,cs),
(95,296,o),
(37,233,o),
(37,148,cs),
(37,36,o),
(137,-15,o),
(244,-15,cs)
);
}
);
};
layerId = "6242D68C-0A25-4F05-8F2A-2075F7C4A210";
shapes = (
{
closed = 1;
nodes = (
(313,-15,o),
(376,8,o),
(405,69,c),
(408,69,l),
(408,67,ls,{
name = "💚";
}),
(408,14,o),
(439,-9,o),
(485,-10,cs),
(539,-11,o),
(570,21,o),
(570,61,cs),
(570,97,o),
(545,117,o),
(522,126,cs),
(509,131,o),
(506,135,o),
(506,152,cs),
(506,333,ls),
(506,456,o),
(425,529,o),
(301,529,cs),
(207,529,o),
(78,488,o),
(78,405,cs),
(78,368,o),
(104,341,o),
(152,341,cs),
(191,341,o),
(206,358,o),
(221,373,cs),
(239,391,o),
(253,402,o),
(288,402,cs),
(316,402,o),
(353,395,o),
(353,364,cs),
(353,328,o),
(301,325,o),
(243,316,cs),
(143,300,o),
(40,270,o),
(40,149,cs),
(40,27,o),
(140,-15,o),
(242,-15,cs)
);
},
{
closed = 1;
nodes = (
(228,113,o),
(191,126,o),
(191,158,cs),
(191,188,o),
(225,197,o),
(259,207,cs),
(297,218,o),
(326,220,o),
(350,234,cs),
(355,237,o),
(357,237,o),
(357,233,cs),
(357,208,ls),
(357,147,o),
(309,113,o),
(256,113,cs)
);
}
);
width = 600;
},
{
anchors = (
{
name = bottom;
pos = (242,0);
},
{
name = ogonek;
pos = (503,98);
},
{
name = top;
pos = (251,515);
}
);
layerId = "3D52442A-254C-4C79-B742-A98FD72DF947";
shapes = (
{
closed = 1;
nodes = (
(294,-15,o),
(350,13,o),
(388,78,c),
(391,78,l),
(391,40,ls),
(391,13,o),
(400,-10,o),
(439,-10,cs),
(464,-10,o),
(476,-1,o),
(476,14,cs),
(476,28,o),
(466,36,o),
(452,36,cs),
(437,36,o),
(434,43,o),
(434,63,cs),
(434,350,ls),
(434,464,o),
(380,530,o),
(258,530,cs),
(118,530,o),
(75,444,o),
(71,410,cs),
(69,393,o),
(76,384,o),
(90,384,cs),
(103,384,o),
(111,392,o),
(116,407,cs),
(129,446,o),
(164,487,o),
(253,487,cs),
(353,487,o),
(385,435,o),
(385,384,cs),
(385,323,o),
(337,295,o),
(228,288,cs),
(87,279,o),
(35,215,o),
(35,134,cs),
(35,48,o),
(94,-15,o),
(213,-15,cs)
);
},
{
closed = 1;
nodes = (
(117,28,o),
(81,76,o),
(81,134,cs),
(81,193,o),
(118,239,o),
(226,247,cs),
(292,252,o),
(344,264,o),
(381,289,cs),
(387,293,o),
(389,294,o),
(389,291,cs),
(389,197,ls),
(389,102,o),
(318,28,o),
(207,28,cs)
);
}
);
width = 506;
},
{
anchors = (
{
name = bottom;
pos = (265,0);
},
{
name = ogonek;
pos = (492,104);
},
{
name = top;
pos = (268,515);
}
);
layerId = "09D2E10D-7E7D-41B4-9A81-DCD24BEE186F";
shapes = (
{
closed = 1;
nodes = (
(300,-15,o),
(354,18,o),
(387,68,c),
(390,68,l),
(390,51,ls),
(390,15,o),
(412,-10,o),
(453,-10,cs),
(486,-10,o),
(505,8,o),
(505,32,cs),
(505,54,o),
(489,71,o),
(471,72,cs),
(460,73,o),
(458,79,o),
(458,94,cs),
(458,339,ls),
(458,446,o),
(410,530,o),
(275,530,cs),
(148,530,o),
(79,454,o),
(78,406,cs),
(77,383,o),
(91,366,o),
(116,366,cs),
(134,366,o),
(148,376,o),
(157,393,cs),
(170,418,o),
(201,452,o),
(270,452,cs),
(343,452,o),
(373,414,o),
(373,373,cs),
(373,317,o),
(315,311,o),
(236,302,cs),
(95,286,o),
(39,221,o),
(39,140,cs),
(39,51,o),
(108,-15,o),
(221,-15,cs)
);
},
{
closed = 1;
nodes = (
(152,63,o),
(123,103,o),
(123,143,cs),
(123,186,o),
(156,217,o),
(239,230,cs),
(280,236,o),
(342,245,o),
(371,265,cs),
(375,270,o),
(376,268,o),
(376,266,cs),
(376,200,ls),
(376,123,o),
(308,63,o),
(222,63,cs)
);
}
);
width = 538.25;
}
);
metricLeft = o;
unicode = 97;
},
{
glyphname = a.ss01;
lastChange = "2023-07-07 13:47:12 +0000";
layers = (
{
anchors = (
{
name = bottom;
pos = (315,0);
},
{
name = ogonek;
pos = (547,0);
},
{
name = top;
pos = (301,515);
}
);
layerId = "6242D68C-0A25-4F05-8F2A-2075F7C4A210";
shapes = (
{
closed = 1;
nodes = (
(346,-15,o),
(408,23,o),
(428,89,c),
(433,89,l),
(433,87,ls),
(433,21,o),
(466,-10,o),
(536,-10,cs),
(592,-10,o),
(624,13,o),
(624,53,cs),
(624,82,o),
(609,110,o),
(579,110,cs),
(562,110,o),
(559,133,o),
(559,177,cs),
(559,445,ls),
(559,488,o),
(528,520,o),
(485,520,cs),
(445,520,o),
(411,499,o),
(411,451,cs),
(411,442,l),
(431,442,l),
(395,500,o),
(343,530,o),
(272,530,cs),
(117,530,o),
(40,387,o),
(40,248,cs),
(40,114,o),
(98,-15,o),
(260,-15,cs)
);
},
{
closed = 1;
nodes = (
(234,122,o),
(195,166,o),
(195,256,cs),
(195,346,o),
(234,390,o),
(303,390,cs),
(369,390,o),
(410,348,o),
(410,259,cs),
(410,164,o),
(369,122,o),
(303,122,cs)
);
}
);
width = 654;
},
{
anchors = (
{
name = bottom;
pos = (254,0);
},
{
name = ogonek;
pos = (477,10);
},
{
name = top;
pos = (254,515);
}
);
layerId = "3D52442A-254C-4C79-B742-A98FD72DF947";
shapes = (
{
closed = 1;
nodes = (
(321,-15,o),
(376,18,o),
(413,73,c),
(415,73,l),
(415,42,ls),
(415,16,o),
(424,-8,o),
(462,-8,cs),
(488,-8,o),
(500,1,o),
(500,16,cs),
(500,30,o),
(490,38,o),
(476,38,cs),
(461,38,o),
(458,45,o),
(458,65,cs),
(458,493,ls),
(458,509,o),
(449,520,o),
(436,520,cs),
(423,520,o),
(413,509,o),
(413,493,cs),
(413,420,l),
(415,433,l),
(388,488,o),
(318,530,o),
(251,530,cs),
(122,530,o),
(35,408,o),
(35,258,cs),
(35,107,o),
(105,-15,o),
(247,-15,cs)
);
},
{
closed = 1;
nodes = (
(141,29,o),
(80,113,o),
(80,258,cs),
(80,401,o),
(159,487,o),
(254,487,cs),
(344,487,o),
(413,394,o),
(413,258,cs),
(413,113,o),
(349,31,o),
(245,30,cs)
);
}
);
width = 530;
},
{
anchors = (
{
name = bottom;
pos = (277,0);
},
{
name = ogonek;
pos = (507,3);
},
{
name = top;
pos = (274,515);
}
);
layerId = "09D2E10D-7E7D-41B4-9A81-DCD24BEE186F";
shapes = (
{
closed = 1;
nodes = (
(329,-15,o),
(381,10,o),
(424,67,c),
(429,67,l),
(429,55,ls),
(429,17,o),
(448,-6,o),
(492,-6,cs),
(527,-6,o),
(546,9,o),
(546,34,cs),
(546,55,o),
(533,71,o),
(513,71,cs),
(502,71,o),
(501,80,o),
(501,107,cs),
(501,477,ls),
(501,502,o),
(483,520,o),
(459,520,cs),
(436,520,o),
(417,503,o),
(417,478,cs),
(417,433,l),
(429,436,l),
(395,490,o),
(341,530,o),
(264,530,cs),
(121,530,o),
(39,398,o),
(39,250,cs),
(39,94,o),
(115,-15,o),
(261,-15,cs)
);
},
{
closed = 1;
nodes = (
(179,64,o),
(124,130,o),
(124,251,cs),
(124,375,o),
(182,452,o),
(274,452,cs),
(358,451,o),
(417,376,o),
(417,254,cs),
(417,110,o),
(345,64,o),
(272,64,cs)
);
}
);
width = 578.5625;
}
);
metricLeft = "=o";
metricRight = "=a";
},
{
glyphname = aogonek;
lastChange = "2023-07-07 13:47:12 +0000";
layers = (
{
background = {
shapes = (
{
closed = 1;
nodes = (
(-285,-15,o),
(-221,8,o),
(-192,69,c),
(-189,69,l),
(-189,67,ls,{
name = "💚";
}),
(-189,19,o),
(-175,-8,o),
(-142,-8,cs),
(-108,-8,o),
(-91,19,o),
(-91,74,cs),
(-91,333,ls),
(-91,456,o),
(-172,529,o),
(-296,529,cs),
(-390,529,o),
(-519,488,o),
(-519,405,cs),
(-519,364,o),
(-487,341,o),
(-450,341,cs),
(-422,341,o),
(-397,349,o),
(-383,366,cs),
(-372,380,o),
(-350,402,o),
(-308,402,cs),
(-281,402,o),
(-239,394,o),
(-239,366,cs),
(-239,333,o),
(-273,321,o),
(-354,316,cs),
(-507,307,o),
(-560,233,o),
(-560,148,cs),
(-560,36,o),
(-460,-15,o),
(-353,-15,cs)
);
},
{
closed = 1;
nodes = (
(-376,113,o),
(-413,126,o),
(-413,158,cs),
(-413,179,o),
(-397,195,o),
(-338,207,cs),
(-280,219,o),
(-262,224,o),
(-245,234,cs),
(-240,237,o),
(-238,237,o),
(-238,233,cs),
(-238,208,ls),
(-238,147,o),
(-286,113,o),
(-341,113,cs)
);
},
{
closed = 1;
nodes = (
(-199,-87,o),
(-221,-101,o),
(-231,-91,cs),
(-245,-77,o),
(-218,-62,o),
(-199,-53,cs),
(-182,-45,o),
(-91,-14,o),
(-91,51,cs),
(-91,105,l),
(-189,105,l),
(-189,53,l),
(-189,0,o),
(-346,0,o),
(-346,-108,cs),
(-346,-178,o),
(-288,-218,o),
(-210,-218,cs),
(-161,-218,o),
(-117,-201,o),
(-87,-167,cs),
(-76,-154,o),
(-69,-137,o),
(-69,-119,cs),
(-69,-80,o),
(-102,-57,o),
(-131,-57,cs),
(-157,-57,o),
(-171,-66,o),
(-186,-77,cs)
);
},
{
closed = 1;
nodes = (
(315,-15,o),
(379,8,o),
(408,69,c),
(411,69,l),
(411,67,ls,{
name = "💚";
}),
(411,19,o),
(425,-8,o),
(458,-8,cs),
(492,-8,o),
(509,19,o),
(509,74,cs),
(509,333,ls),
(509,456,o),
(428,529,o),
(304,529,cs),
(210,529,o),
(81,488,o),
(81,405,cs),
(81,364,o),
(113,341,o),
(150,341,cs),
(178,341,o),
(203,349,o),
(217,366,cs),
(228,380,o),
(250,402,o),
(292,402,cs),
(319,402,o),
(361,394,o),
(361,366,cs),
(361,333,o),
(327,321,o),
(246,316,cs),
(93,307,o),
(40,233,o),
(40,148,cs),
(40,36,o),
(140,-15,o),
(247,-15,cs)
);
},
{
closed = 1;
nodes = (
(224,113,o),
(187,126,o),
(187,158,cs),
(187,179,o),
(203,195,o),
(262,207,cs),
(320,219,o),
(338,224,o),
(355,234,cs),
(360,237,o),
(362,237,o),
(362,233,cs),
(362,208,ls),
(362,147,o),
(314,113,o),
(259,113,cs)
);
},
{
closed = 1;
nodes = (
(401,-87,o),
(379,-101,o),
(369,-91,cs),
(355,-77,o),
(382,-62,o),
(401,-53,cs),
(418,-45,o),
(509,-14,o),
(509,51,cs),
(509,105,l),
(411,105,l),
(411,53,l),
(411,0,o),
(254,0,o),
(254,-108,cs),
(254,-178,o),
(312,-218,o),
(390,-218,cs),
(439,-218,o),
(483,-201,o),
(513,-167,cs),
(524,-154,o),
(531,-137,o),
(531,-119,cs),
(531,-80,o),
(498,-57,o),
(469,-57,cs),
(443,-57,o),
(429,-66,o),
(414,-77,cs)
);
}
);
};
layerId = "6242D68C-0A25-4F05-8F2A-2075F7C4A210";
shapes = (
{
closed = 1;
nodes = (
(509,70,l),
(509,333,ls),
(509,456,o),
(428,529,o),
(304,529,cs),
(210,529,o),
(81,488,o),
(81,405,cs),
(81,364,o),
(113,341,o),
(150,341,cs),
(178,341,o),
(203,349,o),
(217,366,cs),
(228,380,o),
(250,402,o),
(292,402,cs),
(319,402,o),
(361,394,o),
(361,366,cs),
(361,333,o),
(327,321,o),
(246,316,cs),
(93,307,o),
(40,233,o),
(40,148,cs),
(40,36,o),
(146,-15,o),
(233,-15,cs),
(321,-15,o),
(369,31,o),
(408,79,c),
(411,79,l),
(411,70,l)
);
},
{
closed = 1;
nodes = (
(224,113,o),
(187,126,o),
(187,158,cs),
(187,179,o),
(203,195,o),
(262,207,cs),
(320,219,o),
(338,224,o),
(355,234,cs),
(360,237,o),
(362,237,o),
(362,233,cs),
(362,208,ls),
(362,147,o),
(314,113,o),
(259,113,cs)
);
},
{
closed = 1;
nodes = (
(453,-215,o),
(531,-181,o),
(531,-120,cs),
(531,-80,o),
(498,-57,o),
(464,-57,cs),
(426,-57,o),
(401,-94,o),
(379,-94,cs),
(371,-94,o),
(365,-89,o),
(365,-82,cs),
(365,-53,o),
(509,-33,o),
(509,51,cs),
(509,90,l),
(411,90,l),
(411,56,ls),
(411,-4,o),
(254,0,o),
(254,-111,cs),
(254,-178,o),
(312,-215,o),
(384,-215,cs)
);
}
);
width = 561;
},
{
layerId = "3D52442A-254C-4C79-B742-A98FD72DF947";
shapes = (
{
closed = 1;
nodes = (
(434,44,l),
(434,350,ls),
(434,463,o),
(382,530,o),
(254,530,cs),
(128,530,o),
(80,456,o),
(71,410,cs),
(68,395,o),
(76,384,o),
(89,384,cs),
(103,384,o),
(111,392,o),
(116,407,cs),
(129,446,o),
(164,486,o),
(254,486,cs),
(353,486,o),
(385,433,o),
(385,375,cs),
(385,323,o),
(334,289,o),
(223,288,cs),
(87,287,o),
(35,215,o),
(35,132,cs),
(35,48,o),
(94,-15,o),
(203,-15,cs),
(294,-15,o),
(350,13,o),
(388,78,c),
(391,78,l),
(391,44,l)
);
},
{
closed = 1;
nodes = (
(117,29,o),
(80,76,o),
(80,136,cs),
(80,193,o),
(118,248,o),
(220,247,cs),
(292,246,o),
(345,264,o),
(382,290,cs),
(387,293,o),
(389,294,o),
(389,291,cs),
(389,197,ls),
(389,102,o),
(318,29,o),
(211,29,cs)
);
},
{
closed = 1;
nodes = (
(403,-215,o),
(450,-184,o),
(450,-155,cs),
(450,-143,o),
(442,-136,o),
(432,-136,cs),
(413,-136,o),
(410,-174,o),
(361,-174,cs),
(330,-174,o),
(313,-155,o),
(313,-130,cs),
(313,-62,o),
(434,-60,o),
(434,5,cs),
(434,64,l),
(391,64,l),
(391,13,ls),
(391,-28,o),
(269,-39,o),
(269,-131,cs),
(269,-184,o),
(309,-215,o),
(359,-215,cs)
);
}
);
width = 480;
},
{
layerId = "09D2E10D-7E7D-41B4-9A81-DCD24BEE186F";
shapes = (
{
closed = 1;
nodes = (
(460,57,l),
(460,339,ls),
(460,446,o),
(411,530,o),
(271,530,cs),
(160,530,o),
(91,466,o),
(80,417,cs),
(73,392,o),
(87,367,o),
(116,367,cs),
(136,367,o),
(148,376,o),
(157,393,cs),
(170,418,o),
(201,452,o),
(268,452,cs),
(343,452,o),
(373,414,o),
(373,370,cs),
(373,325,o),
(331,304,o),
(235,302,cs),
(98,300,o),
(39,221,o),
(39,139,cs),
(39,52,o),
(108,-14,o),
(214,-15,cs),
(287,-16,o),
(350,8,o),
(387,73,c),
(390,73,l),
(390,57,l)
);
},
{
closed = 1;
nodes = (
(152,63,o),
(123,104,o),
(123,144,cs),
(123,186,o),
(155,228,o),
(237,230,cs),
(302,232,o),
(348,252,o),
(371,272,cs),
(375,276,o),
(376,274,o),
(376,272,cs),
(376,196,ls),
(376,119,o),
(310,64,o),
(228,64,cs)
);
},
{
closed = 1;
nodes = (
(413,-216,o),
(473,-185,o),
(473,-144,cs),
(473,-123,o),
(456,-107,o),
(437,-107,cs),
(406,-107,o),
(403,-140,o),
(368,-140,cs),
(348,-140,o),
(337,-129,o),
(337,-110,cs),
(337,-59,o),
(460,-51,o),
(460,13,cs),
(460,77,l),
(390,77,l),
(390,32,ls),
(390,-17,o),
(263,-24,o),
(263,-121,cs),
(263,-182,o),
(312,-214,o),
(366,-215,cs)
);
}
);
width = 505.3125;
}
);
metricLeft = "=a";
metricRight = "=a";
unicode = 261;
},
{
glyphname = aogonek.ss01;
lastChange = "2023-07-07 13:47:12 +0000";
layers = (
{
layerId = "6242D68C-0A25-4F05-8F2A-2075F7C4A210";
shapes = (
{
closed = 1;
nodes = (
(346,-15,o),
(408,23,o),
(428,89,c),
(433,89,l),
(433,66,l),
(559,66,l),
(559,445,ls),
(559,488,o),
(528,520,o),
(485,520,cs),
(445,520,o),
(411,499,o),
(411,451,cs),
(411,442,l),
(431,442,l),
(395,500,o),
(343,530,o),
(272,530,cs),
(117,530,o),
(40,387,o),
(40,248,cs),
(40,114,o),
(98,-15,o),
(260,-15,cs)
);
},
{
closed = 1;
nodes = (
(234,122,o),
(195,166,o),
(195,256,cs),
(195,346,o),
(234,390,o),
(303,390,cs),
(369,390,o),
(410,348,o),
(410,259,cs),
(410,164,o),
(369,122,o),
(303,122,cs)
);
},
{
closed = 1;
nodes = (
(475,-216,o),
(553,-182,o),
(553,-121,cs),
(553,-81,o),
(520,-58,o),
(486,-58,cs),
(448,-58,o),
(423,-95,o),
(401,-95,cs),
(393,-95,o),
(387,-90,o),
(387,-83,cs),
(387,-54,o),
(559,-34,o),
(559,50,cs),
(559,89,l),
(433,89,l),
(433,55,ls),
(433,-5,o),
(276,-1,o),
(276,-112,cs),
(276,-179,o),
(334,-216,o),
(406,-216,cs)
);
}
);
width = 589;
},
{
layerId = "3D52442A-254C-4C79-B742-A98FD72DF947";
shapes = (
{
closed = 1;
nodes = (
(321,-15,o),
(376,18,o),
(413,73,c),
(415,73,l),
(415,33,l),
(458,33,l),
(458,493,ls),
(458,509,o),
(449,520,o),
(436,520,cs),
(423,520,o),
(413,509,o),
(413,493,cs),
(413,420,l),
(415,433,l),
(388,488,o),
(318,530,o),
(251,530,cs),
(122,530,o),
(35,408,o),
(35,258,cs),
(35,107,o),
(105,-15,o),
(247,-15,cs)
);
},
{
closed = 1;
nodes = (
(141,29,o),
(80,113,o),
(80,258,cs),
(80,401,o),
(159,487,o),
(254,487,cs),
(344,487,o),
(413,394,o),
(413,258,cs),
(413,113,o),
(349,31,o),
(245,30,cs)
);
},
{
closed = 1;
nodes = (
(427,-215,o),
(474,-184,o),
(474,-155,cs),
(474,-143,o),
(466,-136,o),
(456,-136,cs),
(437,-136,o),
(434,-174,o),
(385,-174,cs),
(354,-174,o),
(337,-155,o),
(337,-130,cs),
(337,-62,o),
(458,-60,o),
(458,5,cs),
(458,64,l),
(415,64,l),
(415,13,ls),
(415,-28,o),
(293,-39,o),
(293,-131,cs),
(293,-184,o),
(333,-215,o),
(383,-215,cs)
);
}
);
width = 504;
},
{
layerId = "09D2E10D-7E7D-41B4-9A81-DCD24BEE186F";
shapes = (
{
closed = 1;
nodes = (
(327,-16,o),
(384,11,o),
(419,60,c),
(421,60,l),
(421,44,l),
(501,44,l),
(501,477,ls),
(501,501,o),
(483,519,o),
(459,519,cs),
(436,519,o),
(417,503,o),
(417,477,cs),
(417,426,l),
(430,439,l),
(393,494,o),
(336,529,o),
(264,529,cs),
(122,529,o),
(39,403,o),
(39,255,cs),
(39,112,o),
(112,-16,o),
(256,-16,cs)
);
},
{
closed = 1;
nodes = (
(179,64,o),
(124,134,o),
(124,257,cs),
(124,379,o),
(182,450,o),
(275,450,cs),
(359,449,o),
(417,378,o),
(417,254,cs),
(417,110,o),
(345,65,o),
(272,65,cs)
);
},
{
closed = 1;
nodes = (
(444,-216,o),
(503,-185,o),
(503,-144,cs),
(503,-123,o),
(487,-107,o),
(467,-107,cs),
(437,-107,o),
(433,-140,o),
(399,-140,cs),
(379,-140,o),
(368,-129,o),
(368,-110,cs),
(368,-59,o),
(501,-51,o),
(501,13,cs),
(501,77,l),
(420,77,l),
(420,32,ls),
(420,-17,o),
(294,-24,o),
(294,-121,cs),
(294,-182,o),
(343,-214,o),
(397,-215,cs)
);
}
);
width = 537.75;
}
);
metricLeft = "=a.ss01";
metricRight = "=aogonek";
},
{
glyphname = ae;
lastChange = "2023-07-07 13:47:12 +0000";
layers = (
{
anchors = (
{
name = bottom;
pos = (414,0);
},
{
name = top;
pos = (414,515);
}
);
background = {
anchors = (
{
name = bottom;
pos = (440,0);
},
{
name = ogonek;
pos = (826,10);
},
{
name = top;
pos = (440,515);
}
);
shapes = (
{
closed = 1;
nodes = (
(295,-15,o),
(363,18,o),
(392,79,c),
(489,68,l),
(489,333,ls),
(489,456,o),
(408,529,o),
(284,529,cs),
(190,529,o),
(61,488,o),
(61,405,cs),
(61,364,o),
(93,341,o),
(130,341,cs),
(158,341,o),
(183,349,o),
(197,366,cs),
(208,380,o),
(230,402,o),
(272,402,cs),
(299,402,o),
(341,394,o),
(341,366,cs),
(341,333,o),
(307,321,o),
(226,316,cs),
(73,307,o),
(20,233,o),
(20,148,cs),
(20,36,o),
(120,-15,o),
(227,-15,cs)
);
},
{
closed = 1;
nodes = (
(204,113,o),
(167,126,o),
(167,158,cs),
(167,179,o),
(183,195,o),
(242,207,cs),
(300,219,o),
(327,224,o),
(344,234,cs),
(349,237,o),
(351,237,o),
(351,233,cs),
(351,228,ls),
(351,136,o),
(294,113,o),
(239,113,cs)
);
},
{
closed = 1;
nodes = (
(682,-15,o),
(794,30,o),
(794,112,cs),
(794,154,o),
(764,179,o),
(727,179,cs),
(692,179,o),
(678,165,o),
(661,151,cs),
(644,136,o),
(624,122,o),
(596,122,cs),
(543,122,o),
(506,162,o),
(506,266,cs),
(506,356,o),
(542,393,o),
(589,393,cs),
(637,393,o),
(661,355,o),
(663,275,c),
(713,310,l),
(404,310,l),
(404,214,l),
(726,214,ls),
(784,214,o),
(813,247,o),
(813,290,cs),
(813,404,o),
(726,530,o),
(586,530,cs),
(443,530,o),
(350,404,o),
(350,253,cs),
(350,93,o),
(448,-15,o),
(592,-15,cs)
);
}
);
};
layerId = "6242D68C-0A25-4F05-8F2A-2075F7C4A210";
shapes = (
{
closed = 1;
nodes = (
(325,-15,o),
(394,29,o),
(425,70,c),
(429,70,l),
(463,30,o),
(516,-15,o),
(597,-15,cs),
(659,-15,o),
(729,6,o),
(767,46,cs),
(784,64,o),
(794,86,o),
(794,112,cs),
(794,154,o),
(768,179,o),
(727,179,cs),
(696,179,o),
(678,165,o),
(661,151,cs),
(644,136,o),
(624,122,o),
(596,122,cs),
(547,122,o),
(498,155,o),
(498,266,cs),
(498,363,o),
(547,393,o),
(589,393,cs),
(629,393,o),
(663,366,o),
(670,310,c),
(426,310,l),
(427,214,l),
(726,214,ls),
(784,214,o),
(813,247,o),
(813,305,cs),
(813,404,o),
(726,530,o),
(586,530,cs),
(527,530,o),
(476,509,o),
(438,463,c),
(402,509,o),
(349,529,o),
(284,529,cs),
(190,529,o),
(61,488,o),
(61,405,cs),
(61,364,o),
(93,341,o),
(130,341,cs),
(158,341,o),
(180,349,o),
(197,366,cs),
(214,383,o),
(231,402,o),
(277,402,cs),
(300,402,o),
(341,396,o),
(341,364,cs),
(341,335,o),
(307,321,o),
(226,316,cs),
(73,307,o),
(20,233,o),
(20,148,cs),
(20,36,o),
(120,-15,o),
(227,-15,cs)
);
},
{
closed = 1;
nodes = (
(204,113,o),
(167,126,o),
(167,158,cs),
(167,179,o),
(183,195,o),
(242,207,cs),
(300,219,o),
(325,224,o),
(344,234,cs),
(348,236,o),
(351,236,o),
(351,230,cs),
(351,226,ls),
(351,140,o),
(294,113,o),
(239,113,cs)
);
}
);
width = 828;
},
{
anchors = (
{
name = bottom;
pos = (364,0);
},
{
name = top;
pos = (364,515);
}
);
background = {
shapes = (
{
closed = 1;
nodes = (
(254,-15,o),
(310,13,o),
(358,78,c),
(361,78,l),
(394,78,l),
(394,350,ls),
(394,463,o),
(342,530,o),
(224,530,cs),
(108,530,o),
(60,456,o),
(51,410,cs),
(48,395,o),
(56,384,o),
(69,384,cs),
(83,384,o),
(91,392,o),
(96,407,cs),
(109,446,o),
(144,486,o),
(224,486,cs),
(313,486,o),
(345,433,o),
(345,375,cs),
(345,323,o),
(294,289,o),
(193,288,cs),
(67,287,o),
(15,215,o),
(15,132,cs),
(15,48,o),
(74,-15,o),
(173,-15,cs)
);
},
{
closed = 1;
nodes = (
(97,29,o),
(60,76,o),
(60,136,cs),
(60,193,o),
(98,248,o),
(190,247,cs),
(252,246,o),
(305,259,o),
(342,285,cs),
(347,288,o),
(349,289,o),
(349,286,cs),
(349,197,ls),
(349,102,o),
(278,29,o),
(181,29,cs)
);
},
{
closed = 1;
nodes = (
(647,-15,o),
(695,69,o),
(706,118,cs),
(713,147,o),
(701,159,o),
(686,159,cs),
(674,159,o),
(666,150,o),
(663,133,cs),
(658,100,o),
(629,29,o),
(546,29,cs),
(465,29,o),
(395,88,o),
(395,260,cs),
(399,409,o),
(453,485,o),
(540,485,cs),
(621,485,o),
(676,417,o),
(679,277,c),
(689,286,l),
(385,286,l),
(384,243,l),
(683,243,ls),
(713,243,o),
(723,253,o),
(723,284,cs),
(723,426,o),
(654,530,o),
(543,530,cs),
(424,530,o),
(350,430,o),
(350,255,cs),
(350,67,o),
(434,-15,o),
(540,-15,cs)
);
}
);
};
layerId = "3D52442A-254C-4C79-B742-A98FD72DF947";
shapes = (
{
closed = 1;
nodes = (
(259,-15,o),
(325,8,o),
(369,107,c),
(373,107,l),
(400,29,o),
(461,-15,o),
(540,-15,cs),
(647,-15,o),
(696,68,o),
(706,118,cs),
(707,123,o),
(708,129,o),
(708,133,cs),
(708,151,o),
(698,159,o),
(686,159,cs),
(674,159,o),
(666,150,o),
(663,133,cs),
(658,100,o),
(629,29,o),
(546,29,cs),
(465,29,o),
(395,88,o),
(395,270,cs),
(395,412,o),
(455,485,o),
(540,485,cs),
(619,485,o),
(674,420,o),
(679,286,c),
(372,286,l),
(370,243,l),
(683,243,ls),
(713,243,o),
(723,253,o),
(723,284,cs),
(723,426,o),
(654,530,o),
(543,530,cs),
(472,530,o),
(416,494,o),
(384,427,c),
(363,493,o),
(312,530,o),
(224,530,cs),
(108,530,o),
(60,456,o),
(51,410,cs),
(48,395,o),
(56,384,o),
(69,384,cs),
(83,384,o),
(91,392,o),
(96,407,cs),
(109,446,o),
(144,486,o),
(224,486,cs),
(313,486,o),
(345,433,o),
(345,375,cs),
(345,323,o),
(294,289,o),
(193,288,cs),
(67,287,o),
(15,215,o),
(15,132,cs),
(15,48,o),
(74,-15,o),
(173,-15,cs)
);
},
{
closed = 1;
nodes = (
(97,29,o),
(60,76,o),
(60,136,cs),
(60,192,o),
(97,247,o),
(188,247,cs),
(247,247,o),
(298,258,o),
(335,280,cs),
(344,286,o),
(349,283,o),
(349,274,cs),
(349,197,ls),
(349,102,o),
(278,29,o),
(181,29,cs)
);
}
);
width = 733;
},
{
anchors = (
{
name = bottom;
pos = (393,0);
},
{
name = top;
pos = (393,515);
}
);
layerId = "09D2E10D-7E7D-41B4-9A81-DCD24BEE186F";
shapes = (
{
closed = 1;
nodes = (
(285,-15,o),
(344,15,o),
(392,98,c),
(399,98,l),
(443,20,o),
(497,-15,o),
(574,-15,cs),
(662,-15,o),
(731,41,o),
(751,96,cs),
(756,106,o),
(758,116,o),
(758,124,cs),
(758,147,o),
(741,161,o),
(722,161,cs),
(700,161,o),
(688,144,o),
(680,131,cs),
(666,104,o),
(631,65,o),
(574,65,cs),
(503,65,o),
(436,106,o),
(436,279,cs),
(436,390,o),
(493,450,o),
(572,450,cs),
(646,450,o),
(687,390,o),
(692,306,c),
(401,306,l),
(400,237,l),
(714,234,ls),
(754,233,o),
(772,255,o),
(772,295,cs),
(772,429,o),
(692,530,o),
(575,530,cs),
(503,530,o),
(445,502,o),
(408,447,c),
(382,499,o),
(332,530,o),
(248,530,cs),
(140,530,o),
(71,466,o),
(60,417,cs),
(53,392,o),
(67,367,o),
(96,367,cs),
(116,367,o),
(128,376,o),
(137,393,cs),
(151,418,o),
(182,452,o),
(247,452,cs),
(318,452,o),
(348,414,o),
(348,370,cs),
(348,325,o),
(306,304,o),
(213,302,cs),
(78,300,o),
(19,221,o),
(19,139,cs),
(19,52,o),
(86,-15,o),
(199,-15,cs)
);
},
{
closed = 1;
nodes = (
(132,63,o),
(103,104,o),
(103,144,cs),
(103,185,o),
(135,228,o),
(214,230,cs),
(270,232,o),
(314,247,o),
(340,264,cs),
(348,270,o),
(352,268,o),
(352,260,cs),
(352,187,ls),
(352,107,o),
(285,64,o),
(206,64,cs)
);
}
);
width = 785.6875;
}
);
metricLeft = "=a-20";
metricRight = "=e-20";
unicode = 230;
},
{
glyphname = ae.ss01;
lastChange = "2023-07-07 13:47:12 +0000";
layers = (
{
anchors = (
{
name = bottom;
pos = (459,0);
},
{
name = top;
pos = (459,515);
}
);
background = {
shapes = (
{
closed = 1;
nodes = (
(214,122,o),
(175,166,o),
(175,256,cs),
(175,346,o),
(214,390,o),
(273,390,cs),
(329,390,o),
(370,348,o),
(370,259,cs),
(370,164,o),
(329,122,o),
(273,122,cs)
);
},
{
closed = 1;
nodes = (
(746,-15,o),
(858,30,o),
(858,112,cs),
(858,154,o),
(833,181,o),
(792,181,cs),
(761,181,o),
(742,165,o),
(725,151,cs),
(708,136,o),
(688,122,o),
(658,122,cs),
(607,122,o),
(550,162,o),
(550,266,cs),
(550,356,o),
(596,388,o),
(643,388,cs),
(691,388,o),
(735,355,o),
(737,275,c),
(777,310,l),
(478,310,l),
(478,214,l),
(790,214,ls),
(848,214,o),
(877,247,o),
(877,290,cs),
(877,404,o),
(780,530,o),
(650,530,cs),
(525,530,o),
(454,404,o),
(454,253,cs),
(454,93,o),
(525,-15,o),
(666,-15,cs)
);
},
{
closed = 1;
nodes = (
(371,11,o),
(405,-10,o),
(443,-10,cs),
(488,-10,o),
(519,22,o),
(519,65,cs),
(519,445,ls),
(519,488,o),
(488,525,o),
(443,525,cs),
(405,525,o),
(371,499,o),
(371,451,cs),
(371,442,l),
(391,442,l),
(365,500,o),
(313,530,o),
(252,530,cs),
(117,530,o),
(40,387,o),
(40,248,cs),
(40,114,o),
(98,-15,o),
(240,-15,cs),
(316,-15,o),
(368,23,o),
(388,89,c),
(371,89,l),
(371,59,l)
);
}
);
};
layerId = "6242D68C-0A25-4F05-8F2A-2075F7C4A210";
shapes = (
{
closed = 1;
nodes = (
(318,-15,o),
(370,25,o),
(389,92,c),
(370,100,l),
(370,62,l),
(370,12,o),
(404,-10,o),
(443,-10,cs),
(487,-10,o),
(519,21,o),
(519,65,c),
(519,98,l),
(492,83,l),
(526,20,o),
(585,-15,o),
(666,-15,cs),
(746,-15,o),
(858,30,o),
(858,112,cs),
(858,154,o),
(833,181,o),
(792,181,cs),
(761,181,o),
(742,165,o),
(725,151,cs),
(708,136,o),
(688,122,o),
(658,122,cs),
(617,122,o),
(571,148,o),
(556,214,c),
(790,214,ls),
(848,214,o),
(877,247,o),
(877,290,cs),
(877,404,o),
(780,530,o),
(650,530,cs),
(578,530,o),
(525,488,o),
(491,424,c),
(519,424,l),
(519,446,l),
(518,488,o),
(488,525,o),
(443,525,cs),
(405,525,o),
(370,499,o),
(370,449,c),
(370,430,l),
(395,430,l),
(373,495,o),
(317,530,o),
(252,530,cs),
(117,530,o),
(40,387,o),
(40,248,cs),
(40,114,o),
(98,-15,o),
(240,-15,cs)
);
},
{
closed = 1;
nodes = (
(214,122,o),
(175,166,o),
(175,256,cs),
(175,346,o),
(214,390,o),
(273,390,cs),
(329,390,o),
(370,348,o),
(370,259,cs),
(370,164,o),
(329,122,o),
(273,122,cs)
);
},
{
closed = 1;
nodes = (
(567,367,o),
(605,388,o),
(643,388,cs),
(683,388,o),
(721,365,o),
(733,310,c),
(554,310,l)
);
}
);
width = 917;
},
{
anchors = (
{
name = bottom;
pos = (413,0);
},
{
name = top;
pos = (413,515);
}
);
layerId = "3D52442A-254C-4C79-B742-A98FD72DF947";
shapes = (
{
closed = 1;
nodes = (
(301,-15,o),
(361,18,o),
(399,94,c),
(393,112,l),
(393,17,ls),
(393,1,o),
(403,-10,o),
(416,-10,cs),
(429,-10,o),
(438,1,o),
(438,17,cs),
(438,131,l),
(430,114,l),
(457,19,o),
(533,-15,o),
(598,-15,cs),
(700,-15,o),
(763,69,o),
(774,118,cs),
(781,147,o),
(769,159,o),
(754,159,cs),
(742,159,o),
(734,150,o),
(731,133,cs),
(726,100,o),
(682,29,o),
(604,29,cs),
(531,29,o),
(449,84,o),
(443,243,c),
(751,243,ls),
(781,243,o),
(791,253,o),
(791,284,cs),
(791,426,o),
(712,530,o),
(600,530,cs),
(531,530,o),
(467,489,o),
(431,413,c),
(438,407,l),
(438,493,ls),
(438,509,o),
(429,520,o),
(416,520,cs),
(403,520,o),
(393,509,o),
(393,493,cs),
(393,417,l),
(398,426,l),
(374,484,o),
(307,530,o),
(237,530,cs),
(122,530,o),
(35,408,o),
(35,258,cs),
(35,107,o),
(105,-15,o),
(237,-15,cs)
);
},
{
closed = 1;
nodes = (
(141,29,o),
(80,113,o),
(80,258,cs),
(80,401,o),
(159,487,o),
(240,487,cs),
(324,487,o),
(393,394,o),
(393,258,cs),
(393,113,o),
(329,31,o),
(235,30,cs)
);
},
{
closed = 1;
nodes = (
(456,418,o),
(526,485,o),
(597,485,cs),
(677,485,o),
(741,420,o),
(747,286,c),
(444,286,l)
);
}
);
width = 826;
},
{
anchors = (
{
name = bottom;
pos = (446,0);
},
{
name = top;
pos = (446,515);
}
);
layerId = "09D2E10D-7E7D-41B4-9A81-DCD24BEE186F";
shapes = (
{
closed = 1;
nodes = (
(317,-15,o),
(388,16,o),
(414,108,c),
(401,108,l),
(401,34,ls),
(401,9,o),
(420,-9,o),
(442,-9,cs),
(467,-9,o),
(485,10,o),
(485,35,cs),
(485,112,l),
(470,109,l),
(495,21,o),
(575,-15,o),
(648,-15,cs),
(734,-15,o),
(804,41,o),
(825,96,cs),
(843,135,o),
(822,161,o),
(795,161,cs),
(774,161,o),
(762,144,o),
(754,131,cs),
(739,104,o),
(704,65,o),
(647,65,cs),
(579,65,o),
(511,110,o),
(502,233,c),
(794,233,ls),
(834,233,o),
(853,253,o),
(853,290,cs),
(853,420,o),
(768,530,o),
(645,530,cs),
(570,530,o),
(496,488,o),
(470,406,c),
(485,408,l),
(485,477,ls),
(485,502,o),
(467,521,o),
(442,521,cs),
(420,521,o),
(401,503,o),
(401,477,cs),
(401,414,l),
(413,413,l),
(398,488,o),
(322,530,o),
(251,530,cs),
(120,530,o),
(39,403,o),
(39,256,cs),
(39,112,o),
(109,-15,o),
(244,-15,cs)
);
},
{
closed = 1;
nodes = (
(175,65,o),
(123,135,o),
(123,257,cs),
(123,380,o),
(177,450,o),
(263,450,cs),
(341,450,o),
(398,372,o),
(398,254,cs),
(398,110,o),
(328,66,o),
(261,65,cs)
);
},
{
closed = 1;
nodes = (
(516,400,o),
(573,449,o),
(641,449,cs),
(715,449,o),
(764,392,o),
(772,303,c),
(503,303,l)
);
}
);
width = 890.875;
}
);
metricLeft = "=o";
metricRight = "=o";
},
{
glyphname = b;
lastChange = "2023-07-07 13:47:12 +0000";
layers = (
{
background = {
shapes = (
{
closed = 1;
nodes = (
(485,133,o),
(431,61,o),
(330,62,cs),
(236,63,o),
(185,130,o),
(185,258,cs),
(185,386,o),
(236,453,o),
(332,453,cs),
(428,453,o),
(485,381,o),
(485,258,cs)
);
},
{
closed = 1;
nodes = (
(565,402,o),
(486,530,o),
(347,530,cs),
(276,530,o),
(213,496,o),
(168,443,c),
(185,427,l),
(185,690,ls),
(185,712,o),
(167,730,o),
(145,730,cs),
(123,730,o),
(105,712,o),
(105,690,cs),
(105,31,ls),
(105,8,o),
(123,-10,o),
(145,-10,cs),
(167,-10,o),
(185,8,o),
(185,31,cs),
(185,92,l),
(169,74,l),
(212,20,o),
(276,-15,o),
(348,-15,cs),
(486,-14,o),
(565,114,o),
(565,258,cs)
);
},
{
ref = h;
},
{
pos = (31,0);
ref = o;
}
);
};
layerId = "6242D68C-0A25-4F05-8F2A-2075F7C4A210";
shapes = (
{
closed = 1;
nodes = (
(516,-15,o),
(586,135,o),
(586,258,cs),
(586,381,o),
(516,530,o),
(356,530,cs),
(297,530,o),
(245,509,o),
(202,446,c),
(220,434,l),
(220,655,ls),
(220,696,o),
(186,730,o),
(145,730,cs),
(104,730,o),
(70,696,o),
(70,655,cs),
(70,66,ls),
(70,24,o),
(104,-10,o),
(145,-10,cs),
(186,-10,o),
(220,24,o),
(220,66,cs),
(220,94,l),
(203,86,l),
(223,31,o),
(275,-15,o),
(361,-15,cs)
);
},
{
closed = 1;
nodes = (
(257,120,o),
(220,165,o),
(220,255,cs),
(220,345,o),
(258,396,o),
(324,396,cs),
(391,396,o),
(431,344,o),
(431,256,cs),
(431,171,o),
(393,120,o),
(323,120,cs)
);
}
);
width = 626;
},
{
background = {
shapes = (
{
closed = 1;
nodes = (
(437,133,o),
(383,61,o),
(282,62,cs),
(188,63,o),
(137,130,o),
(137,258,cs),
(137,386,o),
(188,453,o),
(284,453,cs),
(380,453,o),
(437,381,o),
(437,258,cs)
);
},
{
closed = 1;
nodes = (
(517,402,o),
(438,530,o),
(299,530,cs),
(228,530,o),
(165,496,o),
(120,443,c),
(137,427,l),
(137,690,ls),
(137,712,o),
(119,730,o),
(97,730,cs),
(75,730,o),
(57,712,o),
(57,690,cs),
(57,31,ls),
(57,8,o),
(75,-10,o),
(97,-10,cs),
(119,-10,o),
(137,8,o),
(137,31,cs),
(137,92,l),
(121,74,l),
(164,20,o),
(228,-15,o),
(300,-15,cs),
(438,-14,o),
(517,114,o),
(517,258,cs)
);
}
);
};
layerId = "3D52442A-254C-4C79-B742-A98FD72DF947";
shapes = (
{
closed = 1;
nodes = (
(444,-15,o),
(511,112,o),
(511,260,cs),
(511,408,o),
(444,530,o),
(294,530,cs),
(183,530,o),
(121,463,o),
(99,394,c),
(115,402,l),
(115,703,ls),
(115,718,o),
(107,730,o),
(92,730,cs),
(77,730,o),
(70,718,o),
(70,703,cs),
(70,17,ls),
(70,1,o),
(77,-10,o),
(92,-10,cs),
(107,-10,o),
(115,1,o),
(115,17,cs),
(115,101,l),
(105,109,l),
(132,28,o),
(202,-15,o),
(291,-15,cs)
);
},
{
closed = 1;
nodes = (
(179,29,o),
(115,111,o),
(115,259,cs),
(115,410,o),
(181,487,o),
(290,487,cs),
(405,487,o),
(465,400,o),
(465,259,cs),
(465,117,o),
(404,27,o),
(288,28,cs)
);
}
);
width = 546;
},
{
layerId = "09D2E10D-7E7D-41B4-9A81-DCD24BEE186F";
shapes = (
{
closed = 1;
nodes = (
(457,-15,o),
(537,110,o),
(537,259,cs),
(537,408,o),
(459,530,o),
(317,530,cs),
(236,530,o),
(177,488,o),
(149,439,c),
(155,439,l),
(155,687,ls),
(155,711,o),
(136,730,o),
(112,730,cs),
(89,730,o),
(70,711,o),
(70,687,cs),
(70,34,ls),
(70,9,o),
(88,-10,o),
(112,-10,cs),
(136,-10,o),
(155,9,o),
(155,34,cs),
(155,78,l),
(150,78,l),
(170,30,o),
(231,-15,o),
(317,-15,cs)
);
},
{
closed = 1;
nodes = (
(210,66,o),
(155,138,o),
(155,258,cs),
(155,378,o),
(208,452,o),
(303,450,cs),
(397,449,o),
(451,376,o),
(451,258,cs),
(451,137,o),
(399,64,o),
(302,65,cs)
);
}
);
width = 575.25;
}
);
metricLeft = "=n";
metricRight = "=o";
unicode = 98;
},
{
glyphname = c;
lastChange = "2023-07-07 13:47:12 +0000";
layers = (
{
anchors = (
{
name = bottom;
pos = (286,3);
},
{
name = top;
pos = (283,515);
}
);
layerId = "6242D68C-0A25-4F05-8F2A-2075F7C4A210";
shapes = (
{
closed = 1;
nodes = (
(414,-15,o),
(503,64,o),
(503,134,cs),
(503,175,o),
(472,209,o),
(431,209,cs),
(400,209,o),
(389,189,o),
(373,166,cs),
(358,144,o),
(341,122,o),
(297,122,cs),
(233,122,o),
(195,167,o),
(195,257,cs),
(195,347,o),
(233,394,o),
(292,394,cs),
(327,394,o),
(340,377,o),
(351,368,cs),
(363,358,o),
(380,352,o),
(401,352,cs),
(439,352,o),
(471,373,o),
(471,415,cs),
(471,480,o),
(395,530,o),
(296,530,cs),
(143,530,o),
(40,410,o),
(40,258,cs),
(40,104,o),
(145,-15,o),
(293,-15,cs)
);
}
);
width = 538;
},
{
anchors = (
{
name = bottom;
pos = (254,4);
},
{
name = top;
pos = (253,515);
}
);
background = {
shapes = (
{
pos = (-500,0);
ref = e;
},
{
pos = (-500,0);
ref = o;
}
);
};
layerId = "3D52442A-254C-4C79-B742-A98FD72DF947";
shapes = (
{
closed = 1;
nodes = (
(378,-15,o),
(437,73,o),
(447,136,cs),
(452,167,o),
(442,177,o),
(428,177,cs),
(415,177,o),
(407,168,o),
(404,151,cs),
(391,80,o),
(340,28,o),
(256,28,cs),
(149,28,o),
(81,113,o),
(81,257,cs),
(81,394,o),
(143,487,o),
(256,487,cs),
(326,487,o),
(373,451,o),
(391,404,cs),
(396,391,o),
(399,379,o),
(417,379,cs),
(432,379,o),
(437,388,o),
(437,403,cs),
(437,454,o),
(367,530,o),
(254,530,cs),
(115,530,o),
(35,416,o),
(35,256,cs),
(35,94,o),
(116,-15,o),
(254,-15,cs)
);
}
);
width = 478;
},
{
anchors = (
{
name = bottom;
pos = (267,0);
},
{
name = top;
pos = (266,515);
}
);
layerId = "09D2E10D-7E7D-41B4-9A81-DCD24BEE186F";
shapes = (
{
closed = 1;
nodes = (
(393,-15,o),
(460,73,o),
(469,130,cs),
(474,164,o),
(457,185,o),
(432,185,cs),
(411,185,o),
(400,172,o),
(393,153,cs),
(377,107,o),
(341,63,o),
(272,63,cs),
(181,63,o),
(125,139,o),
(125,259,cs),
(125,372,o),
(177,453,o),
(270,453,cs),
(326,453,o),
(360,423,o),
(379,387,cs),
(386,373,o),
(397,360,o),
(417,360,cs),
(440,360,o),
(460,377,o),
(455,408,cs),
(448,456,o),
(385,530,o),
(272,530,cs),
(130,530,o),
(39,415,o),
(39,258,cs),
(39,101,o),
(129,-15,o),
(270,-15,cs)
);
}
);
width = 503.5;
}
);
metricRight = "=o-5";
unicode = 99;
},
{
glyphname = d;
lastChange = "2023-07-07 13:47:12 +0000";
layers = (
{
anchors = (
{
name = bottom;
pos = (315,0);
},
{
name = center;
pos = (315,258);
},
{
name = top;
pos = (315,720);
},
{
name = topright;
pos = (610,720);
}
);
background = {
shapes = (
{
closed = 1;
nodes = (
(114,530,o),
(40,387,o),
(40,256,cs),
(40,118,o),
(118,-15,o),
(270,-15,cs),
(341,-15,o),
(388,14,o),
(431,77,c),
(410,89,l),
(410,-140,ls),
(410,-183,o),
(442,-215,o),
(485,-215,cs),
(528,-215,o),
(560,-183,o),
(560,-140,cs),
(560,449,ls),
(560,493,o),
(528,525,o),
(485,525,cs),
(442,525,o),
(405,493,o),
(410,449,cs),
(413,421,l),
(435,430,l),
(415,483,o),
(357,530,o),
(269,530,cs)
);
},
{
closed = 1;
nodes = (
(410,166,o),
(369,124,o),
(303,124,cs),
(234,124,o),
(195,168,o),
(195,258,cs),
(195,348,o),
(234,392,o),
(303,392,cs),
(369,392,o),
(410,350,o),
(410,258,c)
);
}
);
};
layerId = "6242D68C-0A25-4F05-8F2A-2075F7C4A210";
shapes = (
{
closed = 1;
nodes = (
(353,-15,o),
(411,32,o),
(431,85,c),
(409,94,l),
(406,66,ls),
(401,22,o),
(438,-10,o),
(481,-10,cs),
(524,-10,o),
(556,22,o),
(556,66,cs),
(556,650,ls),
(556,693,o),
(524,725,o),
(481,725,cs),
(438,725,o),
(406,693,o),
(406,650,cs),
(406,426,l),
(427,438,l),
(384,501,o),
(337,530,o),
(267,530,cs),
(118,530,o),
(40,397,o),
(40,260,cs),
(40,127,o),
(114,-15,o),
(266,-15,cs)
);
},
{
closed = 1;
nodes = (
(234,119,o),
(195,169,o),
(195,255,cs),
(195,343,o),
(235,395,o),
(301,395,cs),
(368,395,o),
(406,341,o),
(406,254,cs),
(406,169,o),
(369,119,o),
(302,119,cs)
);
}
);
width = 626;
},
{
anchors = (
{
name = bottom;
pos = (271,0);
},
{
name = center;
pos = (271,258);
},
{
name = top;
pos = (271,720);
},
{
name = topright;
pos = (521,720);
}
);
layerId = "3D52442A-254C-4C79-B742-A98FD72DF947";
shapes = (
{
closed = 1;
nodes = (
(353,-15,o),
(418,37,o),
(441,107,c),
(431,107,l),
(431,22,ls),
(431,6,o),
(439,-5,o),
(454,-5,cs),
(469,-5,o),
(476,6,o),
(476,22,cs),
(476,703,ls),
(476,718,o),
(469,730,o),
(454,730,cs),
(439,730,o),
(431,718,o),
(431,703,cs),
(431,409,l),
(443,409,l),
(423,470,o),
(359,530,o),
(256,530,cs),
(110,530,o),
(35,410,o),
(35,255,cs),
(35,109,o),
(101,-15,o),
(254,-15,cs)
);
},
{
closed = 1;
nodes = (
(140,28,o),
(81,115,o),
(81,254,cs),
(81,403,o),
(149,487,o),
(263,487,cs),
(367,487,o),
(431,418,o),
(431,261,cs),
(431,103,o),
(367,28,o),
(258,28,cs)
);
}
);
width = 546;
},
{
anchors = (
{
name = bottom;
pos = (288,0);
},
{
name = center;
pos = (288,258);
},
{
name = top;
pos = (288,720);
},
{
name = topright;
pos = (554,720);
}
);
layerId = "09D2E10D-7E7D-41B4-9A81-DCD24BEE186F";
shapes = (
{
closed = 1;
nodes = (
(341,-15,o),
(403,27,o),
(425,78,c),
(421,79,l),
(421,36,ls),
(421,11,o),
(439,-9,o),
(463,-9,cs),
(488,-9,o),
(505,11,o),
(505,36,cs),
(505,687,ls),
(505,711,o),
(488,730,o),
(463,730,cs),
(439,730,o),
(421,711,o),
(421,687,cs),
(421,441,l),
(427,443,l),
(400,487,o),
(349,530,o),
(265,530,cs),
(120,530,o),
(39,403,o),
(39,255,cs),
(39,114,o),
(112,-15,o),
(258,-15,cs)
);
},
{
closed = 1;
nodes = (
(178,62,o),
(125,137,o),
(125,256,cs),
(125,378,o),
(181,452,o),
(274,452,cs),
(366,452,o),
(421,381,o),
(421,257,cs),
(421,135,o),
(368,65,o),
(275,63,cs)
);
}
);
width = 575.25;
}
);
metricLeft = "=o";
metricRight = l;
unicode = 100;
},
{
glyphname = eth;
lastChange = "2023-07-07 13:47:12 +0000";
layers = (
{
background = {
shapes = (
{
closed = 1;
nodes = (
(392,161,o),
(356,122,o),
(284,122,cs),
(212,122,o),
(176,161,o),
(176,227,cs),
(176,296,o),
(212,333,o),
(284,333,cs),
(356,333,o),
(392,296,o),
(392,227,cs)
);
},
{
attr = {
lineCapEnd = "2";
lineCapStart = "2";
strokeHeight = 130;
strokeWidth = 130;
};
closed = 0;
nodes = (
(491,672,l),
(101,496,l)
);
},
{
closed = 1;
nodes = (
(35,99,o),
(140,-15,o),
(284,-15,cs),
(426,-15,o),
(545,75,o),
(545,266,cs),
(545,459,o),
(401,606,o),
(253,709,cs),
(231,725,o),
(211,730,o),
(193,730,cs),
(122,730,o),
(116,651,o),
(151,621,cs),
(251,535,o),
(361,469,o),
(409,290,c),
(480,382,l),
(433,435,o),
(362,470,o),
(284,470,cs),
(140,470,o),
(35,358,o),
(35,221,cs)
);
}
);
};
layerId = "6242D68C-0A25-4F05-8F2A-2075F7C4A210";
shapes = (
{
closed = 1;
nodes = (
(426,-15,o),
(545,75,o),
(545,266,cs),
(545,459,o),
(401,606,o),
(253,709,cs),
(231,725,o),
(211,730,o),
(193,730,cs),
(122,730,o),
(116,651,o),
(151,621,cs),
(251,535,o),
(361,469,o),
(409,290,c),
(480,382,l),
(433,435,o),
(362,470,o),
(284,470,cs),
(140,470,o),
(35,358,o),
(35,221,cs),
(35,99,o),
(140,-15,o),
(284,-15,cs)
);
},
{
closed = 1;
nodes = (
(226,122,o),
(179,167,o),
(179,227,cs),
(179,287,o),
(226,333,o),
(287,333,cs),
(348,333,o),
(395,287,o),
(395,227,cs),
(395,167,o),
(348,122,o),
(287,122,cs)
);
},
{
closed = 1;
nodes = (
(465.697,589.269,ls),
(488,599,o),
(502.678,622.071,o),
(502.678,647.937,cs),
(502.678,683.836,o),
(473.577,712.937,o),
(437.678,712.937,cs),
(427.646,712.937,o),
(418,710,o),
(409.66,706.605,cs),
(126.303,578.731,ls),
(104,569,o),
(89.322,545.929,o),
(89.322,520.063,cs),
(89,463,o),
(147,446,o),
(182.34,461.395,cs)
);
}
);
width = 607;
},
{
background = {
shapes = (
{
closed = 1;
nodes = (
(402,93,o),
(338,29,o),
(241,29,cs),
(144,29,o),
(80,93,o),
(81,221,cs),
(82,345,o),
(144,408,o),
(241,408,cs),
(338,408,o),
(402,345,o),
(402,221,cs)
);
},
{
attr = {
lineCapEnd = "2";
lineCapStart = "2";
strokeHeight = 45;
strokeWidth = 45;
};
closed = 0;
nodes = (
(399,654,l),
(116,518,l)
);
},
{
closed = 1;
nodes = (
(35,72,o),
(123,-15,o),
(241,-15,cs),
(359,-15,o),
(450,61,o),
(450,246,cs),
(450,581,o),
(251,675,o),
(111,720,cs),
(91,726,o),
(82,713,o),
(82,700,cs),
(82,688,o),
(93,684,o),
(100,681,cs),
(204,640,o),
(340,585,o),
(397,375,c),
(399,380,l),
(353,434,o),
(290,452,o),
(241,452,cs),
(123,452,o),
(35,365,o),
(35,221,cs)
);
}
);
};
layerId = "3D52442A-254C-4C79-B742-A98FD72DF947";
shapes = (
{
closed = 1;
nodes = (
(359,-15,o),
(450,61,o),
(450,246,cs),
(450,581,o),
(251,675,o),
(111,720,cs),
(91,726,o),
(82,713,o),
(82,700,cs),
(82,688,o),
(93,684,o),
(100,681,cs),
(204,640,o),
(340,585,o),
(397,375,c),
(399,380,l),
(353,434,o),
(290,452,o),
(241,452,cs),
(123,452,o),
(35,365,o),
(35,221,cs),
(35,72,o),
(123,-15,o),
(241,-15,cs)
);
},
{
closed = 1;
nodes = (
(144,29,o),
(80,93,o),
(81,221,cs),
(82,345,o),
(144,408,o),
(241,408,cs),
(338,408,o),
(402,345,o),
(402,221,cs),
(402,93,o),
(338,29,o),
(241,29,cs)
);
},
{
closed = 1;
nodes = (
(390.916,625.152,ls),
(398,629,o),
(403.248,636.461,o),
(403.248,645.229,cs),
(403.248,657.655,o),
(393.175,667.729,o),
(380.748,667.729,cs),
(377.089,667.729,o),
(374,667,o),
(370.58,665.306,cs),
(124.084,546.848,ls),
(117,543,o),
(111.752,535.539,o),
(111.752,526.771,cs),
(112,510,o),
(130,500,o),
(148,509,cs)
);
}
);
width = 512;
},
{
layerId = "09D2E10D-7E7D-41B4-9A81-DCD24BEE186F";
shapes = (
{
closed = 1;
nodes = (
(385,-14,o),
(488,71,o),
(488,250,cs),
(488,582,o),
(253,688,o),
(146,718,cs),
(125,722,o),
(108,712,o),
(105,696,cs),
(92,683,o),
(101,659,o),
(117,651,cs),
(245,603,o),
(360,518,o),
(401,360,c),
(421,388,l),
(378,432,o),
(319,456,o),
(259,456,cs),
(133,456,o),
(35,358,o),
(35,221,cs),
(35,85,o),
(133,-14,o),
(259,-14,cs)
);
},
{
closed = 1;
nodes = (
(171,67,o),
(118,122,o),
(119,223,cs),
(119,321,o),
(171,376,o),
(259,376,cs),
(348,376,o),
(401,321,o),
(401,223,cs),
(401,122,o),
(348,67,o),
(259,67,cs)
);
},
{
closed = 1;
nodes = (
(435,621,ls),
(448,626,o),
(456,639,o),
(456,654,cs),
(456,674,o),
(440,691,o),
(418,691,cs),
(413,691,o),
(407,690,o),
(402,688,cs),
(129,557,ls),
(116,551,o),
(107,539,o),
(107,524,cs),
(108,494,o),
(143,482,o),
(162,491,cs)
);
}
);
width = 549.5;
}
);
unicode = 240;
},
{
glyphname = dcroat;
lastChange = "2023-07-07 13:47:12 +0000";
layers = (
{
background = {
shapes = (
{
attr = {
lineCapEnd = "2";
lineCapStart = "2";
strokeHeight = 96;
strokeWidth = 96;
};
closed = 0;
nodes = (
(281,603,l),
(639,603,l)
);
}
);
};
layerId = "6242D68C-0A25-4F05-8F2A-2075F7C4A210";
shapes = (
{
closed = 1;
nodes = (
(324.2,651,ls),
(297.69,651,o),
(276.2,629.51,o),
(276.2,603,cs),
(276.2,576.49,o),
(297.69,555,o),
(324.2,555,cs),
(595.8,555,ls),
(622.31,555,o),
(643.8,576.49,o),
(643.8,603,cs),
(643.8,629.51,o),
(622.31,651,o),
(595.8,651,cs)
);
},
{
ref = d;
}
);
width = 659;
},
{
background = {
shapes = (
{
attr = {
lineCapEnd = "2";
lineCapStart = "2";
strokeHeight = 45;
strokeWidth = 45;
};
closed = 0;
nodes = (
(271,628,l),
(569,628,l)
);
}
);
};
layerId = "3D52442A-254C-4C79-B742-A98FD72DF947";
shapes = (
{
closed = 1;
nodes = (
(548.75,605.5,ls),
(561.177,605.5,o),
(571.25,615.573,o),
(571.25,628,cs),
(571.25,640.427,o),
(561.177,650.5,o),
(548.75,650.5,cs),
(291.25,650.5,ls),
(278.823,650.5,o),
(268.75,640.427,o),
(268.75,628,cs),
(268.75,615.573,o),
(278.823,605.5,o),
(291.25,605.5,cs)
);
},
{
ref = d;
}
);
width = 586;
},
{
layerId = "09D2E10D-7E7D-41B4-9A81-DCD24BEE186F";
shapes = (
{
closed = 1;
nodes = (
(347,640,ls),
(335,640,o),
(326,629,o),
(326,618,cs),
(326,606,o),
(335,596,o),
(347,596,cs),
(503,596,ls),
(514,596,o),
(524,606,o),
(524,618,cs),
(524,629,o),
(514,640,o),
(503,640,cs)
);
},
{
alignment = -1;
ref = d;
}
);
width = 614.5;
}
);
metricLeft = "=d";
unicode = 273;
},
{
glyphname = e;
lastChange = "2023-07-07 13:47:12 +0000";
layers = (
{
anchors = (
{
name = bottom;
pos = (308,0);
},
{
name = ogonek;
pos = (516,10);
},
{
name = top;
pos = (287,515);
}
);
background = {
shapes = (
{
closed = 0;
nodes = (
(293,-15,ls),
(427,-15,o),
(514,57,o),
(514,112,cs),
(514,150,o),
(482,180,o),
(445,180,cs),
(411,180,o),
(394,168,o),
(378,154,cs),
(357,135,o),
(338,112,o),
(284,112,cs)
);
}
);
};
layerId = "6242D68C-0A25-4F05-8F2A-2075F7C4A210";
shapes = (
{
closed = 1;
nodes = (
(152,-15,o),
(40,93,o),
(40,256,cs),
(40,404,o),
(133,530,o),
(287,530,cs),
(441,530,o),
(533,404,o),
(533,303,cs),
(533,247,o),
(504,214,o),
(446,214,cs),
(94,214,l),
(94,314,l),
(433,314,l),
(383,275,l),
(381,355,o),
(347,393,o),
(289,393,cs),
(232,393,o),
(196,356,o),
(196,267,cs),
(196,162,o),
(247,119,o),
(311,119,cs),
(345,119,o),
(364,131,o),
(387,149,cs),
(403,161,o),
(419,175,o),
(448,175,cs),
(491,175,o),
(518,144,o),
(518,108,cs),
(518,37,o),
(416,-15,o),
(308,-15,cs)
);
}
);
width = 568;
},
{
anchors = (
{
name = bottom;
pos = (264,0);
},
{
name = ogonek;
pos = (453,10);
},
{
name = top;
pos = (252,515);
}
);
background = {
shapes = (
{
pos = (-5,0);
ref = o;
},
{
closed = 1;
nodes = (
(382,-15,o),
(430,69,o),
(441,118,cs),
(448,147,o),
(436,159,o),
(421,159,cs),
(409,159,o),
(401,150,o),
(398,133,cs),
(393,100,o),
(364,29,o),
(266,29,cs),
(170,29,o),
(80,88,o),
(80,260,cs),
(84,409,o),
(158,485,o),
(254,485,cs),
(356,485,o),
(421,417,o),
(424,277,c),
(434,286,l),
(70,286,l),
(69,243,l),
(428,243,ls),
(458,243,o),
(468,253,o),
(468,284,cs),
(468,426,o),
(389,530,o),
(257,530,cs),
(129,530,o),
(35,430,o),
(35,255,cs),
(35,67,o),
(139,-15,o),
(260,-15,cs)
);
}
);
};
layerId = "3D52442A-254C-4C79-B742-A98FD72DF947";
shapes = (
{
closed = 1;
nodes = (
(139,-15,o),
(35,68,o),
(35,254,cs),
(35,430,o),
(129,530,o),
(257,530,cs),
(389,530,o),
(468,423,o),
(468,291,cs),
(468,255,o),
(462,243,o),
(428,243,cs),
(69,243,l),
(70,286,l),
(434,286,l),
(424,277,l),
(422,413,o),
(356,485,o),
(257,485,cs),
(155,485,o),
(80,409,o),
(80,256,cs),
(80,89,o),
(170,29,o),
(271,29,cs),
(354,29,o),
(405,70,o),
(417,128,cs),
(419,138,o),
(427,147,o),
(440,147,cs),
(454,147,o),
(461,136,o),
(461,120,cs),
(461,73,o),
(398,-15,o),
(267,-15,cs)
);
}
);
width = 498;
},
{
anchors = (
{
name = bottom;
pos = (276,0);
},
{
name = ogonek;
pos = (475,10);
},
{
name = top;
pos = (264,515);
}
);
layerId = "09D2E10D-7E7D-41B4-9A81-DCD24BEE186F";
shapes = (
{
closed = 1;
nodes = (
(147,-15,o),
(39,76,o),
(39,253,cs),
(39,420,o),
(136,530,o),
(269,530,cs),
(406,530,o),
(491,412,o),
(491,297,cs),
(491,252,o),
(477,231,o),
(433,231,cs),
(94,231,l),
(94,301,l),
(439,301,l),
(411,278,l),
(409,378,o),
(358,451,o),
(268,451,cs),
(184,451,o),
(124,387,o),
(124,258,cs),
(124,118,o),
(194,64,o),
(280,64,cs),
(352,64,o),
(392,102,o),
(409,146,cs),
(415,161,o),
(427,173,o),
(446,173,cs),
(470,173,o),
(486,154,o),
(484,127,cs),
(481,73,o),
(415,-15,o),
(282,-15,cs)
);
}
);
width = 525.1875;
}
);
metricLeft = "=o";
metricRight = "=o-5";
unicode = 101;
},
{
glyphname = eogonek;
lastChange = "2023-07-07 13:47:12 +0000";
layers = (
{
anchors = (
{
name = bottom;
pos = (287,0);
},
{
name = ogonek;
pos = (516,10);
},
{
name = top;
pos = (284,515);
}
);
background = {
anchors = (
{
name = top;
pos = (284,515);
}
);
shapes = (
{
closed = 1;
nodes = (
(360,61,l),
(324,23,ls),
(304,2,o),
(248,-53,o),
(248,-119,cs),
(248,-182,o),
(297,-213,o),
(348,-215,cs),
(370,-216,o),
(403,-212,o),
(434,-180,cs),
(442,-172,o),
(448,-159,o),
(448,-147,cs),
(448,-129,o),
(435,-112,o),
(413,-112,cs),
(401,-112,o),
(392,-117,o),
(385,-124,cs),
(370,-139,o),
(359,-140,o),
(353,-140,cs),
(327,-140,o),
(323,-124,o),
(323,-113,cs),
(323,-71,o),
(384,-6,o),
(424,41,cs),
(441,61,l)
);
},
{
ref = e;
},
{
closed = 1;
nodes = (
(359,80,l),
(353,53,ls),
(341,1,o),
(227,0,o),
(227,-108,cs),
(227,-178,o),
(285,-215,o),
(363,-215,cs),
(412,-215,o),
(456,-198,o),
(481,-172,cs),
(498,-155,o),
(504,-137,o),
(504,-119,cs),
(504,-80,o),
(473,-57,o),
(438,-57,cs),
(418,-57,o),
(401,-65,o),
(387,-77,cs),
(379,-84,o),
(364,-94,o),
(351,-94,cs),
(343,-94,o),
(337,-89,o),
(337,-81,cs),
(337,-48,o),
(439,3,o),
(483,45,c),
(477,75,l)
);
}
);
};
layerId = "6242D68C-0A25-4F05-8F2A-2075F7C4A210";
shapes = (
{
closed = 1;
nodes = (
(412,-215,o),
(456,-198,o),
(481,-172,cs),
(498,-155,o),
(504,-137,o),
(504,-119,cs),
(504,-80,o),
(473,-57,o),
(438,-57,cs),
(418,-57,o),
(401,-65,o),
(387,-77,cs),
(379,-84,o),
(364,-94,o),
(351,-94,cs),
(343,-94,o),
(337,-89,o),
(337,-81,cs),
(337,-52,o),
(415,-7,o),
(465,30,cs),
(494,52,o),
(514,78,o),
(514,112,cs),
(514,154,o),
(484,179,o),
(447,179,cs),
(412,179,o),
(398,165,o),
(381,151,cs),
(364,136,o),
(344,122,o),
(306,122,cs),
(255,122,o),
(214,148,o),
(201,214,c),
(446,214,ls),
(504,214,o),
(533,247,o),
(533,290,cs),
(533,404,o),
(436,530,o),
(286,530,cs),
(133,530,o),
(40,404,o),
(40,253,cs),
(40,85,o),
(159,-25,o),
(324,-14,c),
(319,-7,o),
(313,-1,o),
(308,6,c),
(271,-14,o),
(227,-40,o),
(227,-108,cs),
(227,-178,o),
(285,-215,o),
(363,-215,cs)
);
},
{
closed = 1;
nodes = (
(210,368,o),
(242,393,o),
(289,393,cs),
(338,393,o),
(370,366,o),
(380,310,c),
(199,310,l)
);
}
);
width = 568;
},
{
anchors = (
{
name = bottom;
pos = (252,0);
},
{
name = ogonek;
pos = (453,10);
},
{
name = top;
pos = (249,515);
}
);
background = {
anchors = (
{
name = top;
pos = (249,515);
}
);
shapes = (
{
closed = 1;
nodes = (
(360,61,l),
(324,23,ls),
(304,2,o),
(248,-53,o),
(248,-119,cs),
(248,-182,o),
(297,-213,o),
(348,-215,cs),
(370,-216,o),
(403,-212,o),
(434,-180,cs),
(442,-172,o),
(448,-159,o),
(448,-147,cs),
(448,-129,o),
(435,-112,o),
(413,-112,cs),
(401,-112,o),
(392,-117,o),
(385,-124,cs),
(370,-139,o),
(359,-140,o),
(353,-140,cs),
(327,-140,o),
(323,-124,o),
(323,-113,cs),
(323,-71,o),
(384,-6,o),
(424,41,cs),
(441,61,l)
);
},
{
ref = e;
},
{
closed = 1;
nodes = (
(366,56,l),
(325,13,ls),
(296,-18,o),
(241,-62,o),
(241,-128,cs),
(241,-184,o),
(283,-215,o),
(333,-215,cs),
(370,-215,o),
(397,-200,o),
(416,-175,cs),
(420,-169,o),
(424,-164,o),
(424,-155,cs),
(424,-143,o),
(416,-136,o),
(406,-136,cs),
(396,-136,o),
(391,-142,o),
(386,-147,cs),
(367,-166,o),
(354,-174,o),
(335,-174,cs),
(304,-174,o),
(287,-155,o),
(287,-129,cs),
(287,-88,o),
(327,-43,o),
(368,5,cs),
(393,34,l)
);
}
);
};
layerId = "3D52442A-254C-4C79-B742-A98FD72DF947";
shapes = (
{
closed = 1;
nodes = (
(370,-215,o),
(397,-200,o),
(416,-175,cs),
(420,-169,o),
(424,-164,o),
(424,-155,cs),
(424,-143,o),
(416,-136,o),
(406,-136,cs),
(396,-136,o),
(391,-142,o),
(386,-147,cs),
(367,-166,o),
(354,-174,o),
(335,-174,cs),
(304,-174,o),
(287,-155,o),
(287,-129,cs),
(287,-88,o),
(327,-43,o),
(368,5,cs),
(421,61,o),
(436,94,o),
(441,118,cs),
(448,147,o),
(436,159,o),
(421,159,cs),
(409,159,o),
(401,150,o),
(398,133,cs),
(393,100,o),
(364,29,o),
(266,29,cs),
(173,29,o),
(86,84,o),
(80,243,c),
(428,243,ls),
(458,243,o),
(468,253,o),
(468,284,cs),
(468,426,o),
(389,530,o),
(257,530,cs),
(129,530,o),
(35,430,o),
(35,255,cs),
(35,67,o),
(139,-15,o),
(260,-15,cs),
(275,-15,o),
(288,-14,o),
(301,-12,c),
(273,-40,o),
(241,-78,o),
(241,-128,cs),
(241,-184,o),
(283,-215,o),
(333,-215,cs)
);
},
{
closed = 1;
nodes = (
(93,418,o),
(164,485,o),
(254,485,cs),
(354,485,o),
(418,420,o),
(424,286,c),
(81,286,l)
);
}
);
width = 498;
},
{
anchors = (
{
name = bottom;
pos = (264,0);
},
{
name = ogonek;
pos = (475,10);
},
{
name = top;
pos = (263,515);
}
);
layerId = "09D2E10D-7E7D-41B4-9A81-DCD24BEE186F";
shapes = (
{
closed = 1;
nodes = (
(378,-216,o),
(411,-207,o),
(439,-177,cs),
(447,-168,o),
(453,-156,o),
(453,-144,cs),
(453,-123,o),
(438,-107,o),
(416,-107,cs),
(403,-107,o),
(393,-113,o),
(386,-121,cs),
(371,-135,o),
(359,-140,o),
(349,-140,cs),
(324,-140,o),
(317,-125,o),
(317,-111,cs),
(317,-72,o),
(369,-24,o),
(411,23,cs),
(450,67,o),
(464,89,o),
(467,108,cs),
(474,136,o),
(459,163,o),
(429,162,cs),
(408,161,o),
(398,149,o),
(389,132,cs),
(376,104,o),
(350,64,o),
(279,64,cs),
(200,64,o),
(135,109,o),
(126,231,c),
(433,231,ls),
(473,231,o),
(491,252,o),
(491,289,cs),
(491,418,o),
(404,530,o),
(270,530,cs),
(136,530,o),
(39,420,o),
(39,255,cs),
(39,75,o),
(149,-17,o),
(281,-15,cs),
(287,-13,o),
(291,-12,o),
(297,-10,c),
(271,-36,o),
(243,-71,o),
(243,-119,cs),
(243,-182,o),
(291,-214,o),
(347,-215,cs)
);
},
{
closed = 1;
nodes = (
(139,400,o),
(194,451,o),
(268,451,cs),
(350,451,o),
(401,390,o),
(409,301,c),
(127,301,l)
);
}
);
width = 525.1875;
}
);
metricLeft = "=e";
metricRight = "=e";
unicode = 281;
},
{
glyphname = f;
lastChange = "2023-07-07 13:47:12 +0000";
layers = (
{
anchors = (
{
name = bottom;
pos = (349,0);
},
{
name = top;
pos = (349,515);
}
);
background = {
shapes = (
{
closed = 1;
nodes = (
(233,-10,o),
(267,24,o),
(267,65,cs),
(267,558,ls),
(267,566,o),
(267,575,o),
(276,580,cs),
(283,584,o),
(289,584,o),
(297,584,cs),
(309,584,o),
(325,578,o),
(343,578,cs),
(380,578,o),
(414,603,o),
(414,644,cs),
(414,708,o),
(340,735,o),
(278,735,cs),
(170,735,o),
(117,660,o),
(117,579,cs),
(117,65,ls),
(117,24,o),
(151,-10,o),
(192,-10,cs)
);
}
);
};
layerId = "6242D68C-0A25-4F05-8F2A-2075F7C4A210";
shapes = (
{
closed = 1;
nodes = (
(233,-10,o),
(267,24,o),
(267,65,cs),
(267,557,ls),
(267,578,o),
(268,590,o),
(279,590,cs),
(292,590,o),
(311,571,o),
(345,571,cs),
(386,571,o),
(414,599,o),
(414,641,cs),
(414,708,o),
(340,735,o),
(276,735,cs),
(170,735,o),
(117,660,o),
(117,579,cs),
(117,65,ls),
(117,24,o),
(151,-10,o),
(192,-10,cs)
);
},
{
closed = 1;
nodes = (
(346,385,ls),
(382,385,o),
(411,414,o),
(411,450,cs),
(411,486,o),
(382,515,o),
(346,515,cs),
(85,515,ls),
(49,515,o),
(20,486,o),
(20,450,cs),
(20,414,o),
(49,385,o),
(85,385,cs)
);
}
);
width = 424;
},
{
anchors = (
{
name = bottom;
pos = (156,0);
},
{
name = top;
pos = (156,720);
}
);
background = {
shapes = (
{
closed = 1;
nodes = (
(130,-10,o),
(141,0,o),
(141,12,cs),
(141,630,ls),
(141,663,o),
(150,690,o),
(190,690,cs),
(202,690,o),
(217,685,o),
(229,667,cs),
(233,661,o),
(240,657,o),
(248,657,cs),
(259,657,o),
(269,663,o),
(269,680,cs),
(269,699,o),
(235,735,o),
(187,735,cs),
(115,735,o),
(96,674,o),
(96,630,cs),
(96,12,ls),
(96,0,o),
(106,-10,o),
(118,-10,cs)
);
}
);
};
layerId = "3D52442A-254C-4C79-B742-A98FD72DF947";
shapes = (
{
closed = 1;
nodes = (
(130,-10,o),
(141,0,o),
(141,12,cs),
(141,630,ls),
(141,663,o),
(150,690,o),
(190,690,cs),
(228,690,o),
(224,657,o),
(248,657,cs),
(261,657,o),
(269,666,o),
(269,680,cs),
(269,699,o),
(235,735,o),
(187,735,cs),
(115,735,o),
(96,674,o),
(96,630,cs),
(96,12,ls),
(96,0,o),
(106,-10,o),
(118,-10,cs)
);
},
{
closed = 1;
nodes = (
(244,471,ls),
(256,471,o),
(266,480,o),
(266,492,cs),
(266,504,o),
(256,515,o),
(244,515,cs),
(52,515,ls),
(40,515,o),
(30,504,o),
(30,492,cs),
(30,480,o),
(40,471,o),
(52,471,cs)
);
}
);
width = 279;
},
{
anchors = (
{
name = bottom;
pos = (202,0);
},
{
name = top;
pos = (202,682);
}
);
layerId = "09D2E10D-7E7D-41B4-9A81-DCD24BEE186F";
shapes = (
{
closed = 1;
nodes = (
(166,-10,o),
(185,9,o),
(185,32,cs),
(185,588,ls),
(185,629,o),
(194,650,o),
(222,650,cs),
(248,650,o),
(251,630,o),
(275,630,cs),
(299,630,o),
(316,647,o),
(316,670,cs),
(316,707,o),
(268,735,o),
(219,735,cs),
(150,735,o),
(101,683,o),
(101,592,cs),
(101,32,ls),
(101,9,o),
(120,-10,o),
(143,-10,cs)
);
},
{
closed = 1;
nodes = (
(273,439,ls),
(295,439,o),
(313,455,o),
(313,476,cs),
(313,497,o),
(295,515,o),
(273,515,cs),
(69,515,ls),
(46,515,o),
(29,498,o),
(29,476,cs),
(29,455,o),
(46,439,o),
(69,439,cs)
);
}
);
width = 326.25;
}
);
unicode = 102;
},
{
glyphname = g;
lastChange = "2023-07-07 13:47:12 +0000";
layers = (
{
anchors = (
{
name = bottom;
pos = (315,-200);
},
{
name = top;
pos = (313,515);
}
);
layerId = "6242D68C-0A25-4F05-8F2A-2075F7C4A210";
shapes = (
{
closed = 1;
nodes = (
(341,1,o),
(392,36,o),
(431,93,c),
(410,105,l),
(411,32,ls),
(412,-38,o),
(373,-70,o),
(292,-70,cs),
(217,-70,o),
(192,-43,o),
(152,-43,cs),
(109,-43,o),
(79,-73,o),
(79,-113,cs),
(79,-142,o),
(94,-160,o),
(117,-175,cs),
(162,-204,o),
(234,-215,o),
(291,-215,cs),
(405,-215,o),
(560,-174,o),
(560,36,cs),
(560,449,ls),
(560,493,o),
(528,525,o),
(485,525,cs),
(442,525,o),
(405,493,o),
(410,449,cs),
(413,421,l),
(435,430,l),
(415,483,o),
(357,530,o),
(269,530,cs),
(114,530,o),
(40,387,o),
(40,260,cs),
(40,128,o),
(118,1,o),
(264,1,cs)
);
},
{
closed = 1;
nodes = (
(234,138,o),
(195,182,o),
(195,267,cs),
(195,352,o),
(234,396,o),
(302,396,cs),
(369,396,o),
(410,354,o),
(410,269,cs),
(410,186,o),
(371,138,o),
(301,138,cs)
);
}
);
width = 630;
},
{
anchors = (
{
name = bottom;
pos = (267,-200);
},
{
name = top;
pos = (248,515);
}
);
layerId = "3D52442A-254C-4C79-B742-A98FD72DF947";
shapes = (
{
closed = 1;
nodes = (
(335,-15,o),
(401,17,o),
(442,126,c),
(423,106,l),
(423,13,ls,{
name = "💚";
}),
(423,-109,o),
(372,-172,o),
(260,-172,cs),
(178,-172,o),
(135,-137,o),
(109,-83,cs),
(105,-75,o),
(98,-71,o),
(88,-71,cs),
(73,-71,o),
(63,-81,o),
(69,-104,cs),
(82,-155,o),
(161,-215,o),
(268,-215,cs),
(403,-215,o),
(468,-121,o),
(468,5,cs),
(468,503,ls,{
name = "💚";
}),
(468,515,o),
(457,525,o),
(445,525,cs),
(433,525,o),
(423,515,o),
(423,503,cs),
(423,445,l),
(423,442,l),
(388,498,o),
(329,530,o),
(256,530,cs),
(119,530,o),
(35,416,o),
(35,252,cs),
(35,89,o),
(117,-15,o),
(257,-15,cs)
);
},
{
closed = 1;
nodes = (
(149,28,o),
(81,110,o),
(81,251,cs),
(81,380,o),
(138,487,o),
(261,487,cs),
(365,487,o),
(423,411,o),
(423,260,cs),
(423,97,o),
(355,28,o),
(256,28,cs)
);
}
);
width = 538;
},
{
anchors = (
{
name = bottom;
pos = (287,-200);
},
{
name = top;
pos = (282,515);
}
);
layerId = "09D2E10D-7E7D-41B4-9A81-DCD24BEE186F";
shapes = (
{
closed = 1;
nodes = (
(330,-15,o),
(390,17,o),
(427,81,c),
(421,78,l),
(421,21,ls,{
name = "💚";
}),
(421,-71,o),
(379,-134,o),
(274,-134,cs),
(195,-134,o),
(158,-98,o),
(134,-75,cs),
(113,-61,o),
(96,-69,o),
(85,-81,cs),
(72,-96,o),
(71,-113,o),
(85,-134,cs),
(110,-174,o),
(184,-215,o),
(279,-215,cs),
(411,-215,o),
(503,-137,o),
(503,17,cs),
(503,482,ls,{
name = "💚";
}),
(503,507,o),
(485,525,o),
(461,525,cs),
(437,525,o),
(419,507,o),
(419,482,cs),
(419,445,l),
(422,446,l),
(401,488,o),
(341,530,o),
(261,530,cs),
(124,530,o),
(39,411,o),
(39,254,cs),
(39,100,o),
(122,-15,o),
(258,-15,cs)
);
},
{
closed = 1;
nodes = (
(181,64,o),
(125,136,o),
(125,258,cs),
(125,376,o),
(177,452,o),
(273,452,cs),
(365,452,o),
(419,382,o),
(419,259,cs),
(419,135,o),
(364,64,o),
(273,64,cs)
);
}
);
width = 573.25;
}
);
metricLeft = o;
metricRight = l;
unicode = 103;
},
{
glyphname = h;
lastChange = "2023-07-07 13:47:12 +0000";
layers = (
{
anchors = (
{
name = bottom;
pos = (308,0);
},
{
name = center;
pos = (308,360);
},
{
name = top;
pos = (308,720);
}
);
background = {
shapes = (
{
closed = 1;
nodes = (
(185,690,ls),
(185,712,o),
(167,730,o),
(145,730,cs),
(122,730,o),
(105,712,o),
(105,690,cs),
(105,30,ls),
(105,8,o),
(122,-10,o),
(145,-10,cs),
(167,-10,o),
(185,8,o),
(185,30,cs)
);
},
{
closed = 1;
nodes = (
(174,333,l),
(185,343,l),
(185,403,o),
(250,451,o),
(323,451,cs),
(387,451,o),
(440,412,o),
(440,344,cs),
(440,30,ls),
(440,8,o),
(458,-10,o),
(480,-10,cs),
(502,-10,o),
(520,8,o),
(520,30,cs),
(520,344,ls),
(520,468,o),
(420,530,o),
(330,530,cs),
(265,530,o),
(215,498,o),
(185,463,c),
(174,449,l)
);
},
{
closed = 1;
nodes = (
(205,294,l),
(220,294,l),
(220,347,o),
(261,389,o),
(322,389,cs),
(379,389,o),
(405,352,o),
(405,295,cs),
(405,65,ls),
(405,24,o),
(439,-10,o),
(480,-10,cs),
(521,-10,o),
(555,24,o),
(555,65,cs),
(555,309,ls),
(555,456,o),
(454,530,o),
(356,530,cs),
(271,530,o),
(226,475,o),
(205,448,c)
);
}
);
};
layerId = "6242D68C-0A25-4F05-8F2A-2075F7C4A210";
shapes = (
{
closed = 1;
nodes = (
(186,-10,o),
(220,24,o),
(220,65,cs),
(220,655,ls),
(220,696,o),
(186,730,o),
(145,730,cs),
(103,730,o),
(70,696,o),
(70,655,cs),
(70,65,ls),
(70,24,o),
(103,-10,o),
(145,-10,cs)
);
},
{
closed = 1;
nodes = (
(181,294,l),
(220,294,l),
(220,339,o),
(251,389,o),
(321,389,cs),
(377,389,o),
(405,357,o),
(405,291,cs),
(405,65,ls),
(405,24,o),
(439,-10,o),
(480,-10,cs),
(521,-10,o),
(555,24,o),
(555,65,cs),
(555,320,ls),
(555,456,o),
(476,530,o),
(362,530,cs),
(295,530,o),
(249,505,o),
(205,441,c)
);
}
);
width = 620;
},
{
anchors = (
{
name = bottom;
pos = (260,0);
},
{
name = center;
pos = (260,360);
},
{
name = top;
pos = (260,720);
}
);
background = {
shapes = (
{
closed = 1;
nodes = (
(108,-10,o),
(115,2,o),
(115,17,cs),
(115,703,ls),
(115,718,o),
(108,730,o),
(92,730,cs),
(76,730,o),
(70,718,o),
(70,703,cs),
(70,17,ls),
(70,2,o),
(76,-10,o),
(92,-10,cs)
);
},
{
closed = 1;
nodes = (
(108,355,l),
(115,355,l),
(115,436,o),
(191,486,o),
(273,486,cs),
(352,486,o),
(415,440,o),
(415,341,cs),
(415,17,ls),
(415,2,o),
(422,-10,o),
(437,-10,cs),
(452,-10,o),
(460,2,o),
(460,17,cs),
(460,341,ls),
(460,475,o),
(372,530,o),
(279,530,cs),
(217,530,o),
(151,508,o),
(107,446,c)
);
}
);
};
layerId = "3D52442A-254C-4C79-B742-A98FD72DF947";
shapes = (
{
closed = 1;
nodes = (
(108,-10,o),
(115,2,o),
(115,17,cs),
(115,703,ls),
(115,718,o),
(108,730,o),
(92,730,cs),
(76,730,o),
(70,718,o),
(70,703,cs),
(70,17,ls),
(70,2,o),
(76,-10,o),
(92,-10,cs)
);
},
{
closed = 1;
nodes = (
(102,335,l),
(115,335,l),
(115,421,o),
(190,487,o),
(290,487,cs),
(363,487,o),
(420,440,o),
(420,349,cs),
(420,17,ls),
(420,2,o),
(427,-10,o),
(442,-10,cs),
(457,-10,o),
(465,2,o),
(465,17,cs),
(465,349,ls),
(465,473,o),
(381,530,o),
(290,530,cs),
(211,530,o),
(143,494,o),
(102,431,c)
);
}
);
width = 525;
},
{
anchors = (
{
name = bottom;
pos = (277,0);
},
{
name = center;
pos = (277,360);
},
{
name = top;
pos = (277,720);
}
);
layerId = "09D2E10D-7E7D-41B4-9A81-DCD24BEE186F";
shapes = (
{
closed = 1;
nodes = (
(137,-10,o),
(155,9,o),
(155,34,cs),
(155,687,ls),
(155,711,o),
(137,730,o),
(112,730,cs),
(87,730,o),
(70,711,o),
(70,687,cs),
(70,34,ls),
(70,9,o),
(87,-10,o),
(112,-10,cs)
);
},
{
closed = 1;
nodes = (
(143,331,l),
(155,331,l),
(155,400,o),
(219,452,o),
(298,452,cs),
(367,452,o),
(412,407,o),
(412,334,cs),
(412,34,ls),
(412,9,o),
(429,-10,o),
(454,-10,cs),
(479,-10,o),
(496,9,o),
(496,34,cs),
(496,338,ls),
(496,460,o),
(414,530,o),
(310,530,cs),
(240,530,o),
(182,498,o),
(143,448,c)
);
}
);
width = 556.875;
}
);
metricLeft = "=n";
metricRight = "=n";
unicode = 104;
},
{
glyphname = hbar;
lastChange = "2023-07-07 13:47:12 +0000";
layers = (
{
layerId = "6242D68C-0A25-4F05-8F2A-2075F7C4A210";
shapes = (
{
pos = (49,0);
ref = h;
},
{
closed = 1;
nodes = (
(63,637,ls),
(37,637,o),
(15,616,o),
(15,589,cs),
(15,562,o),
(37,541,o),
(63,541,cs),
(335,541,ls),
(361,541,o),
(383,562,o),
(383,589,cs),
(383,616,o),
(361,637,o),
(335,637,cs)
);
}
);
width = 669;
},
{
layerId = "3D52442A-254C-4C79-B742-A98FD72DF947";
shapes = (
{
pos = (49,0);
ref = h;
},
{
closed = 1;
nodes = (
(355,586,ls),
(367,586,o),
(377,596,o),
(377,608,cs),
(377,620,o),
(367,631,o),
(355,631,cs),
(37,631,ls),
(25,631,o),
(15,620,o),
(15,608,cs),
(15,596,o),
(25,586,o),
(37,586,cs)
);
}
);
width = 574;
},
{
layerId = "09D2E10D-7E7D-41B4-9A81-DCD24BEE186F";
shapes = (
{
alignment = -1;
pos = (48,0);
ref = h;
},
{
closed = 1;
nodes = (
(127,620,ls),
(115,620,o),
(106,610,o),
(106,598,cs),
(106,586,o),
(115,576,o),
(127,576,cs),
(264,576,ls),
(276,576,o),
(286,586,o),
(286,598,cs),
(286,610,o),
(276,620,o),
(264,620,cs)
);
}
);
width = 605.5;
}
);
metricRight = "=h";
unicode = 295;
},
{
glyphname = idotless;
lastChange = "2023-07-07 13:47:12 +0000";
layers = (
{
anchors = (
{
name = bottom;
pos = (145,0);
},
{
name = ogonek;
pos = (261,10);
},
{
name = top;
pos = (145,515);
}
);
layerId = "6242D68C-0A25-4F05-8F2A-2075F7C4A210";
shapes = (
{
closed = 1;
nodes = (
(186,-10,o),
(220,24,o),
(220,66,cs),
(220,450,ls),
(220,491,o),
(186,525,o),
(145,525,cs),
(104,525,o),
(70,491,o),
(70,450,cs),
(70,66,ls),
(70,24,o),
(104,-10,o),
(145,-10,cs)
);
}
);
width = 290;
},
{
anchors = (
{
name = bottom;
pos = (91,0);
},
{
name = ogonek;
pos = (170,10);
},
{
name = top;
pos = (93,515);
}
);
layerId = "3D52442A-254C-4C79-B742-A98FD72DF947";
shapes = (
{
closed = 1;
nodes = (
(105,-10,o),
(115,-1,o),
(115,12,cs),
(115,503,ls),
(115,516,o),
(105,525,o),
(92,525,cs),
(79,525,o),
(70,516,o),
(70,503,cs),
(70,12,ls),
(70,-1,o),
(79,-10,o),
(92,-10,cs)
);
}
);
width = 185;
},
{
anchors = (
{
name = bottom;
pos = (113,0);
},
{
name = ogonek;
pos = (139,5);
},
{
name = top;
pos = (114,515);
}
);
layerId = "09D2E10D-7E7D-41B4-9A81-DCD24BEE186F";
shapes = (
{
closed = 1;
nodes = (
(137,-10,o),
(156,8,o),
(156,32,cs),
(156,483,ls),
(156,507,o),
(137,525,o),
(113,525,cs),
(88,525,o),
(70,507,o),
(70,483,cs),
(70,32,ls),
(70,8,o),
(88,-10,o),
(113,-10,cs)
);
}
);
width = 225.5;
}
);
unicode = 305;
},
{
glyphname = ij;
lastChange = "2023-07-07 13:47:12 +0000";
layers = (
{
anchors = (
{
name = bottom;
pos = (191,0);
},
{
name = top;
pos = (433,515);
}
);
layerId = "6242D68C-0A25-4F05-8F2A-2075F7C4A210";
shapes = (
{
pos = (4,0);
ref = idotless;
},
{
pos = (30,0);
ref = dotaccentcomb;
},
{
closed = 1;
nodes = (
(455,-215,o),
(508,-140,o),
(508,-59,cs),
(508,450,ls),
(508,493,o),
(476,525,o),
(433,525,cs),
(390,525,o),
(358,493,o),
(358,450,cs),
(358,-48,ls),
(358,-56,o),
(357,-68,o),
(346,-68,cs),
(341,-68,o),
(333,-65,o),
(325,-60,cs),
(313,-53,o),
(300,-49,o),
(286,-49,cs),
(245,-49,o),
(211,-83,o),
(211,-124,cs),
(211,-188,o),
(285,-215,o),
(347,-215,cs)
);
},
{
pos = (317,0);
ref = dotaccentcomb;
}
);
width = 579;
},
{
anchors = (
{
name = bottom;
pos = (169,0);
},
{
name = top;
pos = (299,515);
}
);
layerId = "3D52442A-254C-4C79-B742-A98FD72DF947";
shapes = (
{
pos = (21,0);
ref = idotless;
},
{
pos = (35,0);
ref = dotaccentcomb;
},
{
closed = 1;
nodes = (
(303,-210,o),
(322,-152,o),
(322,-105,cs),
(322,503,ls),
(322,516,o),
(312,525,o),
(299,525,cs),
(286,525,o),
(277,516,o),
(277,503,cs),
(277,-105,ls),
(277,-138,o),
(268,-164,o),
(228,-164,cs),
(216,-164,o),
(201,-160,o),
(189,-142,cs),
(185,-136,o),
(178,-132,o),
(171,-132,cs),
(159,-132,o),
(149,-143,o),
(149,-153,cs),
(149,-185,o),
(199,-210,o),
(231,-210,cs)
);
},
{
pos = (222,0);
ref = dotaccentcomb;
}
);
width = 398;
},
{
anchors = (
{
name = bottom;
pos = (186,0);
},
{
name = top;
pos = (346,515);
}
);
layerId = "09D2E10D-7E7D-41B4-9A81-DCD24BEE186F";
shapes = (
{
alignment = -1;
pos = (11,0);
ref = idotless;
},
{
alignment = -1;
pos = (31,0);
ref = dotaccentcomb;
},
{
closed = 1;
nodes = (
(347,-211,o),
(388,-160,o),
(388,-85,cs),
(388,483,ls),
(388,507,o),
(370,525,o),
(346,525,cs),
(322,525,o),
(304,507,o),
(304,483,cs),
(304,-82,ls),
(304,-109,o),
(300,-127,o),
(275,-127,cs),
(267,-127,o),
(257,-125,o),
(246,-114,cs),
(240,-109,o),
(230,-104,o),
(219,-104,cs),
(196,-104,o),
(178,-123,o),
(178,-144,cs),
(178,-186,o),
(228,-211,o),
(274,-211,cs)
);
},
{
alignment = -1;
pos = (256,0);
ref = dotaccentcomb;
}
);
width = 463.25;
}
);
metricLeft = "=i";
metricRight = "=j";
unicode = 307;
},
{
glyphname = iogonek;
lastChange = "2023-07-07 13:47:12 +0000";
layers = (
{
layerId = "6242D68C-0A25-4F05-8F2A-2075F7C4A210";
shapes = (
{
pos = (64,0);
ref = idotless;
},
{
pos = (90,0);
ref = dotaccentcomb;
},
{
closed = 1;
nodes = (
(270,-215,o),
(336,-169,o),
(336,-113,cs),
(336,-75,o),
(305,-42,o),
(268,-42,cs),
(246,-42,o),
(229,-53,o),
(217,-67,cs),
(212,-73,o),
(206,-83,o),
(197,-83,cs),
(189,-83,o),
(185,-76,o),
(185,-70,cs),
(185,-37,o),
(284,-10,o),
(284,73,cs),
(284,176,l),
(134,186,l),
(134,118,ls),
(134,40,o),
(50,34,o),
(50,-79,cs),
(50,-179,o),
(136,-215,o),
(204,-215,cs)
);
}
);
width = 386;
},
{
background = {
shapes = (
{
closed = 1;
nodes = (
(184,-215,o),
(209,-200,o),
(228,-175,cs),
(232,-169,o),
(236,-164,o),
(236,-155,cs),
(236,-143,o),
(228,-136,o),
(218,-136,cs),
(208,-136,o),
(203,-142,o),
(198,-147,cs),
(179,-166,o),
(166,-174,o),
(147,-174,cs),
(116,-174,o),
(100,-155,o),
(100,-130,cs),
(100,-78,o),
(172,-47,o),
(172,5,cs),
(172,88,l),
(127,88,l),
(127,13,ls),
(127,-28,o),
(55,-62,o),
(55,-131,cs),
(55,-184,o),
(95,-215,o),
(145,-215,cs)
);
}
);
};
layerId = "3D52442A-254C-4C79-B742-A98FD72DF947";
shapes = (
{
pos = (57,0);
ref = idotless;
},
{
pos = (72,0);
ref = dotaccentcomb;
},
{
closed = 1;
nodes = (
(192,-215,o),
(236,-181,o),
(236,-154,cs),
(236,-143,o),
(228,-136,o),
(218,-136,cs),
(208,-136,o),
(203,-142,o),
(198,-147,cs),
(179,-166,o),
(166,-174,o),
(147,-174,cs),
(116,-174,o),
(100,-155,o),
(100,-130,cs),
(100,-78,o),
(172,-47,o),
(172,5,cs),
(172,88,l),
(127,88,l),
(127,13,ls),
(127,-28,o),
(55,-62,o),
(55,-131,cs),
(55,-184,o),
(93,-215,o),
(150,-215,cs)
);
}
);
width = 281;
},
{
layerId = "09D2E10D-7E7D-41B4-9A81-DCD24BEE186F";
shapes = (
{
alignment = -1;
pos = (54,0);
ref = idotless;
},
{
alignment = -1;
pos = (74,0);
ref = dotaccentcomb;
},
{
closed = 1;
nodes = (
(208,-215,o),
(263,-183,o),
(263,-143,cs),
(263,-123,o),
(247,-105,o),
(226,-105,cs),
(213,-105,o),
(204,-110,o),
(196,-118,cs),
(182,-133,o),
(172,-138,o),
(161,-138,cs),
(141,-138,o),
(130,-123,o),
(130,-107,cs),
(130,-62,o),
(210,-32,o),
(210,31,cs),
(210,115,l),
(124,117,l),
(124,39,ls),
(124,-3,o),
(51,-31,o),
(51,-114,cs),
(51,-185,o),
(105,-215,o),
(159,-215,cs)
);
}
);
width = 311.75;
}
);
metricLeft = "=i-20";
metricRight = "=i-20";
unicode = 303;
},
{
glyphname = j;
lastChange = "2023-07-07 13:47:12 +0000";
layers = (
{
anchors = (
{
name = bottom;
pos = (166,-170);
},
{
name = top;
pos = (192,515);
}
);
background = {
shapes = (
{
closed = 1;
nodes = (
(214,-215,o),
(267,-140,o),
(267,-59,cs),
(267,450,ls),
(267,493,o),
(235,525,o),
(192,525,cs),
(149,525,o),
(117,493,o),
(117,450,cs),
(117,-48,ls),
(117,-56,o),
(116,-68,o),
(105,-68,cs),
(100,-68,o),
(92,-65,o),
(84,-60,cs),
(72,-53,o),
(59,-49,o),
(45,-49,cs),
(4,-49,o),
(-30,-83,o),
(-30,-124,cs),
(-30,-188,o),
(44,-215,o),
(106,-215,cs)
);
}
);
};
guides = (
{
pos = (245,658);
},
{
pos = (497,658);
}
);
layerId = "6242D68C-0A25-4F05-8F2A-2075F7C4A210";
shapes = (
{
closed = 1;
nodes = (
(213,-215,o),
(267,-140,o),
(267,-59,cs),
(267,450,ls),
(267,493,o),
(235,525,o),
(192,525,cs),
(149,525,o),
(117,493,o),
(117,450,cs),
(117,-48,ls),
(117,-56,o),
(116,-68,o),
(105,-68,cs),
(91,-68,o),
(74,-49,o),
(44,-49,cs),
(4,-49,o),
(-30,-83,o),
(-30,-125,cs),
(-30,-188,o),
(44,-215,o),
(107,-215,cs)
);
},
{
alignment = -1;
pos = (71,-12);
ref = dotaccentcomb;
}
);
width = 333;
},
{
anchors = (
{
name = bottom;
pos = (107,-170);
},
{
name = top;
pos = (140,515);
}
);
guides = (
{
pos = (247,658);
}
);
layerId = "3D52442A-254C-4C79-B742-A98FD72DF947";
shapes = (
{
closed = 1;
nodes = (
(141,-215,o),
(163,-157,o),
(163,-110,cs),
(163,503,ls),
(163,516,o),
(153,525,o),
(140,525,cs),
(127,525,o),
(118,516,o),
(118,503,cs),
(118,-110,ls),
(118,-141,o),
(109,-169,o),
(71,-169,cs),
(31,-169,o),
(35,-137,o),
(13,-137,cs),
(0,-137,o),
(-10,-147,o),
(-10,-160,cs),
(-10,-185,o),
(31,-215,o),
(77,-215,cs)
);
},
{
pos = (60,0);
ref = dotaccentcomb;
}
);
width = 236;
},
{
anchors = (
{
name = bottom;
pos = (130,-170);
},
{
name = top;
pos = (144,515);
}
);
layerId = "09D2E10D-7E7D-41B4-9A81-DCD24BEE186F";
shapes = (
{
closed = 1;
nodes = (
(150,-215,o),
(193,-165,o),
(193,-89,cs),
(193,483,ls),
(193,507,o),
(174,525,o),
(151,525,cs),
(127,525,o),
(108,507,o),
(108,483,cs),
(108,-87,ls),
(108,-109,o),
(106,-131,o),
(79,-131,cs),
(51,-131,o),
(53,-108,o),
(25,-108,cs),
(-1,-108,o),
(-17,-127,o),
(-17,-150,cs),
(-17,-189,o),
(31,-215,o),
(81,-215,cs)
);
},
{
alignment = -1;
pos = (58,6);
ref = dotaccentcomb;
}
);
width = 265.25;
}
);
metricRight = "=i-5";
unicode = 106;
},
{
glyphname = jdotless;
lastChange = "2023-07-07 13:47:12 +0000";
layers = (
{
anchors = (
{
name = bottom;
pos = (166,-170);
},
{
name = top;
pos = (192,515);
}
);
layerId = "6242D68C-0A25-4F05-8F2A-2075F7C4A210";
shapes = (
{
closed = 1;
nodes = (
(214,-215,o),
(267,-140,o),
(267,-59,cs),
(267,450,ls),
(267,491,o),
(233,525,o),
(192,525,cs),
(151,525,o),
(117,491,o),
(117,450,cs),
(117,-48,ls),
(117,-56,o),
(116,-68,o),
(105,-68,cs),
(91,-68,o),
(76,-49,o),
(45,-49,cs),
(4,-49,o),
(-30,-83,o),
(-30,-124,cs),
(-30,-154,o),
(-13,-176,o),
(11,-191,cs),
(38,-208,o),
(73,-215,o),
(106,-215,cs)
);
}
);
width = 332;
},
{
anchors = (
{
name = bottom;
pos = (105,-170);
},
{
name = top;
pos = (122,515);
}
);
layerId = "3D52442A-254C-4C79-B742-A98FD72DF947";
shapes = (
{
closed = 1;
nodes = (
(125,-215,o),
(144,-154,o),
(144,-110,cs),
(144,502,ls),
(144,514,o),
(134,525,o),
(122,525,cs),
(110,525,o),
(99,514,o),
(99,502,cs),
(99,-110,ls),
(99,-143,o),
(90,-169,o),
(53,-169,cs),
(38,-169,o),
(23,-165,o),
(11,-147,cs),
(7,-141,o),
(-1,-137,o),
(-8,-137,cs),
(-20,-137,o),
(-30,-148,o),
(-30,-161,cs),
(-30,-188,o),
(13,-215,o),
(58,-215,cs)
);
}
);
width = 209;
},
{
anchors = (
{
name = bottom;
pos = (130,-170);
},
{
name = top;
pos = (139,515);
}
);
layerId = "09D2E10D-7E7D-41B4-9A81-DCD24BEE186F";
shapes = (
{
closed = 1;
nodes = (
(139,-215,o),
(181,-164,o),
(181,-89,cs),
(181,483,ls),
(181,506,o),
(162,525,o),
(139,525,cs),
(115,525,o),
(96,506,o),
(96,483,cs),
(96,-87,ls),
(96,-113,o),
(92,-131,o),
(68,-131,cs),
(46,-131,o),
(40,-115,o),
(16,-111,cs),
(-6,-109,o),
(-23,-125,o),
(-24,-143,cs),
(-27,-156,o),
(-25,-168,o),
(-15,-180,cs),
(1,-202,o),
(36,-215,o),
(68,-215,cs)
);
}
);
width = 245.5625;
}
);
unicode = 567;
},
{
glyphname = k;
lastChange = "2023-07-07 13:47:12 +0000";
layers = (
{
anchors = (
{
name = bottom;
pos = (296,0);
},
{
name = top;
pos = (296,720);
}
);
layerId = "6242D68C-0A25-4F05-8F2A-2075F7C4A210";
shapes = (
{
closed = 1;
nodes = (
(186,-10,o),
(220,24,o),
(220,65,cs),
(220,655,ls),
(220,696,o),
(186,730,o),
(145,730,cs),
(104,730,o),
(70,696,o),
(70,655,cs),
(70,65,ls),
(70,24,o),
(104,-10,o),
(145,-10,cs)
);
},
{
closed = 1;
nodes = (
(163,113,l),
(508,394,ls),
(524,407,o),
(535,430,o),
(535,452,cs),
(535,493,o),
(501,526,o),
(460,526,cs),
(442,526,o),
(424,520,o),
(411,509,cs),
(163,307,l)
);
},
{
closed = 1;
nodes = (
(507,-10,o),
(541,24,o),
(541,65,cs),
(541,80,o),
(536,96,o),
(527,108,cs,{
name = "💚";
}),
(362,344,l),
(246,253,l),
(405,22,ls),
(418,3,o),
(442,-10,o),
(466,-10,cs)
);
}
);
width = 571;
},
{
anchors = (
{
name = bottom;
pos = (242,0);
},
{
name = top;
pos = (242,720);
}
);
background = {
shapes = (
{
closed = 1;
nodes = (
(441,-10,o),
(451,1,o),
(451,14,cs),
(451,27,o),
(441,37,o),
(428,37,cs),
(415,37,o),
(404,27,o),
(404,14,cs),
(404,1,o),
(415,-10,o),
(428,-10,cs)
);
}
);
};
layerId = "3D52442A-254C-4C79-B742-A98FD72DF947";
shapes = (
{
closed = 1;
nodes = (
(108,-10,o),
(115,2,o),
(115,17,cs),
(115,703,ls),
(115,718,o),
(108,730,o),
(92,730,cs),
(76,730,o),
(70,718,o),
(70,703,cs),
(70,17,ls),
(70,2,o),
(76,-10,o),
(92,-10,cs)
);
},
{
closed = 1;
nodes = (
(94,227,l),
(393,476,ls,{
name = "💚";
}),
(398,480,o),
(401,486,o),
(401,493,cs),
(401,507,o),
(393,515,o),
(378,515,cs),
(372,515,o),
(367,513,o),
(363,510,cs,{
name = "💚";
}),
(94,285,l)
);
},
{
closed = 1;
nodes = (
(417,-10,o),
(431,-2,o),
(431,13,cs),
(431,19,o),
(430,23,o),
(426,29,cs),
(227,342,l),
(187,317,l),
(385,4,ls),
(392,-6,o),
(398,-10,o),
(408,-10,cs)
);
}
);
width = 461;
},
{
anchors = (
{
name = bottom;
pos = (263,0);
},
{
name = top;
pos = (263,720);
}
);
layerId = "09D2E10D-7E7D-41B4-9A81-DCD24BEE186F";
shapes = (
{
closed = 1;
nodes = (
(137,-10,o),
(155,9,o),
(155,34,cs),
(155,687,ls),
(155,711,o),
(137,730,o),
(112,730,cs),
(87,730,o),
(70,711,o),
(70,687,cs),
(70,34,ls),
(70,9,o),
(87,-10,o),
(112,-10,cs)
);
},
{
closed = 1;
nodes = (
(125,190,l),
(435,443,ls,{
name = "💚";
}),
(445,451,o),
(450,464,o),
(450,476,cs),
(450,500,o),
(433,517,o),
(409,517,cs),
(398,517,o),
(389,514,o),
(381,508,cs,{
name = "💚";
}),
(125,297,l)
);
},
{
closed = 1;
nodes = (
(455,-10,o),
(475,9,o),
(475,33,cs),
(475,42,o),
(471,50,o),
(466,58,cs),
(269,348,l),
(203,297,l),
(397,9,ls),
(405,-3,o),
(418,-10,o),
(432,-10,cs)
);
}
);
width = 504.125;
}
);
metricLeft = "=h";
unicode = 107;
},
{
glyphname = kgreenlandic;
lastChange = "2023-07-07 13:47:12 +0000";
layers = (
{
layerId = "6242D68C-0A25-4F05-8F2A-2075F7C4A210";
shapes = (
{
closed = 1;
nodes = (
(186,-6,o),
(220,28,o),
(220,69,cs),
(220,446,ls),
(220,487,o),
(186,521,o),
(145,521,cs),
(104,521,o),
(70,487,o),
(70,446,cs),
(70,69,ls),
(70,28,o),
(104,-6,o),
(145,-6,cs)
);
},
{
closed = 1;
nodes = (
(143,74,l),
(469,385,ls),
(484,399,o),
(493,420,o),
(493,441,cs),
(493,482,o),
(459,515,o),
(418,515,cs),
(398,515,o),
(375,507,o),
(355,486,cs),
(143,273,l)
);
},
{
closed = 1;
nodes = (
(476,0,o),
(510,34,o),
(510,75,cs),
(510,90,o),
(506,105,o),
(496,118,cs),
(278,393,l),
(163,299,l),
(374,32,ls),
(389,13,o),
(411,0,o),
(435,0,cs)
);
}
);
width = 540;
},
{
layerId = "3D52442A-254C-4C79-B742-A98FD72DF947";
shapes = (
{
closed = 1;
nodes = (
(107,-5,o),
(115,7,o),
(115,22,cs),
(115,493,ls),
(115,508,o),
(107,520,o),
(92,520,cs),
(77,520,o),
(70,508,o),
(70,493,cs),
(70,22,ls),
(70,7,o),
(77,-5,o),
(92,-5,cs)
);
},
{
closed = 1;
nodes = (
(89,210,l),
(385,472,ls),
(392,478,o),
(396,485,o),
(396,493,cs),
(396,506,o),
(387,515,o),
(373,515,cs),
(365,515,o),
(357,509,o),
(346,499,cs),
(88,269,l)
);
},
{
closed = 1;
nodes = (
(403,0,o),
(413,9,o),
(413,21,cs),
(413,28,o),
(410,34,o),
(406,39,cs),
(180,312,l),
(143,285,l),
(368,13,ls),
(373,6,o),
(382,0,o),
(391,0,cs)
);
}
);
width = 443;
},
{
layerId = "09D2E10D-7E7D-41B4-9A81-DCD24BEE186F";
shapes = (
{
closed = 1;
nodes = (
(136,-6,o),
(155,14,o),
(155,38,cs),
(155,477,ls),
(155,501,o),
(136,521,o),
(112,521,cs),
(88,521,o),
(70,501,o),
(70,477,cs),
(70,38,ls),
(70,14,o),
(88,-6,o),
(112,-6,cs)
);
},
{
closed = 1;
nodes = (
(130,151,l),
(427,441,ls),
(436,450,o),
(442,461,o),
(442,474,cs),
(442,497,o),
(423,515,o),
(399,515,cs),
(388,515,o),
(374,510,o),
(360,495,cs),
(129,265,l)
);
},
{
closed = 1;
nodes = (
(439,0,o),
(458,19,o),
(458,42,cs),
(458,51,o),
(454,60,o),
(450,68,cs),
(242,350,l),
(176,297,l),
(381,19,ls),
(389,8,o),
(402,0,o),
(417,0,cs)
);
}
);
width = 488.1875;
}
);
metricLeft = "=h";
metricRight = "=k";
unicode = 312;
},
{
glyphname = l;
lastChange = "2023-07-07 13:47:12 +0000";
layers = (
{
anchors = (
{
name = bottom;
pos = (145,0);
},
{
name = center;
pos = (145,360);
},
{
name = top;
pos = (145,720);
},
{
name = topright;
pos = (270,720);
}
);
layerId = "6242D68C-0A25-4F05-8F2A-2075F7C4A210";
shapes = (
{
closed = 1;
nodes = (
(186,-10,o),
(220,24,o),
(220,66,cs),
(220,655,ls),
(220,696,o),
(186,730,o),
(145,730,cs),
(104,730,o),
(70,696,o),
(70,655,cs),
(70,66,ls),
(70,24,o),
(104,-10,o),
(145,-10,cs)
);
}
);
width = 290;
},
{
anchors = (
{
name = bottom;
pos = (93,0);
},
{
name = center;
pos = (93,360);
},
{
name = top;
pos = (93,720);
},
{
name = topright;
pos = (170,720);
}
);
layerId = "3D52442A-254C-4C79-B742-A98FD72DF947";
shapes = (
{
closed = 1;
nodes = (
(108,-10,o),
(115,2,o),
(115,17,cs),
(115,703,ls),
(115,718,o),
(108,730,o),
(92,730,cs),
(76,730,o),
(70,718,o),
(70,703,cs),
(70,17,ls),
(70,2,o),
(76,-10,o),
(92,-10,cs)
);
}
);
width = 185;
},
{
anchors = (
{
name = bottom;
pos = (113,0);
},
{
name = center;
pos = (113,360);
},
{
name = top;
pos = (113,720);
},
{
name = topright;
pos = (178,720);
}
);
layerId = "09D2E10D-7E7D-41B4-9A81-DCD24BEE186F";
shapes = (
{
closed = 1;
nodes = (
(137,-10,o),
(155,10,o),
(155,34,cs),
(155,687,ls),
(155,711,o),
(137,730,o),
(112,730,cs),
(88,730,o),
(70,711,o),
(70,687,cs),
(70,34,ls),
(70,10,o),
(88,-10,o),
(112,-10,cs)
);
}
);
width = 224.375;
}
);
metricLeft = "=n";
unicode = 108;
},
{
glyphname = lslash;
lastChange = "2023-07-07 13:47:12 +0000";
layers = (
{
layerId = "6242D68C-0A25-4F05-8F2A-2075F7C4A210";
shapes = (
{
attr = {
lineCapEnd = "2";
lineCapStart = "2";
strokeHeight = 130;
strokeWidth = 130;
};
closed = 0;
nodes = (
(51,289,l),
(428,446,l)
);
},
{
pos = (94,0);
ref = l;
}
);
width = 479;
},
{
layerId = "3D52442A-254C-4C79-B742-A98FD72DF947";
shapes = (
{
attr = {
lineCapEnd = "2";
lineCapStart = "2";
strokeHeight = 45;
strokeWidth = 45;
};
closed = 0;
nodes = (
(45,289,l),
(262,426,l)
);
},
{
pos = (61,0);
ref = l;
}
);
width = 307;
},
{
layerId = "09D2E10D-7E7D-41B4-9A81-DCD24BEE186F";
shapes = (
{
attr = {
lineCapEnd = "2";
lineCapStart = "2";
strokeHeight = 77.25;
strokeWidth = 77.25;
};
closed = 0;
nodes = (
(47,289,l),
(323,430,l)
);
},
{
alignment = -1;
pos = (71,0);
ref = l;
}
);
width = 369.625;
}
);
unicode = 322;
},
{
glyphname = m;
lastChange = "2023-07-07 13:47:12 +0000";
layers = (
{
anchors = (
{
name = bottom;
pos = (477,0);
},
{
name = top;
pos = (477,515);
}
);
background = {
shapes = (
{
closed = 1;
nodes = (
(510,294,l),
(525,294,l),
(525,347,o),
(566,389,o),
(631,389,cs),
(685,389,o),
(710,360,o),
(710,295,cs),
(710,65,ls),
(710,24,o),
(744,-10,o),
(785,-10,cs),
(826,-10,o),
(860,24,o),
(860,65,cs),
(860,320,ls),
(860,456,o),
(781,530,o),
(667,530,cs),
(600,530,o),
(554,505,o),
(510,448,c)
);
},
{
closed = 1;
nodes = (
(186,-10,o),
(220,24,o),
(220,65,cs),
(220,283,ls),
(220,359,o),
(263,389,o),
(316,389,cs),
(376,389,o),
(399,352,o),
(399,295,cs),
(399,65,ls),
(399,24,o),
(433,-10,o),
(474,-10,cs),
(515,-10,o),
(549,24,o),
(549,65,cs),
(550,294,ls),
(550,347,o),
(575,389,o),
(640,389,cs),
(694,389,o),
(719,360,o),
(719,295,cs),
(719,65,ls),
(719,24,o),
(753,-10,o),
(794,-10,cs),
(835,-10,o),
(869,24,o),
(869,65,cs),
(869,320,ls),
(869,456,o),
(790,530,o),
(676,530,cs),
(593,530,o),
(541,507,o),
(473,392,c),
(532,405,l),
(502,483,o),
(435,530,o),
(356,530,cs),
(293,530,o),
(230,497,o),
(189,412,c),
(209,413,l),
(240,468,o),
(198,525,o),
(145,525,cs),
(104,525,o),
(70,491,o),
(70,450,cs),
(70,65,ls),
(70,24,o),
(104,-10,o),
(145,-10,cs)
);
},
{
closed = 1;
nodes = (
(186,-10,o),
(220,24,o),
(220,65,cs),
(220,283,ls),
(220,359,o),
(263,389,o),
(316,389,cs),
(376,389,o),
(399,352,o),
(399,295,cs),
(399,65,ls),
(399,24,o),
(433,-10,o),
(474,-10,cs),
(515,-10,o),
(549,24,o),
(549,65,cs),
(550,294,ls),
(550,347,o),
(575,389,o),
(640,389,cs),
(694,389,o),
(719,360,o),
(719,295,cs),
(719,65,ls),
(719,24,o),
(753,-10,o),
(794,-10,cs),
(835,-10,o),
(869,24,o),
(869,65,cs),
(869,320,ls),
(869,456,o),
(790,530,o),
(676,530,cs),
(593,530,o),
(541,507,o),
(473,392,c),
(532,405,l),
(502,483,o),
(435,530,o),
(356,530,cs),
(293,530,o),
(230,497,o),
(189,412,c),
(209,413,l),
(240,468,o),
(198,525,o),
(145,525,cs),
(104,525,o),
(70,491,o),
(70,450,cs),
(70,65,ls),
(70,24,o),
(104,-10,o),
(145,-10,cs)
);
}
);
};
layerId = "6242D68C-0A25-4F05-8F2A-2075F7C4A210";
shapes = (
{
closed = 1;
nodes = (
(186,-10,o),
(220,24,o),
(220,65,cs),
(220,283,ls),
(220,359,o),
(263,389,o),
(316,389,cs),
(376,389,o),
(399,352,o),
(399,295,cs),
(399,65,ls),
(399,24,o),
(433,-10,o),
(474,-10,cs),
(515,-10,o),
(549,24,o),
(549,65,cs),
(550,294,ls),
(550,347,o),
(575,389,o),
(640,389,cs),
(694,389,o),
(719,360,o),
(719,295,cs),
(719,65,ls),
(719,24,o),
(753,-10,o),
(794,-10,cs),
(835,-10,o),
(869,24,o),
(869,65,cs),
(869,320,ls),
(869,456,o),
(790,530,o),
(676,530,cs),
(593,530,o),
(541,507,o),
(473,392,c),
(532,405,l),
(502,483,o),
(435,530,o),
(356,530,cs),
(293,530,o),
(228,494,o),
(189,412,c),
(230,413,l),
(222,453,ls),
(214,492,o),
(189,525,o),
(145,525,cs),
(104,525,o),
(70,491,o),
(70,450,cs),
(70,65,ls),
(70,24,o),
(104,-10,o),
(145,-10,cs)
);
}
);
width = 934;
},
{
anchors = (
{
name = bottom;
pos = (423,0);
},
{
name = top;
pos = (423,515);
}
);
background = {
shapes = (
{
closed = 1;
nodes = (
(108,-10,o),
(115,2,o),
(115,17,cs),
(115,703,ls),
(115,718,o),
(108,730,o),
(92,730,cs),
(76,730,o),
(70,718,o),
(70,703,cs),
(70,17,ls),
(70,2,o),
(76,-10,o),
(92,-10,cs)
);
},
{
closed = 1;
nodes = (
(102,335,l),
(115,335,l),
(115,421,o),
(190,487,o),
(290,487,cs),
(363,487,o),
(420,440,o),
(420,349,cs),
(420,17,ls),
(420,2,o),
(427,-10,o),
(442,-10,cs),
(457,-10,o),
(465,2,o),
(465,17,cs),
(465,349,ls),
(465,476,o),
(376,530,o),
(290,530,cs),
(211,530,o),
(143,494,o),
(102,431,c)
);
}
);
};
layerId = "3D52442A-254C-4C79-B742-A98FD72DF947";
shapes = (
{
closed = 1;
nodes = (
(108,-10,o),
(115,2,o),
(115,17,cs),
(115,342,l),
(120,423,o),
(194,487,o),
(271,487,cs),
(345,487,o),
(400,440,o),
(400,349,cs),
(400,17,ls),
(400,2,o),
(407,-10,o),
(422,-10,cs),
(437,-10,o),
(445,2,o),
(445,17,cs),
(445,349,ls),
(445,433,o),
(515,487,o),
(589,487,cs),
(668,487,o),
(729,443,o),
(729,349,cs),
(729,17,ls),
(729,2,o),
(736,-10,o),
(751,-10,cs),
(766,-10,o),
(774,2,o),
(774,17,cs),
(774,349,ls),
(774,475,o),
(685,530,o),
(596,530,cs),
(532,530,o),
(453,499,o),
(419,423,c),
(432,422,l),
(405,497,o),
(338,530,o),
(277,530,cs),
(212,530,o),
(143,496,o),
(108,434,c),
(115,426,l),
(115,498,ls),
(115,513,o),
(108,525,o),
(92,525,cs),
(76,525,o),
(70,513,o),
(70,498,cs),
(70,17,ls),
(70,2,o),
(76,-10,o),
(92,-10,cs)
);
}
);
width = 834;
},
{
anchors = (
{
name = bottom;
pos = (443,0);
},
{
name = top;
pos = (443,515);
}
);
layerId = "09D2E10D-7E7D-41B4-9A81-DCD24BEE186F";
shapes = (
{
closed = 1;
nodes = (
(137,-10,o),
(155,9,o),
(155,34,cs),
(155,331,l),
(156,403,o),
(220,452,o),
(291,452,cs),
(362,452,o),
(405,407,o),
(405,334,cs),
(405,34,ls),
(405,9,o),
(424,-10,o),
(448,-10,cs),
(472,-10,o),
(490,9,o),
(490,34,cs),
(490,337,ls),
(490,409,o),
(547,451,o),
(615,451,cs),
(685,451,o),
(731,408,o),
(731,334,cs),
(731,34,ls),
(731,9,o),
(750,-10,o),
(774,-10,cs),
(798,-10,o),
(816,9,o),
(816,34,cs),
(815,337,ls),
(815,458,o),
(735,530,o),
(630,530,cs),
(564,530,o),
(494,504,o),
(442,420,c),
(473,424,l),
(445,492,o),
(381,530,o),
(306,530,cs),
(241,530,o),
(179,501,o),
(137,436,c),
(155,422,l),
(155,482,ls),
(155,506,o),
(137,525,o),
(112,525,cs),
(87,525,o),
(70,506,o),
(70,482,cs),
(70,34,ls),
(70,9,o),
(87,-10,o),
(112,-10,cs)
);
}
);
width = 877.5;
}
);
metricLeft = "=n";
metricRight = "=n";
unicode = 109;
},
{
glyphname = n;
lastChange = "2023-07-07 13:47:12 +0000";
layers = (
{
anchors = (
{
name = bottom;
pos = (310,0);
},
{
name = top;
pos = (310,515);
}
);
background = {
shapes = (
{
ref = h;
},
{
closed = 1;
nodes = (
(186,-10,o),
(220,24,o),
(220,65,cs),
(220,655,ls),
(220,696,o),
(186,730,o),
(145,730,cs),
(103,730,o),
(70,696,o),
(70,655,cs),
(70,65,ls),
(70,24,o),
(103,-10,o),
(145,-10,cs)
);
},
{
closed = 1;
nodes = (
(205,294,l),
(220,294,l),
(220,347,o),
(261,389,o),
(326,389,cs),
(380,389,o),
(405,360,o),
(405,295,cs),
(405,65,ls),
(405,24,o),
(439,-10,o),
(480,-10,cs),
(521,-10,o),
(555,24,o),
(555,65,cs),
(555,320,ls),
(555,456,o),
(476,530,o),
(362,530,cs),
(295,530,o),
(249,505,o),
(205,448,c)
);
}
);
};
layerId = "6242D68C-0A25-4F05-8F2A-2075F7C4A210";
shapes = (
{
closed = 1;
nodes = (
(186,-10,o),
(220,24,o),
(220,65,cs),
(220,450,ls),
(220,491,o),
(186,525,o),
(145,525,cs),
(103,525,o),
(70,491,o),
(70,450,cs),
(70,65,ls),
(70,24,o),
(103,-10,o),
(145,-10,cs)
);
},
{
closed = 1;
nodes = (
(176,294,l),
(220,294,l),
(220,339,o),
(251,389,o),
(321,389,cs),
(377,389,o),
(405,357,o),
(405,291,cs),
(405,65,ls),
(405,24,o),
(439,-10,o),
(480,-10,cs),
(521,-10,o),
(555,24,o),
(555,65,cs),
(555,320,ls),
(555,456,o),
(476,530,o),
(362,530,cs),
(295,530,o),
(249,505,o),
(205,441,c)
);
}
);
width = 620;
},
{
anchors = (
{
name = bottom;
pos = (268,0);
},
{
name = top;
pos = (268,515);
}
);
background = {
shapes = (
{
closed = 1;
nodes = (
(102,335,l),
(115,335,l),
(115,417,o),
(191,487,o),
(290,487,cs),
(373,487,o),
(430,440,o),
(430,349,cs),
(430,17,ls),
(430,2,o),
(437,-10,o),
(452,-10,cs),
(467,-10,o),
(475,2,o),
(475,17,cs),
(475,349,ls),
(475,475,o),
(386,530,o),
(290,530,cs),
(216,530,o),
(146,499,o),
(102,431,c)
);
}
);
};
layerId = "3D52442A-254C-4C79-B742-A98FD72DF947";
shapes = (
{
closed = 1;
nodes = (
(108,-10,o),
(115,2,o),
(115,17,cs),
(115,498,ls),
(115,513,o),
(108,525,o),
(92,525,cs),
(76,525,o),
(70,513,o),
(70,498,cs),
(70,17,ls),
(70,2,o),
(76,-10,o),
(92,-10,cs)
);
},
{
closed = 1;
nodes = (
(102,335,l),
(115,335,l),
(115,421,o),
(190,487,o),
(290,487,cs),
(373,487,o),
(430,440,o),
(430,349,cs),
(430,17,ls),
(430,2,o),
(437,-10,o),
(452,-10,cs),
(467,-10,o),
(475,2,o),
(475,17,cs),
(475,349,ls),
(475,474,o),
(390,530,o),
(290,530,cs),
(211,530,o),
(143,494,o),
(102,431,c)
);
}
);
width = 535;
},
{
anchors = (
{
name = bottom;
pos = (280,0);
},
{
name = top;
pos = (280,515);
}
);
layerId = "09D2E10D-7E7D-41B4-9A81-DCD24BEE186F";
shapes = (
{
closed = 1;
nodes = (
(137,-10,o),
(155,9,o),
(155,34,cs),
(155,482,ls),
(155,506,o),
(137,525,o),
(112,525,cs),
(87,525,o),
(70,506,o),
(70,482,cs),
(70,34,ls),
(70,9,o),
(87,-10,o),
(112,-10,cs)
);
},
{
closed = 1;
nodes = (
(143,331,l),
(155,331,l),
(155,400,o),
(219,452,o),
(298,452,cs),
(369,452,o),
(414,407,o),
(414,334,cs),
(414,34,ls),
(414,9,o),
(432,-10,o),
(457,-10,cs),
(481,-10,o),
(498,9,o),
(498,34,cs),
(498,338,ls),
(498,461,o),
(416,530,o),
(310,530,cs),
(240,530,o),
(182,498,o),
(143,448,c)
);
}
);
width = 559.375;
}
);
unicode = 110;
},
{
glyphname = eng;
lastChange = "2023-07-07 13:47:12 +0000";
layers = (
{
anchors = (
{
name = bottom;
pos = (310,0);
},
{
name = top;
pos = (310,515);
}
);
layerId = "6242D68C-0A25-4F05-8F2A-2075F7C4A210";
shapes = (
{
ref = n;
},
{
closed = 1;
nodes = (
(502,-215,o),
(555,-140,o),
(555,-59,cs),
(555,112,l),
(405,112,l),
(405,-48,ls),
(405,-56,o),
(404,-68,o),
(393,-68,cs),
(388,-68,o),
(380,-65,o),
(372,-60,cs),
(360,-53,o),
(347,-49,o),
(333,-49,cs),
(292,-49,o),
(258,-83,o),
(258,-124,cs),
(258,-188,o),
(332,-215,o),
(394,-215,cs)
);
}
);
width = 620;
},
{
anchors = (
{
name = bottom;
pos = (262,0);
},
{
name = top;
pos = (262,515);
}
);
layerId = "3D52442A-254C-4C79-B742-A98FD72DF947";
shapes = (
{
ref = n;
},
{
closed = 1;
nodes = (
(456,-210,o),
(475,-152,o),
(475,-105,cs),
(475,62,l),
(430,62,l),
(430,-105,ls),
(430,-138,o),
(421,-166,o),
(385,-166,cs),
(369,-166,o),
(354,-160,o),
(342,-142,cs),
(338,-136,o),
(331,-132,o),
(323,-132,cs),
(310,-132,o),
(302,-142,o),
(302,-153,cs),
(302,-180,o),
(338,-210,o),
(384,-210,cs)
);
}
);
width = 535;
},
{
anchors = (
{
name = bottom;
pos = (277,0);
},
{
name = top;
pos = (277,515);
}
);
layerId = "09D2E10D-7E7D-41B4-9A81-DCD24BEE186F";
shapes = (
{
alignment = -1;
ref = n;
},
{
closed = 1;
nodes = (
(457,-214,o),
(498,-163,o),
(498,-88,cs),
(498,100,l),
(414,100,l),
(414,-85,ls),
(414,-112,o),
(410,-130,o),
(386,-130,cs),
(377,-130,o),
(366,-128,o),
(356,-117,cs),
(349,-111,o),
(340,-107,o),
(328,-107,cs),
(305,-107,o),
(288,-126,o),
(288,-147,cs),
(288,-187,o),
(335,-214,o),
(384,-214,cs)
);
}
);
width = 562;
}
);
metricLeft = "=n";
metricRight = "=j";
unicode = 331;
},
{
glyphname = o;
lastChange = "2023-07-07 13:47:12 +0000";
layers = (
{
anchors = (
{
name = bottom;
pos = (298,0);
},
{
name = center;
pos = (298,258);
},
{
name = ogonek;
pos = (536,10);
},
{
name = top;
pos = (298,515);
},
{
name = topright;
pos = (576,515);
}
);
background = {
shapes = (
{
closed = 1;
nodes = (
(451,136,o),
(398,62,o),
(298,62,cs),
(198,62,o),
(145,136,o),
(145,259,cs),
(145,378,o),
(198,453,o),
(298,453,cs),
(398,453,o),
(451,378,o),
(451,259,c)
);
},
{
closed = 1;
nodes = (
(531,413,o),
(441,530,o),
(298,530,cs),
(155,530,o),
(65,413,o),
(65,259,cs),
(65,101,o),
(155,-15,o),
(298,-15,cs),
(441,-15,o),
(531,101,o),
(531,259,cs)
);
}
);
};
layerId = "6242D68C-0A25-4F05-8F2A-2075F7C4A210";
shapes = (
{
closed = 1;
nodes = (
(363,122,o),
(401,167,o),
(401,259,cs),
(401,347,o),
(363,393,o),
(298,393,cs),
(233,393,o),
(195,347,o),
(195,259,cs),
(195,167,o),
(233,122,o),
(298,122,cs)
);
},
{
closed = 1;
nodes = (
(143,-15,o),
(40,104,o),
(40,259,cs),
(40,410,o),
(143,530,o),
(298,530,cs),
(453,530,o),
(556,410,o),
(556,259,cs),
(556,104,o),
(453,-15,o),
(298,-15,cs)
);
}
);
width = 596;
},
{
anchors = (
{
name = bottom;
pos = (261,0);
},
{
name = center;
pos = (261,258);
},
{
name = ogonek;
pos = (469,10);
},
{
name = top;
pos = (261,515);
},
{
name = topright;
pos = (501,515);
}
);
background = {
shapes = (
{
closed = 1;
nodes = (
(413,136,o),
(360,62,o),
(260,62,cs),
(160,62,o),
(107,136,o),
(107,259,cs),
(107,378,o),
(160,453,o),
(260,453,cs),
(360,453,o),
(413,378,o),
(413,259,c)
);
},
{
closed = 1;
nodes = (
(493,413,o),
(403,530,o),
(260,530,cs),
(117,530,o),
(27,413,o),
(27,259,cs),
(27,101,o),
(117,-15,o),
(260,-15,cs),
(403,-15,o),
(493,101,o),
(493,259,cs)
);
}
);
};
layerId = "3D52442A-254C-4C79-B742-A98FD72DF947";
shapes = (
{
closed = 1;
nodes = (
(373,28,o),
(440,118,o),
(440,259,cs),
(440,396,o),
(373,487,o),
(260,487,cs),
(147,487,o),
(81,396,o),
(81,259,cs),
(81,118,o),
(147,28,o),
(260,28,cs)
);
},
{
closed = 1;
nodes = (
(118,-15,o),
(35,93,o),
(35,259,cs),
(35,421,o),
(118,530,o),
(260,530,cs),
(402,530,o),
(486,421,o),
(486,259,cs),
(486,93,o),
(402,-15,o),
(260,-15,cs)
);
}
);
width = 521;
},
{
anchors = (
{
name = bottom;
pos = (275,0);
},
{
name = center;
pos = (275,258);
},
{
name = ogonek;
pos = (392,10);
},
{
name = top;
pos = (275,515);
},
{
name = topright;
pos = (530,515);
}
);
layerId = "09D2E10D-7E7D-41B4-9A81-DCD24BEE186F";
shapes = (
{
closed = 1;
nodes = (
(371,63,o),
(427,137,o),
(427,259,cs),
(427,378,o),
(371,452,o),
(274,452,cs),
(179,452,o),
(125,378,o),
(125,259,cs),
(125,137,o),
(179,63,o),
(274,63,cs)
);
},
{
closed = 1;
nodes = (
(133,-15,o),
(39,96,o),
(39,259,cs),
(39,419,o),
(133,530,o),
(274,530,cs),
(416,530,o),
(513,419,o),
(513,259,cs),
(513,96,o),
(416,-15,o),
(274,-15,cs)
);
}
);
width = 551.375;
}
);
unicode = 111;
},
{
glyphname = oogonek;
lastChange = "2023-07-07 13:47:12 +0000";
layers = (
{
anchors = (
{
name = top;
pos = (300,515);
}
);
layerId = "6242D68C-0A25-4F05-8F2A-2075F7C4A210";
shapes = (
{
closed = 1;
nodes = (
(267,-215,o),
(209,-178,o),
(209,-108,cs),
(209,0,o),
(323,1,o),
(335,53,cs),
(341,80,l),
(459,75,l),
(465,45,l),
(421,3,o),
(319,-48,o),
(319,-81,cs),
(319,-89,o),
(325,-94,o),
(333,-94,cs),
(346,-94,o),
(361,-84,o),
(369,-77,cs),
(383,-65,o),
(400,-57,o),
(420,-57,cs),
(455,-57,o),
(486,-80,o),
(486,-119,cs),
(486,-137,o),
(480,-155,o),
(463,-172,cs),
(438,-198,o),
(394,-215,o),
(345,-215,cs)
);
},
{
ref = o;
}
);
width = 596;
},
{
anchors = (
{
name = top;
pos = (261,515);
}
);
layerId = "3D52442A-254C-4C79-B742-A98FD72DF947";
shapes = (
{
closed = 1;
nodes = (
(286,-215,o),
(244,-184,o),
(244,-128,cs),
(244,-62,o),
(295,-16,o),
(326,13,cs),
(372,56,l),
(401,34,l),
(371,5,ls),
(326,-39,o),
(290,-88,o),
(290,-129,cs),
(290,-155,o),
(307,-174,o),
(338,-174,cs),
(357,-174,o),
(370,-166,o),
(389,-147,cs),
(394,-142,o),
(399,-136,o),
(409,-136,cs),
(419,-136,o),
(427,-143,o),
(427,-155,cs),
(427,-164,o),
(423,-169,o),
(419,-175,cs),
(400,-200,o),
(373,-215,o),
(336,-215,cs)
);
},
{
ref = o;
}
);
width = 521;
},
{
anchors = (
{
name = top;
pos = (276,515);
}
);
layerId = "09D2E10D-7E7D-41B4-9A81-DCD24BEE186F";
shapes = (
{
closed = 1;
nodes = (
(289,-214,o),
(240,-182,o),
(240,-119,cs),
(240,-45,o),
(306,-3,o),
(327,27,cs),
(358,64,l),
(436,57,l),
(421,34,ls),
(379,-10,o),
(314,-71,o),
(314,-111,cs),
(314,-125,o),
(322,-140,o),
(346,-140,cs),
(356,-140,o),
(369,-135,o),
(383,-121,cs),
(391,-113,o),
(401,-107,o),
(414,-107,cs),
(435,-107,o),
(450,-123,o),
(450,-144,cs),
(450,-156,o),
(445,-168,o),
(436,-177,cs),
(409,-207,o),
(375,-216,o),
(344,-215,cs)
);
},
{
alignment = -1;
ref = o;
}
);
width = 551.375;
}
);
metricLeft = "=o";
metricRight = "=o";
unicode = 491;
},
{
glyphname = oslash;
lastChange = "2023-07-07 13:47:12 +0000";
layers = (
{
layerId = "6242D68C-0A25-4F05-8F2A-2075F7C4A210";
shapes = (
{
ref = o;
},
{
closed = 1;
nodes = (
(78,-33,o),
(56,-11,o),
(56,16,cs),
(56,27,o),
(60,37,o),
(66,45,cs),
(449,548,ls),
(457,559,o),
(471,567,o),
(487,567,cs),
(513,567,o),
(535,545,o),
(535,518,cs),
(535,507,o),
(531,497,o),
(525,489,cs),
(142,-14,ls),
(134,-25,o),
(120,-33,o),
(104,-33,cs)
);
}
);
width = 596;
},
{
background = {
shapes = (
{
attr = {
lineCapEnd = "2";
lineCapStart = "2";
strokeHeight = 45;
strokeWidth = 45;
};
closed = 0;
nodes = (
(75,-9,l),
(461,519,l)
);
}
);
};
layerId = "3D52442A-254C-4C79-B742-A98FD72DF947";
shapes = (
{
ref = o;
},
{
closed = 1;
nodes = (
(64,-24,o),
(54,-14,o),
(54,-2,cs),
(54,3,o),
(56,7,o),
(59,11,cs),
(432,521,ls),
(436,526,o),
(442,529,o),
(449,529,cs),
(461,529,o),
(471,520,o),
(471,507,cs),
(471,503,o),
(470,498,o),
(467,494,cs),
(94,-15,ls),
(90,-21,o),
(83,-24,o),
(76,-24,cs)
);
}
);
width = 521;
},
{
layerId = "09D2E10D-7E7D-41B4-9A81-DCD24BEE186F";
shapes = (
{
alignment = -1;
ref = o;
},
{
closed = 1;
nodes = (
(68,-25,o),
(53,-10,o),
(53,8,cs),
(53,15,o),
(56,22,o),
(60,28,cs),
(441,535,ls),
(447,543,o),
(456,548,o),
(466,548,cs),
(484,548,o),
(499,534,o),
(499,515,cs),
(499,508,o),
(497,501,o),
(493,496,cs),
(112,-11,ls),
(106,-19,o),
(97,-25,o),
(86,-25,cs)
);
}
);
width = 551.75;
}
);
metricLeft = "=o";
metricRight = "=o";
unicode = 248;
},
